<svg width="801" height="372" viewBox="0 0 801.37 371.58" fill="none" xmlns="http://www.w3.org/2000/svg">
<g id="ONSEN" clip-path="url(#clip0_0_6)">
<g id="Group">
<path id="Vector" d="M113.56 335.8C113.66 336.68 113.61 337.62 113.41 338.59C113.41 339.57 113.21 340.55 112.82 341.53C112.62 342.7 111.25 344.52 108.7 346.97C106.15 349.43 103.26 351.82 100.02 354.17C96.78 356.52 93.7 358.58 90.76 360.35C87.82 362.12 85.95 362.8 85.17 362.41C83.8 362.01 82.52 361.24 81.35 360.06C80.96 359.47 80.47 358.74 79.88 357.85C79.29 356.97 78.8 356.23 78.41 355.64C77.82 354.47 77.23 353.24 76.64 351.96C76.05 350.69 75.27 349.46 74.29 348.29C72.92 346.52 71 343.63 68.56 339.61C66.11 335.6 63.61 331.62 61.06 327.7C58.51 323.78 56.21 320.3 54.15 317.26C52.09 314.22 50.67 312.7 49.89 312.7C49.3 312.7 48.91 313.44 48.71 314.91C48.51 316.38 48.31 318.1 48.12 320.06C48.12 321.23 47.97 322.9 47.68 325.06C47.39 327.22 47.09 329.43 46.8 331.68C46.51 333.94 46.21 336.14 45.92 338.3C45.63 340.46 45.38 342.12 45.18 343.3C44.98 346.24 44.84 349.18 44.74 352.12C44.64 355.06 44.59 358.1 44.59 361.24C44.59 361.83 44.44 362.71 44.15 363.89C43.86 365.07 43.51 365.95 43.12 366.54C42.72 367.52 42.24 368.31 41.65 368.89C41.06 369.48 40.57 369.97 40.18 370.36C38.22 371.34 36.36 371.73 34.59 371.54C34.2 371.54 33.22 371.29 31.65 370.8C30.08 370.31 28.41 369.77 26.65 369.18C24.88 368.59 23.27 368.05 21.8 367.56C20.33 367.07 19.4 366.82 19.01 366.82C18.81 366.82 18.32 366.72 17.54 366.52C16.75 366.32 15.92 365.93 15.04 365.35C14.16 364.76 13.28 363.93 12.39 362.85C11.51 361.77 10.96 360.35 10.77 358.58C10.57 357.41 10.43 355.05 10.33 351.52C10.23 347.99 10.08 344.31 9.89 340.49C9.69 336.67 9.55 332.99 9.45 329.46C9.35 325.93 9.3 323.58 9.3 322.4C9.3 308.87 8.9 295.39 8.12 281.96C7.33 268.53 7.43 255.05 8.41 241.52C8.6 240.74 8.7 239.95 8.7 239.16V236.51C8.89 235.53 8.99 234.55 8.99 233.57C8.99 232.59 9.48 231.32 10.46 229.75C11.44 228.18 12.61 226.62 13.99 225.04C15.36 223.47 16.83 221.91 18.4 220.33C19.97 218.76 21.44 217.49 22.81 216.51C23.99 215.73 25.46 214.99 27.22 214.3C28.99 213.61 30.7 213.08 32.37 212.68C34.03 212.29 35.55 211.94 36.93 211.65C38.3 211.35 39.08 211.21 39.28 211.21C41.43 211.02 43.99 210.92 46.93 210.92C49.87 210.92 52.96 211.07 56.19 211.36C59.42 211.66 62.71 212 66.04 212.39C69.37 212.78 72.51 213.37 75.45 214.15C81.33 215.32 86.23 217.19 90.15 219.74C94.86 223.08 99.12 227.53 102.94 233.12C106.76 238.71 109.46 244.54 111.03 250.62C112.6 257.49 112.4 264.2 110.44 270.77C108.48 277.34 103.77 282.88 96.32 287.38C95.93 287.58 94.95 288.07 93.38 288.85C91.81 289.64 90.14 290.37 88.38 291.06C86.61 291.75 84.9 292.43 83.23 293.12C81.56 293.81 80.44 294.25 79.85 294.44C79.85 294.64 80.48 295.42 81.76 296.79C83.03 298.16 84.55 299.88 86.32 301.93C88.09 303.99 90.04 306.34 92.2 308.99C94.35 311.64 96.41 314.24 98.38 316.79C98.97 317.58 99.9 318.65 101.17 320.02C102.44 321.39 103.77 322.91 105.14 324.58C106.51 326.25 107.88 327.92 109.26 329.58C110.63 331.25 111.81 332.67 112.79 333.85C113.18 334.25 113.42 334.88 113.53 335.76L113.56 335.8ZM58.13 268.9C61.46 268.31 63.76 266.35 65.04 263.02C66.31 259.69 66.07 256.16 64.3 252.43C63.9 251.45 63.07 250.37 61.8 249.2C60.52 248.02 59.15 246.99 57.68 246.11C56.21 245.23 54.84 244.49 53.56 243.91C52.28 243.32 51.35 243.03 50.77 243.03C49.98 243.43 49.74 244.31 50.03 245.68C50.32 247.05 50.27 248.62 49.88 250.39C49.49 253.14 49.34 255.44 49.44 257.3C49.54 259.17 49.39 260.98 49 262.74C48.6 263.92 48.31 265.09 48.12 266.27C47.92 267.44 48.12 268.23 48.71 268.62C49.69 269.02 51.21 269.21 53.27 269.21C55.33 269.21 56.95 269.11 58.12 268.91L58.13 268.9Z" fill="var(--fill-0, #0F0F0F)"/>
<path id="Vector_2" d="M212.23 348.59C211.64 350.75 210.56 351.93 209 352.12L197.82 353.88C194.29 354.86 190.47 355.55 186.35 355.94C182.23 356.34 178.21 356.53 174.29 356.53C170.37 356.53 166.69 356.49 163.26 356.38C159.83 356.28 157.03 356.23 154.88 356.23C153.9 356.23 152.87 356.08 151.79 355.79C150.71 355.5 149.58 355.25 148.41 355.05C147.23 354.86 145.47 354.76 143.12 354.76C140.77 354.76 138.41 354.71 136.06 354.61C133.71 354.51 131.6 354.32 129.74 354.02C127.88 353.73 126.85 353.28 126.65 352.7C126.25 351.33 125.81 347.16 125.33 340.2C124.84 333.24 125.08 324.17 126.07 313C126.46 307.51 126.75 302.12 126.95 296.83C127.14 291.54 127.34 287.22 127.54 283.89C127.93 274.68 128.03 266.49 127.83 259.33C127.63 252.18 127.63 247.81 127.83 246.24C127.24 245.65 127.29 244.23 127.98 241.97C128.66 239.72 128.42 236.93 127.24 233.59C126.84 232.61 127.29 231.73 128.56 230.94C129.83 230.16 131.35 229.47 133.12 228.88C134.89 228.29 136.6 227.85 138.27 227.56C139.93 227.27 141.06 227.12 141.65 227.12C145.57 226.93 149.1 226.53 152.24 225.94C155.37 225.35 159.49 224.96 164.59 224.77C168.9 224.58 173.17 224.53 177.38 224.62C181.59 224.72 185.66 224.97 189.59 225.36C191.16 225.56 192.72 225.71 194.3 225.8C195.87 225.9 197.34 225.95 198.71 225.95C201.06 225.56 203.56 225.66 206.21 226.25C208.86 226.84 210.28 227.92 210.47 229.48C210.86 231.64 210.62 233.55 209.73 235.21C208.85 236.88 208.3 238.59 208.11 240.36C207.91 241.93 207.96 243.55 208.26 245.21C208.55 246.88 208.6 248.59 208.41 250.36C208.21 251.93 207.92 253.5 207.53 255.07C207.13 256.64 206.84 257.91 206.65 258.89C206.45 259.87 205.91 260.8 205.03 261.68C204.15 262.56 202.13 263 199 263C197.63 263.2 195.62 263.15 192.97 262.85C190.32 262.56 188.21 262.22 186.65 261.82C183.9 261.43 181.3 261.43 178.86 261.82C176.41 262.22 174.11 262.51 171.95 262.7C169.79 262.7 167.88 262.55 166.22 262.26C164.55 261.96 162.93 261.82 161.37 261.82C159.21 262.22 157.94 262.51 157.55 262.7C157.15 262.9 156.96 263.88 156.96 265.64C156.96 267.6 157.74 268.83 159.31 269.32C160.88 269.81 162.74 270.15 164.9 270.35C166.47 270.35 168.43 270.06 170.78 269.47C173.13 268.88 175.38 268.59 177.54 268.59C182.05 268.59 185.82 268.79 188.86 269.18C191.9 269.57 193.52 269.87 193.71 270.06C194.89 271.04 195.77 272.95 196.36 275.79C196.95 278.63 197.04 280.74 196.65 282.11C196.25 282.9 196.06 284.12 196.06 285.79C196.06 287.46 196.16 289.17 196.35 290.94C196.54 292.7 196.79 294.47 197.09 296.23C197.39 297.99 197.63 299.46 197.83 300.64C198.02 301.81 197.63 303.04 196.65 304.31C195.67 305.59 194.39 306.32 192.83 306.52C190.87 306.52 188.51 306.48 185.77 306.37C183.02 306.27 180.33 306.18 177.68 306.08C175.03 305.98 172.53 305.93 170.18 305.93C167.83 305.93 165.96 306.03 164.59 306.23C163.8 306.43 163.17 306.63 162.68 306.82C162.19 307.02 161.94 307.9 161.94 309.47C161.94 310.06 162.04 310.7 162.23 311.38C162.42 312.07 162.91 312.41 163.7 312.41H171.35C174.29 312.41 177.23 312.12 180.17 311.53C186.05 310.35 191.35 309.91 196.05 310.21C200.75 310.51 203.3 310.75 203.7 310.95C204.88 311.35 205.61 312.13 205.91 313.3C206.2 314.48 206.65 316.14 207.23 318.3C207.62 319.28 207.86 320.7 207.97 322.56C208.07 324.43 208.12 326.14 208.12 327.71C208.12 328.88 208.36 330.36 208.85 332.12C209.34 333.88 209.78 335.55 210.17 337.12C210.76 339.08 211.44 341.05 212.23 343C212.82 344.57 212.82 346.43 212.23 348.59Z" fill="var(--fill-0, #0F0F0F)"/>
<path id="Vector_3" d="M316.92 239.49C317.31 244.39 317.75 248.9 318.24 253.02C318.73 257.14 318.78 259.4 318.39 259.78C318.39 260.57 317.9 261.25 316.92 261.84C315.94 262.43 314.81 262.92 313.54 263.31C312.26 263.71 311.09 263.9 310.01 263.9C308.93 263.9 308.29 263.8 308.1 263.6H307.51C306.72 263.6 305.84 263.56 304.86 263.45C303.88 263.35 302.9 263.21 301.92 263.01C297.61 263.01 293.29 262.82 288.98 262.42C284.67 262.03 281.82 261.64 280.45 261.24L277.51 260.36C277.31 264.29 276.92 267.76 276.33 270.8C275.74 273.84 275.45 276.34 275.45 278.3L277.51 321.83C277.51 323.2 277.61 325.85 277.8 329.77C277.99 333.69 278.09 337.86 278.09 342.27C278.09 346.68 278.04 350.85 277.94 354.77C277.84 358.7 277.59 361.24 277.2 362.42C277 363.4 275.92 364.23 273.96 364.92C272 365.61 269.84 366.1 267.49 366.39C265.14 366.69 263.03 366.83 261.17 366.83C259.31 366.83 258.18 366.73 257.79 366.53C257.2 366.33 256.37 366.38 255.29 366.68C254.21 366.97 253.13 366.97 252.05 366.68C250.97 366.38 250.04 365.6 249.26 364.33C248.47 363.05 248.08 360.75 248.08 357.42V349.62C248.08 346.78 248.03 344.08 247.93 341.53C247.83 338.98 247.78 336.78 247.78 334.91V331.53C247.58 329.18 247.53 326.73 247.63 324.18C247.73 321.63 247.87 318.99 248.07 316.24C248.26 313.5 248.41 310.85 248.51 308.3C248.61 305.75 248.85 303.3 249.25 300.95C249.64 297.03 249.99 293.16 250.28 289.33C250.57 285.51 250.72 281.64 250.72 277.71C250.72 269.87 250.13 262.12 248.95 254.47C248.95 254.28 248.55 253.2 247.77 251.24H245.71L232.18 252.42L230.41 252.71C228.45 253.11 226.88 252.71 225.7 251.54C224.33 250.17 223.93 248.6 224.52 246.83V246.24L224.23 228.3C224.23 228.11 224.33 227.52 224.52 226.54C224.71 225.56 225.3 224.88 226.28 224.48C228.05 223.89 230.3 223.7 233.04 223.89C235.78 224.09 237.45 224.18 238.04 224.18C240.78 223.99 243.67 223.69 246.71 223.3C249.75 222.91 252.74 222.52 255.68 222.12L285.38 220.06H295.97C296.56 220.06 297.39 219.96 298.47 219.76C299.55 219.57 300.57 219.57 301.56 219.76C302.34 219.96 303.47 220.11 304.94 220.2C306.41 220.3 307.88 220.35 309.35 220.35H313.17C314.25 220.35 314.69 220.35 314.49 220.35C315.27 227.41 316.06 233.78 316.84 239.47L316.92 239.49Z" fill="var(--fill-0, #0F0F0F)"/>
<path id="Vector_4" d="M433.82 335.8C433.92 336.68 433.87 337.62 433.67 338.59C433.67 339.57 433.47 340.55 433.08 341.53C432.88 342.7 431.51 344.52 428.96 346.97C426.41 349.43 423.52 351.82 420.28 354.17C417.04 356.52 413.96 358.58 411.02 360.35C408.08 362.12 406.21 362.8 405.43 362.41C404.06 362.01 402.78 361.24 401.61 360.06C401.22 359.47 400.73 358.74 400.14 357.85C399.55 356.97 399.06 356.23 398.67 355.64C398.08 354.47 397.49 353.24 396.9 351.96C396.31 350.69 395.53 349.46 394.55 348.29C393.18 346.52 391.26 343.63 388.82 339.61C386.37 335.6 383.87 331.62 381.32 327.7C378.77 323.78 376.47 320.3 374.41 317.26C372.35 314.22 370.93 312.7 370.15 312.7C369.56 312.7 369.17 313.44 368.97 314.91C368.77 316.38 368.57 318.1 368.38 320.06C368.38 321.23 368.23 322.9 367.94 325.06C367.65 327.22 367.35 329.43 367.06 331.68C366.77 333.94 366.47 336.14 366.18 338.3C365.89 340.46 365.64 342.12 365.44 343.3C365.24 346.24 365.1 349.18 365 352.12C364.9 355.06 364.85 358.1 364.85 361.24C364.85 361.83 364.7 362.71 364.41 363.89C364.12 365.07 363.77 365.95 363.38 366.54C362.98 367.52 362.5 368.31 361.91 368.89C361.32 369.48 360.83 369.97 360.44 370.36C358.48 371.34 356.62 371.73 354.85 371.54C354.46 371.54 353.48 371.29 351.91 370.8C350.34 370.31 348.67 369.77 346.91 369.18C345.14 368.59 343.53 368.05 342.06 367.56C340.59 367.07 339.66 366.82 339.27 366.82C339.07 366.82 338.58 366.72 337.8 366.52C337.01 366.32 336.18 365.93 335.3 365.35C334.42 364.76 333.54 363.93 332.65 362.85C331.77 361.77 331.22 360.35 331.03 358.58C330.83 357.41 330.69 355.05 330.59 351.52C330.49 347.99 330.34 344.31 330.15 340.49C329.95 336.67 329.81 332.99 329.71 329.46C329.61 325.93 329.56 323.58 329.56 322.4C329.56 308.87 329.16 295.39 328.38 281.96C327.59 268.53 327.69 255.05 328.67 241.52C328.86 240.74 328.96 239.95 328.96 239.16V236.51C329.15 235.53 329.25 234.55 329.25 233.57C329.25 232.59 329.74 231.32 330.72 229.75C331.7 228.18 332.87 226.62 334.25 225.04C335.62 223.47 337.09 221.91 338.66 220.33C340.23 218.76 341.7 217.49 343.07 216.51C344.25 215.73 345.72 214.99 347.48 214.3C349.25 213.61 350.96 213.08 352.63 212.68C354.29 212.29 355.81 211.94 357.19 211.65C358.56 211.35 359.34 211.21 359.54 211.21C361.69 211.02 364.25 210.92 367.19 210.92C370.13 210.92 373.22 211.07 376.45 211.36C379.68 211.66 382.97 212 386.3 212.39C389.63 212.78 392.77 213.37 395.71 214.15C401.59 215.32 406.49 217.19 410.41 219.74C415.12 223.08 419.38 227.53 423.2 233.12C427.02 238.71 429.72 244.54 431.29 250.62C432.86 257.49 432.66 264.2 430.7 270.77C428.74 277.34 424.03 282.88 416.58 287.38C416.19 287.58 415.21 288.07 413.64 288.85C412.07 289.64 410.4 290.37 408.64 291.06C406.87 291.75 405.16 292.43 403.49 293.12C401.82 293.81 400.7 294.25 400.11 294.44C400.11 294.64 400.74 295.42 402.02 296.79C403.29 298.16 404.81 299.88 406.58 301.93C408.35 303.99 410.3 306.34 412.46 308.99C414.61 311.64 416.67 314.24 418.64 316.79C419.23 317.58 420.16 318.65 421.43 320.02C422.7 321.39 424.03 322.91 425.4 324.58C426.77 326.25 428.14 327.92 429.52 329.58C430.89 331.25 432.07 332.67 433.05 333.85C433.44 334.25 433.68 334.88 433.79 335.76L433.82 335.8ZM378.39 268.9C381.72 268.31 384.02 266.35 385.3 263.02C386.57 259.69 386.33 256.16 384.56 252.43C384.16 251.45 383.33 250.37 382.06 249.2C380.78 248.02 379.41 246.99 377.94 246.11C376.47 245.23 375.1 244.49 373.82 243.91C372.54 243.32 371.61 243.03 371.03 243.03C370.24 243.43 370 244.31 370.29 245.68C370.58 247.05 370.53 248.62 370.14 250.39C369.75 253.14 369.6 255.44 369.7 257.3C369.8 259.17 369.65 260.98 369.26 262.74C368.86 263.92 368.57 265.09 368.38 266.27C368.18 267.44 368.38 268.23 368.97 268.62C369.95 269.02 371.47 269.21 373.53 269.21C375.59 269.21 377.21 269.11 378.38 268.91L378.39 268.9Z" fill="var(--fill-0, #0F0F0F)"/>
<path id="Vector_5" d="M532.49 348.59C531.9 350.75 530.82 351.93 529.26 352.12L518.08 353.88C514.55 354.86 510.73 355.55 506.61 355.94C502.49 356.34 498.47 356.53 494.55 356.53C490.63 356.53 486.95 356.49 483.52 356.38C480.09 356.28 477.29 356.23 475.14 356.23C474.16 356.23 473.13 356.08 472.05 355.79C470.97 355.5 469.84 355.25 468.67 355.05C467.49 354.86 465.73 354.76 463.38 354.76C461.03 354.76 458.67 354.71 456.32 354.61C453.97 354.51 451.86 354.32 450 354.02C448.14 353.73 447.11 353.28 446.91 352.7C446.51 351.33 446.07 347.16 445.59 340.2C445.1 333.24 445.34 324.17 446.33 313C446.72 307.51 447.01 302.12 447.21 296.83C447.4 291.54 447.6 287.22 447.8 283.89C448.19 274.68 448.29 266.49 448.09 259.33C447.89 252.18 447.89 247.81 448.09 246.24C447.5 245.65 447.55 244.23 448.24 241.97C448.92 239.72 448.68 236.93 447.5 233.59C447.1 232.61 447.55 231.73 448.82 230.94C450.09 230.16 451.61 229.47 453.38 228.88C455.15 228.29 456.86 227.85 458.53 227.56C460.19 227.27 461.32 227.12 461.91 227.12C465.83 226.93 469.36 226.53 472.5 225.94C475.63 225.35 479.75 224.96 484.85 224.77C489.16 224.58 493.43 224.53 497.64 224.62C501.85 224.72 505.92 224.97 509.85 225.36C511.42 225.56 512.98 225.71 514.56 225.8C516.13 225.9 517.6 225.95 518.97 225.95C521.32 225.56 523.82 225.66 526.47 226.25C529.12 226.84 530.54 227.92 530.73 229.48C531.12 231.64 530.88 233.55 529.99 235.21C529.11 236.88 528.56 238.59 528.37 240.36C528.17 241.93 528.22 243.55 528.52 245.21C528.81 246.88 528.86 248.59 528.67 250.36C528.47 251.93 528.18 253.5 527.79 255.07C527.39 256.64 527.1 257.91 526.91 258.89C526.71 259.87 526.17 260.8 525.29 261.68C524.41 262.56 522.39 263 519.26 263C517.89 263.2 515.88 263.15 513.23 262.85C510.58 262.56 508.47 262.22 506.91 261.82C504.16 261.43 501.56 261.43 499.12 261.82C496.67 262.22 494.37 262.51 492.21 262.7C490.05 262.7 488.14 262.55 486.48 262.26C484.81 261.96 483.19 261.82 481.63 261.82C479.47 262.22 478.2 262.51 477.81 262.7C477.41 262.9 477.22 263.88 477.22 265.64C477.22 267.6 478 268.83 479.57 269.32C481.14 269.81 483 270.15 485.16 270.35C486.73 270.35 488.69 270.06 491.04 269.47C493.39 268.88 495.64 268.59 497.8 268.59C502.31 268.59 506.08 268.79 509.12 269.18C512.16 269.57 513.78 269.87 513.97 270.06C515.15 271.04 516.03 272.95 516.62 275.79C517.21 278.63 517.3 280.74 516.91 282.11C516.51 282.9 516.32 284.12 516.32 285.79C516.32 287.46 516.42 289.17 516.61 290.94C516.8 292.7 517.05 294.47 517.35 296.23C517.65 297.99 517.89 299.46 518.09 300.64C518.28 301.81 517.89 303.04 516.91 304.31C515.93 305.59 514.65 306.32 513.09 306.52C511.13 306.52 508.77 306.48 506.03 306.37C503.28 306.27 500.59 306.18 497.94 306.08C495.29 305.98 492.79 305.93 490.44 305.93C488.09 305.93 486.22 306.03 484.85 306.23C484.06 306.43 483.43 306.63 482.94 306.82C482.45 307.02 482.2 307.9 482.2 309.47C482.2 310.06 482.3 310.7 482.49 311.38C482.68 312.07 483.17 312.41 483.96 312.41H491.61C494.55 312.41 497.49 312.12 500.43 311.53C506.31 310.35 511.61 309.91 516.31 310.21C521.01 310.51 523.56 310.75 523.96 310.95C525.14 311.35 525.87 312.13 526.17 313.3C526.46 314.48 526.91 316.14 527.49 318.3C527.88 319.28 528.12 320.7 528.23 322.56C528.33 324.43 528.38 326.14 528.38 327.71C528.38 328.88 528.62 330.36 529.11 332.12C529.6 333.88 530.04 335.55 530.43 337.12C531.02 339.08 531.7 341.05 532.49 343C533.08 344.57 533.08 346.43 532.49 348.59Z" fill="var(--fill-0, #0F0F0F)"/>
<path id="Vector_6" d="M642.33 354.62C642.43 355.31 642.38 355.94 642.18 356.53C642.18 357.51 641.89 358.3 641.3 358.88C640.91 359.28 640.37 359.76 639.68 360.35C638.99 360.94 637.96 361.33 636.59 361.53C635.42 361.72 633.6 361.77 631.15 361.68C628.69 361.58 626.78 361.53 625.41 361.53C622.66 361.53 620.51 361.92 618.94 362.7C617.76 363.09 616.09 363.44 613.94 363.73C611.78 364.02 610.51 363.68 610.11 362.7C609.91 361.72 609.57 360.15 609.08 357.99C608.59 355.84 608.1 353.48 607.61 350.93C607.12 348.38 606.68 345.84 606.29 343.28C605.89 340.73 605.6 338.57 605.41 336.81C604.82 331.71 604.28 327.21 603.79 323.28C603.3 319.36 602.57 316.13 601.59 313.57C601.19 312.4 601 311.71 601 311.51H572.77C572.37 312.49 572.08 313.32 571.89 314.01C571.69 314.7 571.49 315.14 571.3 315.33C570.9 316.9 570.66 318.32 570.56 319.59C570.46 320.87 570.22 322.29 569.82 323.86C569.43 327.2 568.84 330.58 568.06 334.01C567.27 337.44 566.69 340.82 566.29 344.16C565.89 347.5 565.16 349.7 564.08 350.78C563 351.86 561.68 352.5 560.11 352.69C559.13 352.89 558 352.89 556.73 352.69C555.45 352.5 553.64 352.4 551.29 352.4C550.89 352.4 550.11 352.5 548.94 352.69C547.76 352.89 546.88 352.99 546.29 352.99C544.52 352.99 543.2 352.55 542.32 351.67C541.44 350.79 540.89 350.15 540.7 349.76C540.31 348.98 540.11 348.34 540.11 347.85C540.11 347.36 540.4 346.04 540.99 343.88C541.38 342.31 541.58 339.91 541.58 336.68C541.58 333.45 542.56 328.99 544.52 323.3C546.09 318.4 547.12 313.45 547.61 308.45C548.1 303.45 548.64 299.87 549.23 297.72C550.6 292.62 551.97 287.67 553.35 282.87C554.72 278.07 555.9 273.12 556.88 268.02C557.27 266.26 557.71 264.05 558.2 261.4C558.69 258.75 559.28 255.81 559.97 252.58C560.65 249.35 561.34 246.01 562.03 242.58C562.71 239.15 563.45 235.87 564.24 232.73C565.22 229.4 566.1 226.46 566.89 223.91C567.28 222.54 567.77 221.16 568.36 219.79C568.95 218.42 569.73 217.54 570.71 217.14C572.47 216.16 575.22 215.96 578.94 216.55C580.71 216.95 582.57 217.24 584.53 217.43C586.49 217.63 588.25 217.92 589.82 218.31C593.35 219.1 597.27 219.1 601.59 218.31C605.9 217.53 609.13 217.33 611.29 217.72C613.83 218.12 615.3 219.88 615.7 223.01C615.7 223.21 615.79 223.94 615.99 225.22C616.18 226.5 616.43 228.01 616.72 229.78C617.02 231.54 617.36 233.26 617.75 234.93C618.14 236.6 618.44 238.02 618.63 239.19C619.02 240.96 619.51 242.87 620.1 244.93C620.69 246.99 621.17 248.8 621.57 250.37C621.96 251.74 622.45 253.65 623.04 256.11C623.63 258.56 624.31 261.3 625.1 264.34C625.88 267.38 626.66 270.62 627.45 274.05C628.24 277.48 629.02 280.86 629.81 284.2C631.57 292.05 633.53 300.48 635.69 309.49L642.16 352.72C642.16 353.31 642.21 353.95 642.31 354.63L642.33 354.62ZM593.51 279.78C593.61 278.8 593.66 278.02 593.66 277.43C593.27 275.47 592.78 273.41 592.19 271.25C591.6 269.1 591.11 266.84 590.72 264.49C590.52 263.51 590.42 262.63 590.42 261.84C590.42 261.05 590.32 260.18 590.13 259.19C589.73 257.03 589.25 255.07 588.66 253.31C588.07 251.55 587.68 250.47 587.48 250.08C587.28 249.89 587.04 249.39 586.74 248.61C586.45 247.83 586.1 247.43 585.71 247.43C585.32 247.43 584.97 247.83 584.68 248.61C584.39 249.4 584.24 249.98 584.24 250.37C583.65 252.13 583.06 253.85 582.47 255.52C581.88 257.19 581.39 259 581 260.96L580.12 264.49C579.72 265.47 579.48 266.7 579.38 268.17C579.28 269.64 579.04 270.96 578.64 272.14L577.46 276.85C576.87 278.42 577.02 279.2 577.9 279.2C578.78 279.2 579.32 279.3 579.52 279.49C580.5 279.89 581.28 280.18 581.87 280.37C582.46 280.57 583.24 280.67 584.22 280.67C585.79 280.67 586.87 280.57 587.45 280.37C588.04 280.18 589.11 280.27 590.69 280.67C592.46 281.06 593.38 280.77 593.48 279.79L593.51 279.78Z" fill="var(--fill-0, #0F0F0F)"/>
<path id="Vector_7" d="M728.94 239.49C729.33 244.39 729.77 248.9 730.26 253.02C730.75 257.14 730.8 259.4 730.41 259.78C730.41 260.57 729.92 261.25 728.94 261.84C727.96 262.43 726.83 262.92 725.56 263.31C724.28 263.71 723.11 263.9 722.03 263.9C720.95 263.9 720.31 263.8 720.12 263.6H719.53C718.74 263.6 717.86 263.56 716.88 263.45C715.9 263.35 714.92 263.21 713.94 263.01C709.62 263.01 705.31 262.82 701 262.42C696.68 262.03 693.84 261.64 692.47 261.24L689.53 260.36C689.33 264.29 688.94 267.76 688.36 270.8C687.77 273.84 687.48 276.34 687.48 278.3L689.54 321.83C689.54 323.2 689.64 325.85 689.84 329.77C690.03 333.69 690.13 337.86 690.13 342.27C690.13 346.68 690.08 350.85 689.98 354.77C689.88 358.7 689.63 361.24 689.24 362.42C689.04 363.4 687.96 364.23 686.01 364.92C684.05 365.61 681.89 366.1 679.54 366.39C677.19 366.69 675.08 366.83 673.22 366.83C671.36 366.83 670.23 366.73 669.84 366.53C669.25 366.33 668.41 366.38 667.34 366.68C666.26 366.97 665.18 366.97 664.11 366.68C663.03 366.38 662.1 365.6 661.32 364.33C660.53 363.05 660.15 360.75 660.15 357.42V349.62C660.15 346.78 660.1 344.08 660 341.53C659.9 338.98 659.85 336.78 659.85 334.91V331.53C659.65 329.18 659.6 326.73 659.7 324.18C659.8 321.63 659.95 318.99 660.14 316.24C660.33 313.5 660.48 310.85 660.58 308.3C660.67 305.75 660.92 303.3 661.31 300.95C661.7 297.03 662.05 293.16 662.34 289.33C662.63 285.51 662.78 281.64 662.78 277.71C662.78 269.87 662.19 262.12 661.02 254.47C661.02 254.28 660.62 253.2 659.85 251.24H657.79L644.26 252.42L642.5 252.71C640.54 253.11 638.97 252.71 637.79 251.54C636.42 250.17 636.03 248.6 636.61 246.83V246.24L636.32 228.3C636.32 228.11 636.42 227.52 636.61 226.54C636.8 225.56 637.39 224.88 638.38 224.48C640.14 223.89 642.39 223.7 645.14 223.89C647.89 224.09 649.55 224.18 650.14 224.18C652.88 223.99 655.77 223.69 658.81 223.3C661.85 222.91 664.84 222.52 667.78 222.12L697.48 220.06H708.06C708.65 220.06 709.48 219.96 710.56 219.76C711.64 219.57 712.66 219.57 713.65 219.76C714.43 219.96 715.56 220.11 717.03 220.2C718.5 220.3 719.97 220.35 721.44 220.35H725.26C726.34 220.35 726.77 220.35 726.58 220.35C727.36 227.41 728.14 233.78 728.93 239.47L728.94 239.49Z" fill="var(--fill-0, #0F0F0F)"/>
</g>
<path id="Vector_8" d="M777.95 41.27C781.22 43.19 784.68 45.5 788.33 48.19C791.98 50.88 795.15 53.52 797.84 56.12C800.53 58.72 801.68 60.59 801.3 61.74C801.11 62.13 800 63.04 797.99 64.48C795.97 65.92 793.66 67.56 791.07 69.38C788.48 71.21 786.03 72.98 783.72 74.71C781.41 76.44 779.78 77.79 778.82 78.75C778.63 79.14 778.05 79.81 777.09 80.77L775.94 81.92C775.17 82.88 774.16 82.02 772.91 79.32C771.66 76.63 770.41 73.41 769.16 69.66C767.91 65.91 766.85 62.41 765.99 59.14C765.13 55.87 764.79 54.15 764.98 53.95C763.83 54.15 762.57 55.64 761.23 58.42C759.88 61.21 758.58 64.28 757.34 67.65C756.09 71.01 754.93 74.04 753.88 76.73C752.82 79.42 751.91 80.86 751.14 81.05C747.29 78.74 743.93 76.63 741.05 74.71C738.36 73.17 735.96 71.59 733.84 69.95C731.72 68.32 730.67 67.12 730.67 66.35C730.67 64.81 731 63.28 731.68 61.74C732.35 60.2 733.65 58.76 735.57 57.41C735.95 56.83 736.43 56.21 737.01 55.53C737.58 54.86 738.06 54.23 738.45 53.66C739.21 52.7 740.56 51.16 742.49 49.05C744.41 46.94 746.04 45.4 747.39 44.44C746.62 44.06 745.37 43.82 743.64 43.72C741.91 43.63 740.18 43.53 738.45 43.43C736.72 43.34 735.13 43.24 733.69 43.14C732.25 43.05 731.43 42.9 731.24 42.71C730.85 42.33 730.9 40.79 731.38 38.1C731.86 35.41 732.39 32.43 732.97 29.16C733.35 27.05 733.74 24.84 734.12 22.53C734.5 20.22 735.08 18.97 735.85 18.78C736.23 18.59 737.58 19.26 739.89 20.8C742.2 22.34 744.74 24.12 747.53 26.13C750.31 28.15 752.91 29.98 755.31 31.61C757.71 33.24 759.1 34.16 759.49 34.35C759.68 33.97 759.49 32.53 758.91 30.03C758.33 27.53 757.61 24.84 756.75 21.96C755.89 19.08 755.06 16.44 754.3 14.03C753.53 11.63 753.05 10.24 752.86 9.85C752.66 8.7 754.01 8.36 756.9 8.84C759.78 9.32 762.95 9.76 766.41 10.14C769.68 10.53 772.65 10.53 775.35 10.14C778.04 9.76 779.57 9.76 779.96 10.14C780.15 10.34 780.05 11 779.67 12.16C779.28 13.31 778.81 14.61 778.23 16.05C777.66 17.49 777.12 18.84 776.64 20.09C776.16 21.34 775.92 22.16 775.92 22.54C775.92 22.73 775.68 23.31 775.2 24.27C774.72 25.23 774.24 26.19 773.76 27.15C773.28 28.11 772.8 29.07 772.32 30.03C771.84 30.99 771.6 31.57 771.6 31.76C772.75 31.76 774.43 30.9 776.64 29.16C778.85 27.43 781.15 25.61 783.56 23.68C785.96 21.76 788.12 20.18 790.04 18.92C791.96 17.67 793.02 17.62 793.21 18.78C793.59 19.74 794.41 21.37 795.66 23.68C796.91 25.99 798.01 28.29 798.97 30.6C799.93 32.52 800.46 34.49 800.56 36.51C800.65 38.53 800.32 39.73 799.55 40.11C797.82 39.92 795.41 39.78 792.34 39.68C789.26 39.59 786.24 39.44 783.26 39.25C780.28 39.06 776.58 38.96 772.16 38.96C772.74 38.58 774.66 39.35 777.93 41.27H777.95Z" fill="var(--fill-0, #0F0F0F)"/>
<g id="Group_2">
<g id="Group_3">
<path id="Vector_9" d="M292.91 183.61C293.15 187.64 292.4 189.66 290.64 189.68C288.88 189.7 287.75 189.68 287.26 189.65L276.77 188.99C271.77 188.67 268.28 188.33 266.3 187.95L261.62 187.65L256 187.29C254.13 187.17 252.39 186.81 250.8 186.21C249.2 185.61 248.2 184.67 247.78 183.38C246.7 180.55 245.07 177.56 242.89 174.42C240.7 171.27 238.6 167.88 236.57 164.24C234.99 161.39 232.74 158.3 229.82 154.97C226.89 151.65 224.54 148.18 222.77 144.55C220.09 139.37 217.16 135.04 214 131.58C210.83 128.12 208.19 125.32 206.07 123.17C205.85 122.66 205.1 121.61 203.82 120.02C202.54 118.44 201.21 116.72 199.82 114.88C198.43 113.04 197.16 111.27 196.02 109.56C194.87 107.86 194.07 106.61 193.62 105.84L194.06 116.78L193.11 131.77C193.11 135.53 193.4 139 193.96 142.17C194.51 145.34 194.79 148.8 194.81 152.57C194.96 154.09 195.25 155.48 195.67 156.76C195.84 158.03 196 159.48 196.15 161.12C196.29 162.76 196.45 164.34 196.6 165.85C196.92 168.63 197.13 171.28 197.23 173.79C197.32 176.3 197.36 177.69 197.34 177.93C197.96 179.98 197.72 181.84 196.61 183.53C196.03 184.75 195.21 185.76 194.16 186.57C193.1 187.38 191.45 187.71 189.21 187.57C184.93 187.81 181.15 188.06 177.87 188.36C175.09 188.69 172.57 188.91 170.3 189.01C168.04 189.12 166.77 189.29 166.51 189.52C165.22 189.94 163.46 190.14 161.2 190.13C158.94 190.11 157.57 189.96 157.09 189.68C156.6 189.4 156.28 187.69 156.1 184.54C155.92 181.4 155.78 177.69 155.68 173.42C155.57 169.15 155.61 164.57 155.79 159.7C155.97 154.82 156.18 150.64 156.4 147.13C156.88 143.4 157.38 138.54 157.89 132.55C158.39 126.56 158.87 119.95 159.33 112.7C159.85 104.45 160.46 95.72 161.18 86.48C161.89 77.25 162.57 68.32 163.25 59.71C163.92 51.1 164.55 42.99 165.17 35.38C165.77 27.77 166.23 21.59 166.53 16.84C166.72 13.84 167.29 11.69 168.25 10.36C169.21 9.05 171.21 8.1 174.26 7.54C179.59 6.63 184.42 6.55 188.76 7.33C193.1 8.11 196.63 8.71 199.37 9.13C202.85 9.6 205.05 10.56 205.96 11.99C206.87 13.43 208.01 15.32 209.36 17.66C211.62 21.57 213.61 25.71 215.35 30.08C217.08 34.46 218.18 36.91 218.65 37.44C219.52 39.51 220.33 41.5 221.09 43.43C221.84 45.36 222.66 47.36 223.53 49.42C226.66 55.39 230.55 61.28 235.2 67.09C239.85 72.9 244.25 78.7 248.4 84.48L251.56 88.07C252.28 88.62 252.99 89.29 253.69 90.09L251.43 72.27L251.68 50.46C251.76 49.21 251.83 47.09 251.9 44.08C251.96 41.07 252.1 37.89 252.32 34.51C252.54 31.13 252.86 27.84 253.32 24.6C253.77 21.37 254.3 19.02 254.9 17.55C255.79 15.35 257.08 14.68 258.79 15.54C260.49 16.4 261.85 16.74 262.87 16.55C263.37 16.58 264.87 16.55 267.39 16.46C269.9 16.37 272.72 16.42 275.84 16.62C278.96 16.82 281.82 17.25 284.41 17.92C287 18.59 288.38 19.55 288.55 20.82C289.58 24.4 289.97 28.06 289.74 31.8C289.51 35.54 289.19 38.41 288.82 40.4C288.65 43.15 288.48 48.78 288.32 57.3C288.16 65.82 288.11 75.53 288.17 86.45C288.23 97.36 288.45 108.79 288.82 120.73C289.19 132.67 289.83 143.43 290.73 153.01C291.16 158.06 291.47 162.22 291.64 165.48C291.81 168.75 291.97 172.09 292.14 175.48C292.3 178.88 292.44 181.59 292.57 183.59L292.95 183.61H292.91Z" fill="var(--fill-0, #0F0F0F)"/>
<path id="Vector_10" d="M432.69 100.15C437.4 105.83 440.53 111.32 442.1 116.63C443.67 121.94 444.27 126.65 443.91 130.75C443.55 134.85 443.37 137.63 443.37 139.08C443.37 145.36 442.16 151.33 439.75 157C437.34 162.67 434.08 167.92 429.97 172.75C421.76 181.68 411.87 187.83 400.28 191.22C398.59 191.7 396.96 192.06 395.39 192.31C393.82 192.55 392.19 192.79 390.5 193.04C387.36 193.28 384.28 193.34 381.27 193.22C378.25 193.09 375.17 193.28 372.04 193.76C367.7 194.49 363.11 194.85 358.28 194.85C354.66 194.85 351.16 194.49 347.78 193.76C344.88 193.04 341.02 191.59 336.19 189.42C331.36 187.25 327.26 185.44 323.88 183.99C319.77 182.31 316.88 180.61 315.19 178.92C314.7 178.44 314.22 177.72 313.74 176.74C313.25 175.78 313.74 173.61 315.19 170.23C316.4 167.58 317.66 164.25 318.99 160.27C320.32 156.29 321.71 152.31 323.15 148.32C324.6 144.34 326.05 140.54 327.49 136.91C328.94 133.29 330.26 130.39 331.47 128.22C333.16 125.32 334.37 124.12 335.09 124.6C335.57 125.09 337.8 126.23 341.79 128.04C345.77 129.85 349.21 131.36 352.11 132.57C356.93 134.5 360.13 136.31 361.7 138C363.27 139.69 365.62 140.78 368.76 141.26C373.59 142.23 378.41 141.87 383.24 140.17C388.06 138.48 391.2 135.95 392.65 132.57C394.58 128.47 394.64 124.91 392.83 121.89C391.02 118.87 388.24 115.98 384.5 113.2C380.76 110.43 376.59 107.77 372.01 105.24C367.42 102.7 363.19 99.87 359.34 96.73C354.51 92.63 350.04 89.19 345.94 86.41C341.83 83.64 338.33 80.68 335.44 77.54C332.54 74.41 330.31 70.72 328.74 66.5C327.17 62.28 326.51 56.79 326.75 50.02C326.99 45.44 328.2 41.03 330.37 36.8C332.54 32.58 334.95 28.72 337.61 25.21C340.26 21.71 342.86 18.82 345.39 16.52C347.93 14.23 349.67 12.72 350.64 11.99C352.57 10.79 354.8 9.27 357.34 7.46C359.87 5.65 362.47 4.38 365.12 3.66C374.05 1.01 383.59 -0.2 393.73 0.04C403.87 0.29 412.56 2.46 419.8 6.56L431.75 12.72C432.71 12.96 433.44 13.45 433.92 14.17C434.88 15.38 434.4 17.43 432.47 20.33C431.26 22.26 429.93 24.86 428.49 28.11C427.04 31.37 425.71 34.69 424.51 38.07C423.3 42.41 421.67 45.98 419.62 48.75C417.57 51.53 416.3 53.04 415.82 53.28C414.85 53.77 413.04 53.28 410.39 51.83C407.73 50.38 404.6 49.78 400.98 50.02H394.1C393.61 50.02 392.77 50.08 391.56 50.2C390.35 50.33 389.03 50.69 387.58 51.29C386.13 51.89 384.68 52.86 383.24 54.19C381.79 55.52 380.7 57.51 379.98 60.16C379.01 63.3 379.01 65.83 379.98 67.76C380.94 69.69 382.21 71.32 383.78 72.65C385.35 73.98 386.91 74.89 388.49 75.37C390.06 75.86 390.96 76.22 391.2 76.46C393.85 78.4 396.99 79.78 400.61 80.63C404.23 81.48 407.49 82.86 410.39 84.79C420.53 89.38 427.95 94.51 432.66 100.18L432.69 100.15Z" fill="var(--fill-0, #0F0F0F)"/>
<path id="Vector_11" d="M565.54 182.77C564.62 185.47 563.15 186.89 561.13 187.01L546.75 188.36C542.17 189.33 537.25 189.89 531.97 190.06C526.69 190.23 521.55 190.15 516.56 189.84C511.56 189.52 506.88 189.17 502.52 188.76C498.15 188.36 494.6 188.07 491.85 187.9C490.6 187.82 489.3 187.55 487.95 187.09C486.6 186.63 485.18 186.23 483.7 185.88C482.22 185.54 479.98 185.27 476.98 185.08C473.98 184.89 470.99 184.64 468 184.32C465.01 184.01 462.34 183.59 459.99 183.06C457.64 182.54 456.36 181.89 456.16 181.12C455.77 179.35 455.54 174 455.48 165.09C455.41 156.18 456.46 144.65 458.61 130.49C459.55 123.53 460.36 116.68 461.04 109.95C461.71 103.22 462.31 97.74 462.83 93.51C464.07 81.8 464.85 71.38 465.18 62.25C465.5 53.12 465.86 47.56 466.23 45.58C465.53 44.78 465.7 42.98 466.76 40.16C467.81 37.35 467.73 33.77 466.5 29.42C466.07 28.14 466.71 27.05 468.4 26.16C470.08 25.27 472.08 24.51 474.37 23.9C476.67 23.29 478.89 22.87 481.04 22.63C483.18 22.39 484.63 22.3 485.38 22.34C490.39 22.41 494.92 22.19 498.96 21.69C503 21.19 508.28 21.03 514.79 21.19C520.3 21.29 525.74 21.57 531.1 22.03C536.46 22.5 541.62 23.14 546.59 23.95C548.57 24.33 550.55 24.64 552.55 24.89C554.54 25.15 556.41 25.32 558.16 25.43C561.19 25.12 564.37 25.45 567.69 26.41C571.02 27.37 572.74 28.86 572.86 30.87C573.18 33.65 572.72 36.07 571.46 38.12C570.2 40.18 569.37 42.32 568.98 44.55C568.6 46.53 568.53 48.6 568.78 50.74C569.02 52.89 568.94 55.08 568.55 57.31C568.17 59.29 567.67 61.27 567.05 63.23C566.42 65.2 565.94 66.8 565.62 68.03C565.29 69.27 564.53 70.41 563.33 71.46C562.13 72.51 559.53 72.91 555.54 72.66C553.77 72.8 551.22 72.57 547.87 71.98C544.52 71.39 541.86 70.79 539.9 70.16C536.43 69.44 533.12 69.23 529.97 69.53C526.81 69.84 523.85 70.02 521.09 70.1C518.34 69.93 515.91 69.59 513.82 69.08C511.72 68.57 509.67 68.25 507.67 68.13C504.89 68.46 503.24 68.73 502.73 68.95C502.21 69.17 501.88 70.4 501.74 72.65C501.58 75.15 502.48 76.77 504.44 77.52C506.4 78.27 508.74 78.86 511.48 79.28C513.48 79.41 516 79.19 519.04 78.63C522.09 78.07 524.98 77.88 527.73 78.05C533.47 78.41 538.27 78.97 542.11 79.71C545.95 80.45 547.98 80.96 548.22 81.22C549.64 82.57 550.61 85.07 551.13 88.74C551.65 92.41 551.6 95.11 551 96.82C550.43 97.79 550.09 99.34 549.95 101.46C549.81 103.58 549.8 105.78 549.91 108.04C550.01 110.3 550.19 112.57 550.42 114.84C550.65 117.11 550.84 119 551 120.52C551.15 122.03 550.55 123.56 549.21 125.11C547.85 126.66 546.17 127.49 544.16 127.61C541.66 127.45 538.67 127.21 535.18 126.85C531.69 126.51 528.26 126.17 524.9 125.82C521.54 125.48 518.36 125.21 515.36 125.03C512.36 124.85 509.98 124.82 508.22 124.96C507.2 125.15 506.37 125.35 505.74 125.56C505.1 125.77 504.72 126.87 504.59 128.87C504.54 129.62 504.61 130.44 504.81 131.33C505 132.22 505.6 132.7 506.6 132.76L516.34 133.38C520.09 133.62 523.86 133.48 527.65 132.97C535.24 131.94 542.02 131.81 547.99 132.56C553.96 133.31 557.19 133.83 557.67 134.11C559.14 134.71 560.01 135.76 560.29 137.29C560.57 138.81 561 140.97 561.57 143.77C561.99 145.05 562.18 146.88 562.16 149.26C562.13 151.65 562.06 153.83 561.93 155.83C561.84 157.33 562.03 159.22 562.51 161.51C562.99 163.8 563.42 165.96 563.79 167.98C564.38 170.53 565.1 173.08 565.94 175.64C566.56 177.69 566.41 180.06 565.49 182.76L565.54 182.77Z" fill="var(--fill-0, #0F0F0F)"/>
<path id="Vector_12" d="M719.9 192.91C720.14 196.94 719.39 198.96 717.63 198.98C715.87 199 714.74 198.98 714.25 198.95C712.25 198.82 708.75 198.6 703.76 198.29C698.76 197.97 695.27 197.63 693.29 197.25L688.61 196.95L682.99 196.59C681.12 196.47 679.38 196.11 677.79 195.51C676.19 194.91 675.19 193.97 674.77 192.68C673.69 189.85 672.06 186.86 669.88 183.72C667.69 180.57 665.59 177.18 663.56 173.54C661.98 170.69 659.73 167.6 656.81 164.27C653.88 160.95 651.53 157.48 649.76 153.85C647.08 148.67 644.15 144.34 640.99 140.88C637.82 137.42 635.18 134.62 633.06 132.47C632.84 131.96 632.09 130.91 630.81 129.32C629.53 127.74 628.2 126.02 626.81 124.18C625.42 122.34 624.15 120.57 623.01 118.86C621.86 117.16 621.06 115.91 620.61 115.14L621.05 126.08L620.1 141.07C620.1 144.83 620.39 148.3 620.95 151.47C621.5 154.64 621.78 158.1 621.8 161.87C621.95 163.39 622.24 164.78 622.66 166.06C622.83 167.33 622.99 168.78 623.14 170.42C623.28 172.06 623.44 173.64 623.59 175.15C623.91 177.93 624.12 180.58 624.22 183.09C624.31 185.6 624.35 186.99 624.33 187.23C624.95 189.28 624.71 191.14 623.6 192.83C623.02 194.05 622.2 195.06 621.15 195.87C620.09 196.68 618.44 197.01 616.2 196.87C611.92 197.11 608.14 197.36 604.86 197.66C602.08 197.99 599.56 198.21 597.29 198.31C595.03 198.42 593.76 198.59 593.5 198.82C592.21 199.24 590.45 199.44 588.19 199.43C585.93 199.41 584.56 199.26 584.08 198.98C583.59 198.7 583.27 196.99 583.09 193.84C582.91 190.7 582.77 186.99 582.67 182.72C582.56 178.45 582.6 173.87 582.78 169C582.96 164.12 583.17 159.94 583.39 156.43C583.87 152.7 584.37 147.84 584.88 141.85C585.38 135.86 585.86 129.25 586.32 122C586.84 113.75 587.45 105.02 588.17 95.78C588.88 86.55 589.56 77.62 590.24 69.01C590.91 60.4 591.54 52.29 592.16 44.68C592.76 37.07 593.22 30.89 593.52 26.14C593.71 23.14 594.28 20.99 595.24 19.66C596.2 18.35 598.2 17.4 601.25 16.84C606.58 15.93 611.41 15.85 615.75 16.63C620.09 17.41 623.62 18.01 626.36 18.43C629.84 18.9 632.04 19.86 632.95 21.29C633.86 22.73 635 24.62 636.35 26.96C638.61 30.87 640.6 35.01 642.34 39.38C644.07 43.76 645.17 46.21 645.64 46.74C646.51 48.81 647.32 50.8 648.08 52.73C648.83 54.66 649.65 56.66 650.52 58.72C653.65 64.69 657.54 70.58 662.19 76.39C666.84 82.2 671.24 88 675.39 93.78L678.55 97.37C679.27 97.92 679.98 98.59 680.68 99.39L678.42 81.57L678.67 59.76C678.75 58.51 678.82 56.39 678.89 53.38C678.95 50.37 679.09 47.19 679.31 43.81C679.53 40.43 679.85 37.14 680.31 33.9C680.76 30.67 681.29 28.32 681.89 26.85C682.78 24.65 684.07 23.98 685.78 24.84C687.48 25.7 688.84 26.04 689.86 25.85C690.36 25.88 691.86 25.85 694.38 25.76C696.89 25.67 699.71 25.72 702.83 25.92C705.95 26.12 708.81 26.55 711.4 27.22C713.99 27.89 715.37 28.85 715.54 30.12C716.57 33.7 716.96 37.36 716.73 41.1C716.5 44.84 716.18 47.71 715.81 49.7C715.64 52.45 715.47 58.08 715.31 66.6C715.15 75.12 715.1 84.83 715.16 95.75C715.22 106.66 715.44 118.09 715.81 130.03C716.18 141.97 716.82 152.73 717.72 162.31C718.15 167.36 718.46 171.52 718.63 174.78C718.8 178.05 718.96 181.39 719.13 184.78C719.29 188.18 719.43 190.89 719.56 192.89L719.94 192.91H719.9Z" fill="var(--fill-0, #0F0F0F)"/>
</g>
<path id="Vector_13" d="M146.17 55.35C146.76 59.9 147.28 64.58 147.73 69.37C148.18 74.17 148.45 78.76 148.55 83.15C148.65 87.55 148.47 91.36 148.02 94.59C147.91 96.34 147.65 99.4 147.25 103.76C146.84 108.13 146.35 112.92 145.78 118.15C145.2 123.38 144.31 128.53 143.11 133.59C141.91 138.66 140.46 142.77 138.75 145.92C133.35 155.87 127.79 163.6 122.05 169.13C116.31 174.67 110.84 178.77 105.66 181.45C100.47 184.13 95.85 185.72 91.81 186.22C87.76 186.72 84.73 187.02 82.72 187.15C78.7 187.15 74.65 186.76 70.57 186.01C66.48 185.25 62.71 184.38 59.26 183.41C55.81 182.44 52.92 181.51 50.6 180.61C48.27 179.71 46.74 179.11 46.01 178.81C42.81 177.85 39.42 175.89 35.85 172.9C33.24 170.48 30.72 167.75 28.28 164.71C25.84 161.67 23.68 159.09 21.81 156.97C13.66 146.92 7.86 136.65 4.38 126.14C0.9 115.64 -0.5 105.14 0.16 94.64C1.49 73.66 10.52 53.79 27.26 35.03C29.15 32.89 30.98 30.69 32.76 28.42C34.53 26.15 36.48 24.08 38.61 22.2C40.75 20.08 43.12 18.22 45.73 16.63L55.64 8.6C65.32 2.21 76.03 -0.63 87.78 0.12L91.71 0.37L97.52 0.74C99.52 0.87 101.45 1.05 103.32 1.29C105.18 1.54 106.62 1.69 107.62 1.75C112.58 2.57 116.71 3.83 119.98 5.54C123.26 7.25 126.18 9.57 128.76 12.49C131.35 15.16 134.2 19.61 137.32 25.82C140.44 32.04 142.7 37.95 144.1 43.56C144.89 46.87 145.58 50.8 146.18 55.35H146.17ZM90.06 83.03C90.45 80.8 90.8 78.25 91.11 75.38C91.41 72.52 91.78 69.72 92.21 66.98C92.68 63.5 92.52 61.11 91.72 59.8C90.92 58.5 89.84 57.8 88.47 57.71C87.1 57.62 85.69 58.04 84.25 58.95C82.81 59.86 81.68 60.92 80.85 62.12C80 63.57 79.01 65.46 77.86 67.76C76.71 70.07 75.74 72.46 74.96 74.91C74.18 77.37 73.64 79.85 73.36 82.33C73.07 84.82 73.13 86.96 73.52 88.74C73.94 90.02 74.49 91.24 75.17 92.42C75.85 93.59 77.07 94.11 78.83 93.97C80.09 93.8 82.14 93.18 84.97 92.1C87.79 91.03 89.49 88 90.06 83.02V83.03Z" fill="var(--fill-0, #0F0F0F)"/>
</g>
</g>
<defs>
<clipPath id="clip0_0_6">
<rect width="801.37" height="371.58" fill="white"/>
</clipPath>
</defs>
</svg>
