<svg width="32" height="32" viewBox="214.4 -1.9 32 32" fill="none" xmlns="http://www.w3.org/2000/svg">
<path d="M242.93 11.3504C240.51 11.1304 233.8 10.9104 232.7 10.9104C234.35 11.1304 244.25 17.9504 243.59 19.6004C243.26 20.1504 236.33 24.6604 235.01 26.0904C234.68 26.5304 233.91 27.3004 233.91 27.3004C232.81 28.8404 229.51 16.8504 229.73 16.6304C227.86 16.9604 225.55 26.7504 224.45 26.9704C224.45 26.9704 216.64 22.4604 216.64 21.3604C216.64 20.1504 217.08 18.9404 218.51 17.9504C219.61 16.4104 221.59 13.8804 223.02 13.0004C221.81 12.5604 217.19 12.6704 216.86 12.3404C216.53 12.0104 217.08 9.70036 217.52 7.17036C217.85 5.52035 218.07 3.32035 218.62 3.21035C219.39 3.21035 226.98 8.93036 227.64 9.15035C227.97 8.60035 225.33 0.350352 225.11 -0.199648C225 -0.529643 225.33 -0.639648 225.77 -0.639648C226.76 -0.639648 228.52 -0.199648 230.28 -0.089649C232.7 0.130355 235.12 -0.309646 235.45 -0.089649C235.78 0.130355 233.91 4.20036 233.91 4.64036C233.91 4.97036 232.26 7.83035 232.26 8.16035C233.69 8.16035 238.75 2.99035 240.18 2.99035C240.51 2.99035 242.49 7.17036 242.71 7.72036C243.37 9.15035 243.48 11.0204 242.93 11.3504Z" fill="black"/>
</svg>
