<svg width="267" height="170" viewBox="0 0 267 170" fill="none" xmlns="http://www.w3.org/2000/svg">
<g clip-path="url(#clip0_22_55)">
<path d="M260.39 68.5298C261.49 68.7498 265.45 68.7498 265.23 68.7498C265.23 68.7498 266.99 83.0498 266.66 83.4898C266.66 84.6998 263.14 85.3598 262.81 84.9198C262.04 84.9198 261.27 84.8098 260.5 84.6998C257.31 84.6998 253.46 84.2598 252.47 84.0398L251.37 83.7098C251.26 86.6798 250.6 88.9898 250.6 90.4198L251.37 106.7C251.48 108.68 251.92 120.01 251.26 121.88C250.82 123.42 244.44 123.64 244 123.42C243.23 123.2 240.37 124.85 240.37 120.01C240.37 116.38 240.26 110.99 240.26 110.33C240.15 108.57 240.26 106.59 240.37 104.61C240.48 102.63 240.59 100.65 240.81 98.8898C241.14 96.0298 241.36 93.1698 241.36 90.1998C241.36 87.2298 241.14 84.3698 240.7 81.5098C240.7 81.2898 240.48 80.8498 240.26 80.2998H239.49L233.77 80.8498C233.11 80.9598 232.45 80.8498 232.01 80.4098C231.57 79.9698 231.35 79.3098 231.57 78.6498V78.4298L231.46 71.7198C231.46 71.6098 231.46 70.5098 232.23 70.2898C233.55 69.8498 236.19 70.1798 236.63 70.1798C238.61 70.0698 241.03 69.7398 243.23 69.4098L254.34 68.6398H258.3C258.74 68.6398 259.73 68.4198 260.39 68.5298Z" fill="black"/>
<path d="M234.754 118.25C234.754 118.69 234.864 119.24 234.754 119.68C234.754 120.01 234.644 120.34 234.424 120.56C234.204 120.89 233.654 121.44 232.664 121.55C231.784 121.66 229.474 121.55 228.484 121.55C227.274 121.55 226.504 121.77 226.064 121.99C225.514 122.21 224.634 122.32 223.864 122.32C223.314 122.32 222.874 122.32 222.764 121.99C222.324 120.56 221.334 114.84 221.004 112.31C220.564 108.46 220.344 105.49 219.574 103.62C219.464 103.29 219.354 103.07 219.354 102.85H208.794C208.574 103.51 208.354 104.17 208.244 104.28C208.024 105.38 207.914 106.37 207.694 107.47C207.364 110 206.704 112.53 206.374 115.06C206.044 117.59 205.274 118.14 204.064 118.25C203.294 118.36 202.524 118.14 200.764 118.14C200.544 118.14 199.334 118.36 198.894 118.36C197.574 118.36 196.914 117.48 196.804 117.15C196.474 116.6 196.474 116.49 196.914 114.95C197.134 113.85 196.804 111.43 198.234 107.25C199.444 103.62 199.554 99.3295 199.994 97.6795C200.984 93.9395 202.194 90.4195 202.854 86.5695C203.844 81.0695 204.834 75.3495 206.594 70.0695C206.924 69.0795 207.254 67.8695 208.024 67.5395C208.574 67.2095 209.894 67.0995 211.104 67.3195C212.424 67.5395 213.964 67.7595 215.174 67.9795C217.814 68.5295 221.554 67.4295 223.204 67.7595C223.974 67.8695 224.744 68.7495 224.854 69.7395C224.854 70.0695 225.624 74.1395 225.954 75.7895C226.284 77.1095 226.724 78.7595 227.054 79.9695C228.154 84.2595 232.334 102.08 232.334 102.08L234.754 118.25ZM215.504 91.2995C216.824 91.5195 216.604 90.5295 216.604 90.0895C216.384 88.6595 215.834 87.0095 215.504 85.2495C215.284 83.3795 214.954 81.7295 214.294 79.8595C214.184 79.7495 213.854 78.8695 213.634 78.8695C213.304 78.8695 213.084 79.6395 213.084 79.9695C212.534 81.7295 211.984 83.4895 211.544 85.2495C211.324 86.0195 211.214 87.2295 210.994 88.1095C210.884 88.5495 210.664 89.4295 210.554 89.8695C210.114 90.9695 211.214 90.7495 211.324 90.8595C211.984 91.0795 212.314 91.2995 213.084 91.2995C214.184 91.2995 214.404 91.0795 215.504 91.2995Z" fill="black"/>
<path d="M194.833 114.62C195.273 115.83 194.723 117.92 193.623 118.03L189.443 118.69C184.273 120.12 176.463 119.57 173.383 119.57C172.613 119.57 171.843 119.24 170.963 119.13C169.203 118.91 163.153 119.24 162.823 118.25C162.493 117.26 161.943 111.65 162.603 103.4C162.933 99.3298 163.043 95.0398 163.153 92.5098C163.373 85.5798 163.153 79.6398 163.263 78.4298C162.823 77.9898 163.923 76.1198 163.043 73.6998C162.493 72.1598 167.663 71.2798 168.433 71.2798C171.293 71.1698 173.273 70.5098 177.013 70.3998C180.203 70.2898 183.393 70.2898 186.363 70.6198C187.573 70.7298 188.783 70.8398 189.773 70.8398C191.533 70.6198 194.063 71.0598 194.173 72.1598C194.393 73.8098 193.403 74.9098 193.293 76.2298C193.183 77.4398 193.513 78.6498 193.403 79.9698C193.293 81.1798 192.853 82.4998 192.743 83.1598C192.633 83.8198 192.193 84.6998 189.883 84.6998C188.893 84.8098 186.473 84.4798 185.263 84.2598C183.283 83.9298 181.413 84.4798 179.763 84.5898C178.223 84.5898 177.013 84.2598 175.803 84.2598C174.153 84.4798 174.153 84.3698 174.153 85.6898C174.153 87.1198 175.473 87.3398 177.123 87.4498C178.333 87.4498 180.313 86.7898 181.853 86.7898C185.153 86.7898 187.793 87.2298 187.903 87.3398C188.783 88.1098 189.333 90.8598 189.003 91.8498C188.453 93.1698 189.113 97.0198 189.443 98.7798C189.553 99.6598 188.783 100.87 187.573 100.98C184.493 101.09 178.993 100.54 177.013 100.87C176.463 100.98 176.023 100.98 176.023 102.08C176.023 102.52 176.133 103.18 176.683 103.18C178.333 103.18 180.643 103.29 182.843 102.85C184.713 102.52 186.583 102.41 188.013 102.41C189.993 102.41 191.423 102.52 191.643 102.63C193.073 103.18 193.293 107.58 193.293 108.9C193.293 110.77 194.833 114.62 194.833 114.62Z" fill="black"/>
<path d="M158.715 111.21C159.375 111.98 158.715 114.07 158.715 114.07C158.495 115.72 150.135 121.88 148.485 121.88C148.045 121.77 147.495 121.55 146.945 121C146.615 120.56 146.065 119.79 145.845 119.35C144.305 116.38 135.945 103.29 135.175 103.29C134.735 103.29 134.625 104.61 134.515 106.04C134.405 107.8 133.635 112.97 133.415 114.73C133.305 116.93 133.195 119.13 133.195 121.44C133.195 121.88 132.975 122.98 132.645 123.42C132.315 124.19 131.875 124.52 131.545 124.85C130.885 125.18 130.225 125.4 129.455 125.29C128.795 125.18 124.175 123.53 123.625 123.53C123.405 123.53 120.875 123.2 120.545 120.45C120.325 118.58 119.995 108.79 119.995 106.92C119.995 96.8003 119.005 86.6803 119.665 76.6703C119.775 75.6803 119.885 73.7003 119.885 73.7003C119.885 72.2703 123.075 68.7503 125.055 67.3203C126.815 66.1103 130.775 65.4503 131.215 65.3403C134.405 65.1203 140.345 65.3403 144.745 66.4403C151.565 67.7603 156.405 73.4803 158.055 80.0803C159.265 85.1403 158.055 90.4203 152.555 93.8303C151.895 94.2703 147.385 96.1403 146.395 96.4703C146.505 96.6903 150.465 100.98 153.325 104.83C154.315 106.04 157.175 109.34 158.715 111.21ZM138.255 86.9003C140.675 86.4603 141.885 83.4903 140.565 80.7403C139.905 79.2003 136.605 77.2203 135.505 77.2203C134.955 77.4403 135.395 78.6503 135.175 79.9703C134.955 82.0603 135.175 83.2703 134.845 84.5903C134.515 85.4703 134.295 86.4603 134.735 86.7903C135.395 87.1203 137.375 87.0103 138.255 86.9003Z" fill="black"/>
<path d="M110.639 68.5298C111.739 68.7498 115.699 68.7498 115.479 68.7498C115.479 68.7498 117.239 83.0498 116.909 83.4898C116.909 84.6998 113.389 85.3598 113.059 84.9198C112.289 84.9198 111.519 84.8098 110.749 84.6998C107.559 84.6998 103.709 84.2598 102.719 84.0398L101.619 83.7098C101.509 86.6798 100.849 88.9898 100.849 90.4198L101.619 106.7C101.729 108.68 102.169 120.01 101.509 121.88C101.069 123.42 94.6895 123.64 94.2495 123.42C93.4795 123.2 90.6195 124.85 90.6195 120.01C90.6195 116.38 90.5095 110.99 90.5095 110.33C90.3995 108.57 90.5095 106.59 90.6195 104.61C90.7295 102.63 90.8395 100.65 91.0595 98.8898C91.3895 96.0298 91.6095 93.1698 91.6095 90.1998C91.6095 87.2298 91.3895 84.3698 90.9495 81.5098C90.9495 81.2898 90.7295 80.8498 90.5095 80.2998H89.7395L84.0195 80.8498C83.3595 80.9598 82.6995 80.8498 82.2595 80.4098C81.8195 79.9698 81.5995 79.3098 81.8195 78.6498V78.4298L81.7095 71.7198C81.7095 71.6098 81.7095 70.5098 82.4795 70.2898C83.7995 69.8498 86.4395 70.1798 86.8795 70.1798C88.8595 70.0698 91.2795 69.7398 93.4795 69.4098L104.589 68.6398H108.549C108.989 68.6398 109.979 68.4198 110.639 68.5298Z" fill="black"/>
<path d="M78.3577 114.62C78.7977 115.83 78.2477 117.92 77.1477 118.03L72.9677 118.69C67.7977 120.12 59.9877 119.57 56.9077 119.57C56.1377 119.57 55.3677 119.24 54.4877 119.13C52.7277 118.91 46.6777 119.24 46.3477 118.25C46.0177 117.26 45.4677 111.65 46.1277 103.4C46.4577 99.3298 46.5677 95.0398 46.6777 92.5098C46.8977 85.5798 46.6777 79.6398 46.7877 78.4298C46.3477 77.9898 47.4477 76.1198 46.5677 73.6998C46.0177 72.1598 51.1877 71.2798 51.9577 71.2798C54.8177 71.1698 56.7977 70.5098 60.5377 70.3998C63.7277 70.2898 66.9177 70.2898 69.8877 70.6198C71.0977 70.7298 72.3077 70.8398 73.2977 70.8398C75.0577 70.6198 77.5877 71.0598 77.6977 72.1598C77.9177 73.8098 76.9277 74.9098 76.8177 76.2298C76.7077 77.4398 77.0377 78.6498 76.9277 79.9698C76.8177 81.1798 76.3777 82.4998 76.2677 83.1598C76.1577 83.8198 75.7177 84.6998 73.4077 84.6998C72.4177 84.8098 69.9977 84.4798 68.7877 84.2598C66.8077 83.9298 64.9377 84.4798 63.2877 84.5898C61.7477 84.5898 60.5377 84.2598 59.3277 84.2598C57.6777 84.4798 57.6777 84.3698 57.6777 85.6898C57.6777 87.1198 58.9977 87.3398 60.6477 87.4498C61.8577 87.4498 63.8377 86.7898 65.3777 86.7898C68.6777 86.7898 71.3177 87.2298 71.4277 87.3398C72.3077 88.1098 72.8577 90.8598 72.5277 91.8498C71.9777 93.1698 72.6377 97.0198 72.9677 98.7798C73.0777 99.6598 72.3077 100.87 71.0977 100.98C68.0177 101.09 62.5177 100.54 60.5377 100.87C59.9877 100.98 59.5477 100.98 59.5477 102.08C59.5477 102.52 59.6577 103.18 60.2077 103.18C61.8577 103.18 64.1677 103.29 66.3677 102.85C68.2377 102.52 70.1077 102.41 71.5377 102.41C73.5177 102.41 74.9477 102.52 75.1677 102.63C76.5977 103.18 76.8177 107.58 76.8177 108.9C76.8177 110.77 78.3577 114.62 78.3577 114.62Z" fill="black"/>
<path d="M42.2398 111.21C42.8998 111.98 42.2398 114.07 42.2398 114.07C42.0198 115.72 33.6598 121.88 32.0098 121.88C31.5698 121.77 31.0198 121.55 30.4698 121C30.1398 120.56 29.5898 119.79 29.3698 119.35C27.8298 116.38 19.4698 103.29 18.6998 103.29C18.2598 103.29 18.1498 104.61 18.0398 106.04C17.9298 107.8 17.1598 112.97 16.9398 114.73C16.8298 116.93 16.7198 119.13 16.7198 121.44C16.7198 121.88 16.4998 122.98 16.1698 123.42C15.8398 124.19 15.3998 124.52 15.0698 124.85C14.4098 125.18 13.7498 125.4 12.9798 125.29C12.3198 125.18 7.69977 123.53 7.14977 123.53C6.92977 123.53 4.39977 123.2 4.06977 120.45C3.84977 118.58 3.51977 108.79 3.51977 106.92C3.51977 96.8003 2.52977 86.6803 3.18977 76.6703C3.29977 75.6803 3.40977 73.7003 3.40977 73.7003C3.40977 72.2703 6.59977 68.7503 8.57977 67.3203C10.3398 66.1103 14.2998 65.4503 14.7398 65.3403C17.9298 65.1203 23.8698 65.3403 28.2698 66.4403C35.0898 67.7603 39.9298 73.4803 41.5798 80.0803C42.7898 85.1403 41.5798 90.4203 36.0798 93.8303C35.4198 94.2703 30.9098 96.1403 29.9198 96.4703C30.0298 96.6903 33.9898 100.98 36.8498 104.83C37.8398 106.04 40.6998 109.34 42.2398 111.21ZM21.7798 86.9003C24.1998 86.4603 25.4098 83.4903 24.0898 80.7403C23.4298 79.2003 20.1298 77.2203 19.0298 77.2203C18.4798 77.4403 18.9198 78.6503 18.6998 79.9703C18.4798 82.0603 18.6998 83.2703 18.3698 84.5903C18.0398 85.4703 17.8198 86.4603 18.2598 86.7903C18.9198 87.1203 20.8998 87.0103 21.7798 86.9003Z" fill="black"/>
<path d="M209.313 52.82H209.423C209.643 55.24 208.213 54.69 207.883 54.69C206.783 54.69 202.823 54.69 201.723 54.58C200.293 54.47 196.883 55.02 196.223 53.59C195.453 52.05 193.913 50.29 192.593 48.2C191.603 46.55 189.403 44.68 188.193 42.7C186.433 39.73 184.233 37.97 182.913 36.76C182.473 36.21 179.503 32.69 178.953 31.92L179.283 35.11C179.283 36.54 179.283 37.97 179.283 39.51C179.393 41.71 180.053 43.36 180.163 45.56C180.713 47.76 181.373 50.62 181.373 52.93C181.593 53.59 181.483 54.14 181.263 54.58C181.043 55.24 180.493 55.9 179.173 55.9C179.173 55.9 172.683 56.78 172.573 56.89C171.803 57.22 170.153 57.22 169.823 57.11C169.273 56.89 168.723 48.86 168.833 44.68C168.943 42.48 169.053 38.85 169.053 34.56C169.163 24.88 169.273 12.12 169.383 6.39996C169.383 4.63996 169.713 3.97996 171.473 3.53996C172.573 3.31996 173.673 3.20996 174.663 3.20996C176.423 3.20996 177.853 3.42996 178.843 3.53996C180.823 3.64996 181.043 4.52996 181.923 5.84996C183.353 8.04996 184.783 11.13 185.003 11.46C185.553 12.56 186.104 13.77 186.654 14.87C188.634 18.28 191.934 21.47 194.573 24.66C195.014 25.21 196.223 26.2 196.223 26.2L195.233 21.03L194.903 14.65C194.793 13.22 194.573 6.83996 195.233 4.96996C195.673 3.64996 196.994 4.63996 197.544 4.52996C197.984 4.41996 204.693 3.86996 205.133 5.29996C205.903 7.38996 205.683 9.80996 205.573 11.02C205.573 14.32 206.453 32.69 208.213 43.91C208.213 44.02 209.093 50.4 209.313 52.82Z" fill="black"/>
<path d="M165.208 50.6198C165.648 51.8298 165.098 53.9198 163.998 54.0298L159.818 54.6898C154.648 56.1198 146.838 55.5698 143.758 55.5698C142.988 55.5698 142.218 55.2398 141.338 55.1298C139.578 54.9098 133.528 55.2398 133.198 54.2498C132.868 53.2598 132.318 47.6498 132.978 39.3998C133.308 35.3298 133.418 31.0398 133.528 28.5098C133.748 21.5798 133.528 15.6398 133.638 14.4298C133.198 13.9898 134.298 12.1198 133.418 9.69977C132.868 8.15977 138.038 7.27977 138.808 7.27977C141.668 7.16977 143.648 6.50977 147.388 6.39977C150.578 6.28977 153.768 6.28977 156.738 6.61977C157.948 6.72977 159.158 6.83977 160.148 6.83977C161.908 6.61977 164.438 7.05977 164.548 8.15977C164.768 9.80977 163.778 10.9098 163.668 12.2298C163.558 13.4398 163.888 14.6498 163.778 15.9698C163.668 17.1798 163.228 18.4998 163.118 19.1598C163.008 19.8198 162.568 20.6998 160.258 20.6998C159.268 20.8098 156.848 20.4798 155.638 20.2598C153.658 19.9298 151.788 20.4798 150.138 20.5898C148.598 20.5898 147.388 20.2598 146.178 20.2598C144.528 20.4798 144.528 20.3698 144.528 21.6898C144.528 23.1198 145.848 23.3398 147.498 23.4498C148.708 23.4498 150.688 22.7898 152.228 22.7898C155.528 22.7898 158.168 23.2298 158.278 23.3398C159.158 24.1098 159.708 26.8598 159.378 27.8498C158.828 29.1698 159.488 33.0198 159.818 34.7798C159.928 35.6598 159.158 36.8698 157.948 36.9798C154.868 37.0898 149.368 36.5398 147.388 36.8698C146.838 36.9798 146.398 36.9798 146.398 38.0798C146.398 38.5198 146.508 39.1798 147.058 39.1798C148.708 39.1798 151.018 39.2898 153.218 38.8498C155.088 38.5198 156.958 38.4098 158.388 38.4098C160.368 38.4098 161.798 38.5198 162.018 38.6298C163.448 39.1798 163.668 43.5798 163.668 44.8998C163.668 46.7698 165.208 50.6198 165.208 50.6198Z" fill="black"/>
<path d="M119.678 26.3103C132.108 32.0303 129.688 40.9403 129.688 42.8103C129.688 51.5003 121.878 58.3203 113.628 59.2003C111.758 59.3103 109.888 59.2003 108.018 59.4203C106.698 59.6403 105.268 59.7503 103.838 59.7503C102.738 59.7503 101.638 59.6403 100.648 59.4203C99.1082 59.0903 91.9581 56.1203 90.7481 54.9103C90.4181 54.6903 89.8681 54.3603 90.7481 52.2703C92.0681 48.9703 94.2682 42.1503 95.6982 39.5103C96.1382 38.7403 96.5782 38.3003 96.7982 38.4103C97.1282 38.6303 100.208 40.1703 101.968 40.8303C104.938 42.0403 105.048 43.1403 107.028 43.4703C109.888 44.0203 113.408 42.8103 114.288 40.8303C116.598 35.8803 108.788 33.6803 104.168 29.9403C98.3381 24.9903 93.9382 24.0003 94.2682 15.7503C94.5982 10.1403 100.318 5.08031 101.528 4.20031C102.738 3.43031 104.278 2.11031 105.928 1.67031C108.348 0.900308 110.988 0.570313 113.628 0.570313C116.928 0.570313 120.118 1.12031 122.538 2.55031L126.168 4.42031C126.168 4.42031 127.708 4.75031 126.388 6.73031C125.618 7.94031 124.628 10.1403 123.968 12.1203C123.198 14.7603 121.548 16.6303 121.108 16.7403C120.448 16.7403 118.798 15.6403 116.818 15.7503C116.158 15.7503 115.388 15.7503 114.728 15.7503C114.178 15.8603 111.428 15.7503 110.438 18.8303C109.228 22.5703 113.518 23.5603 113.848 23.7803C115.388 24.9903 117.918 25.2103 119.678 26.3103Z" fill="black"/>
<path d="M88.7564 52.82H88.8664C89.0864 55.24 87.6564 54.69 87.3264 54.69C86.2264 54.69 82.2664 54.69 81.1664 54.58C79.7364 54.47 76.3264 55.02 75.6664 53.59C74.8964 52.05 73.3564 50.29 72.0364 48.2C71.0464 46.55 68.8464 44.68 67.6364 42.7C65.8764 39.73 63.6764 37.97 62.3564 36.76C61.9164 36.21 58.9464 32.69 58.3964 31.92L58.7264 35.11C58.7264 36.54 58.7264 37.97 58.7264 39.51C58.8364 41.71 59.4964 43.36 59.6064 45.56C60.1564 47.76 60.8164 50.62 60.8164 52.93C61.0364 53.59 60.9264 54.14 60.7064 54.58C60.4864 55.24 59.9364 55.9 58.6164 55.9C58.6164 55.9 52.1264 56.78 52.0164 56.89C51.2464 57.22 49.5964 57.22 49.2664 57.11C48.7164 56.89 48.1664 48.86 48.2764 44.68C48.3864 42.48 48.4964 38.85 48.4964 34.56C48.6064 24.88 48.7164 12.12 48.8264 6.39996C48.8264 4.63996 49.1564 3.97996 50.9164 3.53996C52.0164 3.31996 53.1164 3.20996 54.1064 3.20996C55.8664 3.20996 57.2964 3.42996 58.2864 3.53996C60.2664 3.64996 60.4864 4.52996 61.3664 5.84996C62.7964 8.04996 64.2264 11.13 64.4464 11.46C64.9964 12.56 65.5464 13.77 66.0964 14.87C68.0764 18.28 71.3764 21.47 74.0164 24.66C74.4564 25.21 75.6664 26.2 75.6664 26.2L74.6764 21.03L74.3464 14.65C74.2364 13.22 74.0164 6.83996 74.6764 4.96996C75.1164 3.64996 76.4364 4.63996 76.9864 4.52996C77.4264 4.41996 84.1364 3.86996 84.5764 5.29996C85.3464 7.38996 85.1264 9.80996 85.0164 11.02C85.0164 14.32 85.8964 32.69 87.6564 43.91C87.6564 44.02 88.5364 50.4 88.7564 52.82Z" fill="black"/>
<path d="M42.35 13.9901C43.45 17.9501 44.66 25.1001 44.44 28.8401C44.33 30.9301 44.55 40.1701 42.68 44.0201C39.49 50.9501 33.99 57.1101 25.85 57.1101C21.45 57.1101 16.83 55.5701 16.17 55.3501C15.07 55.1301 14.08 54.5801 13.09 53.8101C11.44 52.4901 9.89996 50.6201 8.68996 49.4101C3.62996 43.9101 1.20996 37.7501 1.20996 31.5901C1.20996 25.5401 3.51996 19.3801 8.02996 13.6601C9.01996 12.3401 9.89996 10.9101 11.11 9.70008C11.66 9.04008 12.43 8.38008 13.09 7.94008L15.84 5.41008C18.48 3.43008 21.78 2.33008 25.08 2.33008C25.96 2.33008 29.81 2.33008 30.91 2.44008C33.77 2.66008 35.75 3.65008 37.29 5.19008C38.83 6.62008 41.36 10.8001 42.35 13.9901ZM27.28 26.5301C27.39 25.2101 27.5 23.4501 27.61 21.8001C27.72 19.8201 27.06 19.1601 26.29 19.1601C25.52 19.1601 24.64 19.8201 24.2 20.5901C23.21 22.4601 21.89 26.4201 22.55 28.5101C22.77 29.2801 23.21 30.0501 24.2 29.9401C24.97 29.8301 27.06 29.5001 27.28 26.5301Z" fill="black"/>
<path d="M218.182 161.053C218.402 161.273 220.235 167.726 219.942 169.266C219.722 170.44 216.788 170.293 216.495 170.366C214.368 170.586 199.482 169.633 199.408 168.826C199.408 168.826 199.408 165.013 199.482 164.206C199.555 163.693 199.848 163.106 200.508 162.74C201.022 162.373 201.975 162.153 203.002 161.933C203.808 161.786 204.908 161.566 205.568 161.42C205.495 160.173 205.275 158.413 205.128 157.166C204.835 153.866 206.008 148.22 205.642 143.966C205.568 143.673 205.495 143.233 205.422 142.866C205.348 142.72 203.882 143.16 203.808 143.013C203.588 142.866 202.782 142.206 202.562 141.913C202.195 141.253 202.195 140.666 202.488 140.153C202.782 139.566 204.615 136.706 205.642 135.02C206.082 134.36 206.815 133.92 207.475 133.846C209.015 133.773 211.655 133.7 211.875 133.846C212.242 133.993 212.608 134.36 212.755 134.873C212.828 135.02 212.462 138.173 212.608 141.986C212.682 143.306 213.122 149.246 213.195 152.986C213.268 157.68 212.755 160.906 212.755 161.053C213.048 161.053 214.662 160.76 215.982 160.76C217.155 160.686 218.182 160.98 218.182 161.053Z" fill="black"/>
<path d="M197.728 165.747C198.021 166.553 197.655 167.947 196.921 168.02L194.135 168.46C190.688 169.413 185.481 169.047 183.428 169.047C182.915 169.047 182.401 168.827 181.815 168.753C180.641 168.607 176.608 168.827 176.388 168.167C176.168 167.507 175.801 163.767 176.241 158.267C176.461 155.553 176.535 152.693 176.608 151.007C176.755 146.387 176.608 142.427 176.681 141.62C176.388 141.327 177.121 140.08 176.535 138.467C176.168 137.44 179.615 136.853 180.128 136.853C182.035 136.78 183.355 136.34 185.848 136.267C187.975 136.193 190.101 136.193 192.081 136.413C192.888 136.487 193.695 136.56 194.355 136.56C195.528 136.413 197.215 136.707 197.288 137.44C197.435 138.54 196.775 139.273 196.701 140.153C196.628 140.96 196.848 141.767 196.775 142.647C196.701 143.453 196.408 144.333 196.335 144.773C196.261 145.213 195.968 145.8 194.428 145.8C193.768 145.873 192.155 145.653 191.348 145.507C190.028 145.287 188.781 145.653 187.681 145.727C186.655 145.727 185.848 145.507 185.041 145.507C183.941 145.653 183.941 145.58 183.941 146.46C183.941 147.413 184.821 147.56 185.921 147.633C186.728 147.633 188.048 147.193 189.075 147.193C191.275 147.193 193.035 147.487 193.108 147.56C193.695 148.073 194.061 149.907 193.841 150.567C193.475 151.447 193.915 154.013 194.135 155.187C194.208 155.773 193.695 156.58 192.888 156.653C190.835 156.727 187.168 156.36 185.848 156.58C185.481 156.653 185.188 156.653 185.188 157.387C185.188 157.68 185.261 158.12 185.628 158.12C186.728 158.12 188.268 158.193 189.735 157.9C190.981 157.68 192.228 157.607 193.181 157.607C194.501 157.607 195.455 157.68 195.601 157.753C196.555 158.12 196.701 161.053 196.701 161.933C196.701 163.18 197.728 165.747 197.728 165.747Z" fill="black"/>
<path d="M173.689 147.78C174.203 149.466 174.276 152.913 173.91 154.746C173.396 157.24 172.149 158.046 171.196 159.953C169.583 163.62 161.443 168.826 157.776 169.266C156.53 169.486 155.649 170.513 154.403 170.806C153.889 170.88 152.79 171.173 152.056 171.173C151.616 171.173 151.25 171.026 151.25 170.66C151.396 169.413 152.056 165.013 152.13 163.326C152.13 162.813 152.35 154.013 152.716 151.886C153.156 149.026 152.863 145.36 152.863 144.626C152.863 143.16 152.863 142.426 152.863 140.886C152.863 140.52 152.13 137.66 152.57 136.12C152.936 135.02 154.403 135.24 154.623 135.24C154.916 135.24 155.576 135.24 156.383 135.24C158.656 135.24 161.37 135.606 163.423 136.633C165.476 137.66 167.31 139.566 169.363 141.253C171.636 143.233 173.25 146.386 173.689 147.78ZM161.59 150.126C161.883 149.246 161.663 148.293 161.296 147.413C161.003 146.753 158.51 144.406 157.63 144.406C157.41 144.406 157.189 144.626 157.263 145.213C157.409 146.826 157.483 150.273 157.63 151.96C157.703 153.06 158.29 153.206 158.95 152.84C159.17 152.693 159.389 152.326 159.609 152.18C160.049 151.886 160.636 151.593 161.076 151.08C161.296 150.786 161.443 150.493 161.59 150.126Z" fill="black"/>
<path d="M147.889 141.327C148.622 143.967 149.429 148.734 149.282 151.227C149.209 152.62 149.355 158.78 148.109 161.347C145.982 165.967 142.315 170.074 136.889 170.074C133.955 170.074 130.875 169.047 130.435 168.9C129.702 168.754 129.042 168.387 128.382 167.874C127.282 166.994 126.255 165.747 125.449 164.94C122.075 161.274 120.462 157.167 120.462 153.06C120.462 149.027 122.002 144.92 125.009 141.107C125.669 140.227 126.255 139.274 127.062 138.467C127.429 138.027 127.942 137.587 128.382 137.294L130.215 135.607C131.975 134.287 134.175 133.554 136.375 133.554C136.962 133.554 139.529 133.554 140.262 133.627C142.169 133.774 143.489 134.434 144.515 135.46C145.542 136.414 147.229 139.2 147.889 141.327ZM137.842 149.687C137.915 148.807 137.989 147.634 138.062 146.534C138.135 145.214 137.695 144.774 137.182 144.774C136.669 144.774 136.082 145.214 135.789 145.727C135.129 146.974 134.249 149.614 134.689 151.007C134.835 151.52 135.129 152.034 135.789 151.96C136.302 151.887 137.695 151.667 137.842 149.687Z" fill="black"/>
<path d="M112.624 149.54C120.911 153.353 119.297 159.293 119.297 160.54C119.297 166.333 114.091 170.88 108.591 171.467C107.344 171.54 106.097 171.467 104.851 171.613C103.971 171.76 103.017 171.833 102.064 171.833C101.331 171.833 100.597 171.76 99.9373 171.613C98.9106 171.393 94.144 169.413 93.3373 168.607C93.1173 168.46 92.7506 168.24 93.3373 166.847C94.2173 164.647 95.684 160.1 96.6373 158.34C96.9306 157.827 97.224 157.533 97.3706 157.607C97.5906 157.753 99.644 158.78 100.817 159.22C102.797 160.027 102.871 160.76 104.191 160.98C106.097 161.347 108.444 160.54 109.031 159.22C110.571 155.92 105.364 154.453 102.284 151.96C98.3973 148.66 95.464 148 95.684 142.5C95.904 138.76 99.7173 135.387 100.524 134.8C101.331 134.287 102.357 133.407 103.457 133.113C105.071 132.6 106.831 132.38 108.591 132.38C110.791 132.38 112.917 132.747 114.531 133.7L116.951 134.947C116.951 134.947 117.977 135.167 117.097 136.487C116.584 137.293 115.924 138.76 115.484 140.08C114.971 141.84 113.871 143.087 113.577 143.16C113.137 143.16 112.037 142.427 110.717 142.5C110.277 142.5 109.764 142.5 109.324 142.5C108.957 142.573 107.124 142.5 106.464 144.553C105.657 147.047 108.517 147.707 108.737 147.853C109.764 148.66 111.451 148.807 112.624 149.54Z" fill="black"/>
<path d="M92.0299 163.18C92.0299 163.18 91.8832 168.314 91.9566 168.974C92.0299 169.487 91.8832 169.927 91.7366 170.22C91.5899 170.734 91.0032 171.1 90.4899 171.247C89.9766 171.394 89.8299 171.32 88.6566 171.394C87.1166 171.394 85.4299 171.32 84.6966 171.247C82.5699 170.514 80.5166 170.147 78.2432 170C76.6299 169.854 75.0899 169.707 75.0899 169.707C74.7966 169.707 74.5032 169.707 74.2099 169.56C73.9166 169.487 73.7699 169.12 73.4032 168.974C72.7432 168.754 73.2566 166.26 73.1099 165.234C73.0366 164.207 72.7432 162.08 72.7432 162.08C72.6699 161.86 72.3766 161.274 72.3032 160.98C72.3032 160.614 72.3032 160.247 72.5232 159.88C72.6699 159.514 73.0366 159.147 73.6966 158.927C74.0632 158.854 75.2366 158.487 76.3366 158.487C77.4366 158.487 78.3899 158.707 78.7566 158.854C79.6366 159.44 79.7832 157.754 79.7099 157.534C79.7099 156.36 79.2699 155.187 79.4166 154.16C79.6366 151.3 79.3432 149.174 78.9766 146.534C78.9766 146.314 78.3899 145.727 78.3899 145.507L76.0432 145.14C75.8232 145.067 74.6499 144.92 74.2099 144.774C73.4032 144.407 73.3299 143.747 73.4766 143.38C73.5499 143.087 73.3299 141.914 73.3299 140.447C73.3299 140.007 73.6966 135.094 74.0632 134.874C74.3566 134.654 77.9499 134.14 78.5366 134.067C79.4166 134.067 80.0032 134.434 81.4699 134.36C82.2766 134.36 83.1566 134.287 83.9632 134.287C84.5499 134.287 85.1366 133.774 85.6499 133.774C87.3366 133.7 88.6566 133.7 88.6566 133.7C90.3432 133.774 91.0766 134.507 91.5166 135.387C91.8099 136.12 91.6632 137.367 91.7366 138.687C91.7366 139.567 91.8832 140.887 91.8832 142.06C91.8099 142.794 91.7366 143.454 91.5166 143.894C91.4432 144.04 91.2232 144.554 90.5632 144.774C90.4166 144.847 89.9766 144.92 89.4632 144.994C88.3632 145.14 86.6766 144.847 84.8432 145.067C84.7699 145.14 84.7699 145.214 84.7699 145.287L84.8432 146.534C84.8432 146.534 84.6232 148.22 84.4766 150.42C84.4766 151.154 84.4766 151.887 84.4766 152.694C84.4766 154.014 84.7699 155.7 84.8432 156.947C84.9899 159.074 84.9899 160.54 84.9899 160.907C85.2099 160.98 85.4299 161.127 85.7232 161.274C86.1632 161.494 86.8232 161.42 87.6299 161.494C88.0699 161.494 89.0966 161.274 90.0499 161.42C91.2966 161.64 92.0299 161.934 92.0299 163.18Z" fill="black"/>
<path d="M70.0094 138.393C70.8894 139.566 71.4027 141.473 71.4027 143.673C71.4027 146.606 70.4494 149.833 69.056 151.446C66.196 154.673 62.0894 157.826 57.616 157.826C57.5427 157.826 57.2494 157.973 56.8827 158.12C56.516 158.266 56.1494 159.146 56.296 159.953C56.4427 160.54 56.516 161.273 56.516 162.006C56.5894 165.233 56.4427 168.9 56.4427 169.193C56.4427 169.486 56.296 171.1 56.296 171.173C56.1494 171.54 55.4894 171.98 54.0227 172.126C51.8227 172.273 49.036 172.933 48.3027 173.08C47.8627 173.153 47.2027 172.786 46.9827 171.686C46.9094 171.1 46.7627 170.66 46.7627 169.633C46.7627 169.56 46.9094 167.286 47.1294 164.206C47.276 162.813 48.0827 161.126 48.2294 159.513C48.4494 156.873 48.4494 154.013 48.4494 151.593C48.4494 149.026 48.156 141.84 48.0827 139.493C48.0827 137.953 48.0827 135.093 50.136 134.8C50.2094 134.8 50.2094 134.8 50.2827 134.8C50.356 134.726 53.1427 134.213 56.076 134.213C58.716 134.213 64.7294 135.02 67.0027 135.753C68.2494 136.193 69.5694 137.806 70.0094 138.393ZM61.5027 143.893C62.456 143.013 61.796 141.62 61.5027 141.326C60.8427 140.52 59.5227 140.52 58.7894 140.593C58.1294 140.593 58.056 141.106 58.056 141.62C57.9827 142.353 58.056 142.5 58.1294 143.453C58.2027 144.113 58.3494 145.36 58.3494 146.093C58.7894 145.946 60.476 144.993 61.5027 143.893Z" fill="black"/>
<path d="M44.1463 165.747C44.4397 166.553 44.073 167.947 43.3397 168.02L40.553 168.46C37.1063 169.413 31.8996 169.047 29.8463 169.047C29.333 169.047 28.8196 168.827 28.233 168.753C27.0596 168.607 23.0263 168.827 22.8063 168.167C22.5863 167.507 22.2196 163.767 22.6596 158.267C22.8796 155.553 22.953 152.693 23.0263 151.007C23.173 146.387 23.0263 142.427 23.0996 141.62C22.8063 141.327 23.5396 140.08 22.953 138.467C22.5863 137.44 26.033 136.853 26.5463 136.853C28.453 136.78 29.773 136.34 32.2663 136.267C34.393 136.193 36.5197 136.193 38.4997 136.413C39.3063 136.487 40.113 136.56 40.773 136.56C41.9463 136.413 43.633 136.707 43.7063 137.44C43.853 138.54 43.193 139.273 43.1196 140.153C43.0463 140.96 43.2663 141.767 43.193 142.647C43.1197 143.453 42.8263 144.333 42.753 144.773C42.6797 145.213 42.3863 145.8 40.8463 145.8C40.1863 145.873 38.573 145.653 37.7663 145.507C36.4463 145.287 35.1996 145.653 34.0996 145.727C33.073 145.727 32.2663 145.507 31.4596 145.507C30.3596 145.653 30.3596 145.58 30.3596 146.46C30.3596 147.413 31.2396 147.56 32.3396 147.633C33.1463 147.633 34.4663 147.193 35.493 147.193C37.693 147.193 39.453 147.487 39.5263 147.56C40.113 148.073 40.4796 149.907 40.2596 150.567C39.893 151.447 40.333 154.013 40.553 155.187C40.6263 155.773 40.113 156.58 39.3063 156.653C37.253 156.727 33.5863 156.36 32.2663 156.58C31.8996 156.653 31.6063 156.653 31.6063 157.387C31.6063 157.68 31.6796 158.12 32.0463 158.12C33.1463 158.12 34.6863 158.193 36.153 157.9C37.3996 157.68 38.6463 157.607 39.5996 157.607C40.9196 157.607 41.873 157.68 42.0196 157.753C42.973 158.12 43.1196 161.053 43.1196 161.933C43.1196 163.18 44.1463 165.747 44.1463 165.747Z" fill="black"/>
<path d="M19.2864 139.567C17.6731 139.42 13.1998 139.273 12.4664 139.273C13.5664 139.42 20.1664 143.967 19.7264 145.067C19.5064 145.433 14.8864 148.44 14.0064 149.393C13.7864 149.687 13.2731 150.2 13.2731 150.2C12.5398 151.227 10.3398 143.233 10.4864 143.087C9.23977 143.307 7.69977 149.833 6.96643 149.98C6.96643 149.98 1.75977 146.973 1.75977 146.24C1.75977 145.433 2.0531 144.627 3.00643 143.967C3.73977 142.94 5.05977 141.253 6.0131 140.667C5.20643 140.373 2.12643 140.447 1.90643 140.227C1.68643 140.007 2.0531 138.467 2.34643 136.78C2.56643 135.68 2.7131 134.213 3.07977 134.14C3.5931 134.14 8.6531 137.953 9.0931 138.1C9.3131 137.733 7.5531 132.233 7.40643 131.867C7.3331 131.647 7.5531 131.573 7.84643 131.573C8.50643 131.573 9.67977 131.867 10.8531 131.94C12.4664 132.087 14.0798 131.793 14.2998 131.94C14.5198 132.087 13.2731 134.8 13.2731 135.093C13.2731 135.313 12.1731 137.22 12.1731 137.44C13.1264 137.44 16.4998 133.993 17.4531 133.993C17.6731 133.993 18.9931 136.78 19.1398 137.147C19.5798 138.1 19.6531 139.347 19.2864 139.567Z" fill="black"/>
<path d="M242.93 11.3504C240.51 11.1304 233.8 10.9104 232.7 10.9104C234.35 11.1304 244.25 17.9504 243.59 19.6004C243.26 20.1504 236.33 24.6604 235.01 26.0904C234.68 26.5304 233.91 27.3004 233.91 27.3004C232.81 28.8404 229.51 16.8504 229.73 16.6304C227.86 16.9604 225.55 26.7504 224.45 26.9704C224.45 26.9704 216.64 22.4604 216.64 21.3604C216.64 20.1504 217.08 18.9404 218.51 17.9504C219.61 16.4104 221.59 13.8804 223.02 13.0004C221.81 12.5604 217.19 12.6704 216.86 12.3404C216.53 12.0104 217.08 9.70036 217.52 7.17036C217.85 5.52035 218.07 3.32035 218.62 3.21035C219.39 3.21035 226.98 8.93036 227.64 9.15035C227.97 8.60035 225.33 0.350352 225.11 -0.199648C225 -0.529643 225.33 -0.639648 225.77 -0.639648C226.76 -0.639648 228.52 -0.199648 230.28 -0.089649C232.7 0.130355 235.12 -0.309646 235.45 -0.089649C235.78 0.130355 233.91 4.20036 233.91 4.64036C233.91 4.97036 232.26 7.83035 232.26 8.16035C233.69 8.16035 238.75 2.99035 240.18 2.99035C240.51 2.99035 242.49 7.17036 242.71 7.72036C243.37 9.15035 243.48 11.0204 242.93 11.3504Z" fill="black"/>
</g>
<defs>
<clipPath id="clip0_22_55">
<rect width="267" height="170" fill="white"/>
</clipPath>
</defs>
</svg>
