<svg width="181" height="209" viewBox="0 0 181 209" fill="none" xmlns="http://www.w3.org/2000/svg">
<g clip-path="url(#clip0_5_916)">
<path d="M41.84 19.08C36.57 20.7 31.39 17.58 26.8 15.35C22.21 13.12 16.48 10.69 11.13 12.65C5.02003 14.9 1.57003 21.1 0.550033 27.25C-0.0699667 31 -0.0399668 34.8 0.0400332 38.59C0.110033 41.87 0.260033 45.3 1.40003 48.41C2.44003 51.25 4.25003 53.67 6.84003 55.27C9.43003 56.87 12.36 57.47 15.3 57.73C21.03 58.22 26.8 56.89 32.5 57.91C35.01 58.36 37.62 59.18 39.52 60.97C41.84 63.15 42.31 66.18 42.11 69.24C41.89 72.58 41.06 75.91 41.36 79.28C41.67 82.84 43.64 85.94 44.04 89.46C44.77 95.92 40.52 101.97 35.69 105.8C30.17 110.18 23.47 112.7 17.41 116.2C12.14 119.25 6.70003 123.7 5.68003 130.06C4.66003 136.42 8.26003 142.21 9.97003 148.18C10.89 151.39 10.96 154.5 9.99003 157.71C9.02003 160.92 7.45003 163.7 6.06003 166.64C4.67003 169.58 3.48003 172.58 2.99003 175.8C2.50003 179.02 2.57003 181.96 3.07003 185.03C4.05003 190.94 6.93003 196.61 11.25 200.77C15.68 205.03 21.5 207.54 27.57 208.25C33.64 208.96 39.84 207.68 45.12 204.58C50.4 201.48 54.85 196.88 60.16 193.65C62.64 192.14 65.35 190.97 68.25 190.59C71.67 190.14 75.15 190.62 78.56 190.96C81.97 191.3 85.28 191.54 88.6 190.86C91.92 190.18 94.32 188.32 96.96 186.33C99.86 184.14 102.88 183.47 106.42 184.37C109.96 185.27 113.12 187.08 116.32 188.71C122.89 192.07 129.97 194.4 137.29 195.39C142.93 196.16 148.93 195.95 154.22 193.66C159.51 191.37 163.17 186.85 164.25 181.21C166.27 170.6 159.89 157.61 168.13 148.72C171.57 145 176.21 142.26 178.88 137.86C181.55 133.46 180.62 128.12 176.77 124.8C172.92 121.48 167.87 120.12 163.69 117.32C158.85 114.09 157.04 108.53 156.55 102.97C156.01 96.74 156.72 90.47 156.76 84.23C156.8 77.99 156.48 71.55 155.33 65.31C154.18 59.07 152.29 53.42 149.09 48.23C147.46 45.59 145.51 43.16 143.31 40.98C141.24 38.94 139.02 37.04 137.08 34.87C135.27 32.85 133.6 30.4 133.48 27.59C133.36 24.78 134.67 22.23 135.97 19.83C138.41 15.31 141.5 9.83998 138.17 4.89998C135.24 0.529979 129.39 -0.190021 124.56 0.0399787C121.37 0.189979 118.2 0.789979 115.06 1.29998C111.28 1.91998 107.51 2.60998 103.8 3.53998C100.09 4.46998 96.79 5.52998 93.43 6.95998C90.07 8.38998 86.73 10.34 83.08 11.21C79.43 12.08 75.26 11.86 71.36 11.76C67.78 11.67 64.25 11.82 60.72 12.4C53.89 13.52 47.32 16.17 41.58 20.02C39.92 21.14 41.48 23.85 43.16 22.72C49.05 18.76 55.8 16.14 62.85 15.22C69.9 14.3 77.67 16.03 84.8 13.99C88.23 13.01 91.34 11.23 94.6 9.82998C97.86 8.42998 101.52 7.30998 105.08 6.42998C108.64 5.54998 112.27 4.89998 115.9 4.29998C118.88 3.80998 121.87 3.24998 124.9 3.13998C129.11 2.98998 135.2 3.53998 136.38 8.50998C136.95 10.93 135.83 13.39 134.74 15.49C133.48 17.94 132.01 20.29 131.11 22.9C130.21 25.51 130.08 28.3 131 30.9C131.92 33.5 133.69 35.8 135.61 37.82C137.53 39.84 139.83 41.81 141.85 43.89C143.87 45.97 145.68 48.43 147.14 51.02C153.15 61.68 153.84 74.54 153.6 86.5C153.38 97.24 151.08 111.45 160.81 119.01C164.76 122.08 169.72 123.41 173.77 126.32C175.48 127.55 176.86 129.18 177.24 131.3C177.62 133.42 176.83 135.44 175.56 137.15C172.52 141.25 167.87 143.86 164.71 147.86C161.18 152.32 160.51 157.83 160.78 163.35C161.05 168.87 162.27 174.63 161.27 180.15C160.27 185.67 156.7 189.59 151.45 191.33C145.93 193.16 139.93 192.79 134.3 191.66C130.71 190.94 127.18 189.91 123.77 188.58C120.36 187.25 117.28 185.55 114.05 183.96C111.01 182.47 107.84 181.11 104.44 180.79C101.04 180.47 98.06 181.55 95.4 183.55C92.74 185.55 90.42 187.39 87.02 187.91C83.83 188.39 80.52 187.96 77.34 187.64C74.16 187.32 70.75 187.02 67.46 187.51C64.54 187.94 61.78 189.05 59.23 190.52C54.06 193.51 49.83 197.83 44.83 201.05C39.76 204.31 33.98 205.76 27.97 205.12C21.96 204.48 16.47 201.8 12.47 197.47C8.47003 193.14 6.19003 187.45 5.85003 181.66C5.68003 178.74 5.99003 175.83 6.84003 173.03C7.81003 169.85 9.44003 166.93 10.85 163.94C12.26 160.95 13.48 157.91 13.82 154.61C14.14 151.5 13.44 148.4 12.43 145.47C10.55 140.01 7.01003 133.91 9.51003 128.06C12.01 122.21 18.28 119.14 23.53 116.45C29.51 113.38 35.85 110.48 40.6 105.57C44.91 101.11 48.01 94.96 47.11 88.63C46.63 85.26 44.71 82.25 44.5 78.84C44.29 75.43 45.15 72.16 45.31 68.8C45.45 65.75 44.91 62.66 43.04 60.17C41.47 58.08 39.28 56.7 36.86 55.79C31.59 53.82 26.01 54.48 20.54 54.66C15.07 54.84 8.37003 54.53 5.29003 49.27C3.69003 46.54 3.39003 43.25 3.27003 40.16C3.13003 36.61 3.05003 32.99 3.43003 29.45C4.08003 23.56 7.01003 16.66 13.42 15.24C18.52 14.11 23.64 17.25 28.04 19.38C32.44 21.51 37.62 23.65 42.73 22.07C44.65 21.48 43.83 18.46 41.9 19.05L41.84 19.08Z" fill="#FF7100"/>
</g>
<defs>
<clipPath id="clip0_5_916">
<rect width="180.38" height="208.43" fill="white"/>
</clipPath>
</defs>
</svg>
