<svg width="142" height="148" viewBox="0 0 142 148" fill="none" xmlns="http://www.w3.org/2000/svg">
<path d="M137.58 62.8565C124.915 61.7031 89.8009 60.5498 84.0444 60.5498C92.6791 61.7031 144.487 97.4564 141.033 106.106C139.307 108.99 103.041 132.633 96.133 140.13C94.4061 142.436 90.3765 146.473 90.3765 146.473C84.6201 154.546 67.3507 91.6897 68.502 90.5364C58.716 92.2664 46.6274 143.59 40.8709 144.743C40.8709 144.743 0 121.1 0 115.333C0 108.99 2.30259 102.646 9.78599 97.4564C15.5425 89.3831 25.9041 76.1198 33.3875 71.5065C27.0554 69.1998 2.87823 69.7765 1.15129 68.0465C-0.575646 66.3165 2.30259 54.2065 4.60517 40.9432C6.33211 32.2932 7.48341 20.7599 10.3616 20.1833C14.3912 20.1833 54.1108 50.1699 57.5647 51.3232C59.2916 48.4399 45.4761 5.18998 44.3248 2.30666C43.7491 0.576689 45.4761 0 47.7787 0C52.9595 0 62.1698 2.30667 71.3802 2.88332C84.0444 4.03667 96.7086 1.73001 98.4356 2.88332C100.163 4.03667 90.3765 25.3733 90.3765 27.6799C90.3765 29.4099 81.7418 44.4032 81.7418 46.1332C89.2252 46.1332 115.705 19.03 123.188 19.03C124.915 19.03 135.277 40.9432 136.428 43.8265C139.882 51.3232 140.458 61.1265 137.58 62.8565Z" fill="#181818"/>
</svg>
