<svg width="552" height="623" viewBox="0 0 552 623" fill="none" xmlns="http://www.w3.org/2000/svg">
<path d="M430.661 1.96301C421.294 8.3759 418.422 19.7657 418.308 30.5681C418.178 43.4917 422.616 56.497 420.054 69.388C419.401 72.6679 418.276 75.7846 416.562 78.6728C414.849 81.5611 412.825 84.1393 411.471 87.1744C408.795 93.163 410.117 100.327 406.886 106.038C405.597 108.322 403.426 110.525 400.587 110.297C397.748 110.068 395.17 107.572 392.967 105.842C389.263 102.937 383.568 100.327 379.113 103.329C373.875 106.854 378.101 113.152 375.376 117.721C373.19 121.393 368.963 123.677 365.7 126.255C362.077 129.111 358.911 132.652 358.34 137.417C357.671 143.095 360.837 148.252 363.121 153.196C364.362 155.872 365.406 158.695 365.406 161.681C365.406 165.124 364.247 168.453 363.448 171.766C362.044 177.51 361.93 183.204 365.912 187.986C369.143 191.869 374.609 192.995 378.542 189.389C381.968 186.24 382.115 181.197 384.938 177.689C386.945 175.192 390.405 175.421 393.244 174.703C395.447 174.148 397.438 173.055 398.906 171.292C401.615 168.029 402.317 163.395 401.256 159.364C400.098 154.942 396.752 151.809 392.249 151.058C389.556 150.618 386.489 150.961 383.927 149.9C381.202 148.774 380.892 146.082 381.675 143.552C382.54 140.746 384.351 138.233 386.26 136.062L384.694 136.715C390.829 137.139 395.757 142.051 396.72 148.023C396.916 149.231 398.384 149.835 399.445 149.574C403.394 148.594 406.168 145.706 408.55 142.573C410.769 139.652 412.711 135.948 415.926 133.974C420.821 130.971 426.532 135.508 430.742 137.874C436.829 141.3 442.915 144.744 449.002 148.17C455.904 152.07 462.807 155.97 469.725 159.854C470.672 160.392 471.602 160.131 472.402 159.511C478.145 155.056 476.66 147.044 478.798 140.892C480.936 134.741 486.06 131.004 491.526 128.393C504.205 122.372 518.646 123.628 531.912 119.794C539.402 117.623 546.223 113.838 550.792 107.376C551.494 106.364 550.939 104.944 549.993 104.341C536.694 95.8228 533.544 75.9152 543.025 63.4647C543.694 62.5835 543.221 60.8865 542.225 60.4296C537.64 58.3409 533.136 59.4016 528.698 61.3597C524.259 63.3178 520.147 65.6676 515.366 66.7935C505.837 69.029 495.491 67.6257 486.631 63.5626C477.77 59.4995 470.868 53.3803 465.124 46.0373C459.38 38.6943 455.823 30.6659 452.119 22.3765C448.414 14.0871 443.682 5.03072 435.148 0.298568C432.651 -1.08844 430.416 2.72991 432.913 4.11692C440.386 8.26163 444.384 16.0126 447.794 23.5188C451.531 31.7266 455.039 39.8855 460.457 47.1632C471.765 62.3551 489.144 73.288 508.627 72.1947C513.979 71.8846 519.185 70.6608 524.08 68.4742C528.665 66.4182 534.768 61.8819 539.99 64.2642L539.19 61.2291C528.208 75.654 532.614 98.4663 547.741 108.159L546.941 105.124C538.684 116.824 522.106 117.428 509.231 119.092C497.221 120.642 482.584 124.558 476.187 135.916C474.36 139.146 473.642 142.622 473.169 146.261C472.695 149.9 472.353 153.947 469.252 156.378L471.928 156.035C459.282 148.905 446.652 141.774 434.006 134.643C428.915 131.771 423.073 127.365 416.872 128.801C412.842 129.747 410.051 133.027 407.702 136.193C405.156 139.62 402.708 144.189 398.254 145.282L400.979 146.832C400.065 141.121 396.051 136.144 390.796 133.778C388.496 132.75 384.71 131.265 382.735 133.37C380.761 135.475 378.999 138.249 377.889 141.007C375.702 146.457 377.204 152.478 383.258 154.338C387.712 155.709 393.946 153.914 396.41 158.956C397.976 162.171 397.601 167.001 394.615 169.318C392.298 171.113 388.871 170.721 386.195 171.635C383.666 172.5 381.756 174.197 380.402 176.482C378.623 179.5 377.595 186.843 373.222 187.219C370.775 187.431 368.898 184.983 367.935 183.041C366.532 180.218 366.744 177.314 367.397 174.311C368.816 167.752 370.987 161.73 368.669 155.073C366.826 149.786 362.599 144.548 362.681 138.771C362.746 133.925 366.924 130.775 370.464 128.148C374.005 125.521 378.052 122.812 379.896 118.586C381.022 116.024 380.859 113.577 380.63 110.851C380.386 107.816 381.495 106.087 384.677 106.527C390.552 107.343 393.701 113.772 399.722 114.605C405.743 115.437 410.312 110.378 412.14 105.075C413.266 101.828 413.38 98.3194 413.886 94.9416C414.441 91.3354 415.665 88.284 417.623 85.2163C419.401 82.4259 421.213 79.7498 422.486 76.682C423.758 73.6143 424.493 70.2855 424.884 66.9403C425.7 59.989 424.868 52.956 424.003 46.0373C422.6 34.7617 420.968 21.7728 427.332 11.5905C428.768 9.27336 430.661 7.2989 432.913 5.76503C435.164 4.23116 433.043 0.33122 430.677 1.94668L430.661 1.96301Z" fill="#4B4B4C"/>
<path d="M404.911 191.657C401.958 195.1 398.123 197.189 393.636 197.842L396.361 199.392C394.386 194.35 395.169 188.59 398.792 184.478L396.116 184.82C401.615 187.97 407.914 189.406 414.229 188.818L412.091 187.186C416.17 202.77 413.739 219.316 418.961 234.704C421.425 241.965 425.015 248.819 427.12 256.21C429.225 263.602 429.29 271.027 427.283 278.288C425.276 285.55 420.968 291.016 417.427 297.348C415.795 300.285 414.375 303.434 413.804 306.763C413.396 309.162 413.951 313.829 411.226 314.938C409.774 315.526 408.093 315.411 406.592 315.787C405.091 316.162 403.655 316.815 402.398 317.663C399.804 319.426 397.846 321.971 396.883 324.974C395.708 328.612 395.953 332.692 395.838 336.478C395.708 340.753 395.577 345.028 395.463 349.287C395.316 354.101 395.186 358.898 395.039 363.712C394.908 368.118 395.039 372.638 392.901 376.636C389.67 382.624 383.176 389.853 388.251 396.804C389.915 399.089 393.75 396.87 392.069 394.569C387.826 388.743 395.724 381.71 397.797 376.554C399.184 373.127 399.298 369.358 399.396 365.719C399.526 361.444 399.657 357.169 399.771 352.91C399.885 348.651 400.032 344.359 400.146 340.1C400.261 336.184 400.032 332.072 400.669 328.188C401.207 324.892 403.035 322.053 406.135 320.633C409.235 319.213 412.646 320.046 415.175 317.647C417.345 315.607 417.623 312.507 417.884 309.717C418.21 306.29 419.32 303.173 420.952 300.154C424.28 293.986 428.556 288.52 430.84 281.813C433.125 275.106 433.761 267.209 432.521 259.915C431.281 252.621 427.919 245.571 425.129 238.587C421.784 230.216 420.234 221.78 419.597 212.822C418.961 203.863 418.667 194.774 416.383 186.028C416.154 185.163 415.191 184.314 414.245 184.396C408.648 184.918 403.23 183.792 398.351 181.002C397.552 180.545 396.312 180.61 395.675 181.345C391.074 186.583 389.54 194.024 392.118 200.567C392.591 201.791 393.538 202.297 394.843 202.117C399.983 201.367 404.699 198.723 408.077 194.79C409.921 192.637 406.804 189.487 404.944 191.657H404.911Z" fill="#4B4B4C"/>
<path d="M404.65 194.071C406.216 198.053 405.629 202.459 403.181 205.967C402.006 207.648 400.358 209.149 398.449 209.932C396.279 210.83 394.565 209.067 393.342 207.419C390.584 203.715 389.67 199.032 385.656 196.258C381.332 193.272 377.236 195.687 374.266 199.228C361.13 214.844 365.601 237.265 364.606 255.997C363.333 280.066 355.125 303.221 345.302 325.022C344.356 327.143 343.491 329.721 341.484 331.075C339.477 332.43 336.621 332.593 334.288 333.295C329.49 334.731 326.863 338.239 324.611 342.514C322.49 346.545 320.173 350.004 316.664 352.974C313.385 355.748 309.615 357.918 305.862 359.991C298.144 364.249 290.115 368.215 284.192 374.921C283.066 376.21 281.434 378.544 279.427 377.989C277.975 377.597 277.175 375.819 276.8 374.513C275.511 369.961 278.35 366.485 280.863 362.993C283.376 359.501 287.146 354.018 285.073 349.4C283.229 345.256 277.942 345.011 274.124 345.974C265.28 348.209 259.764 356.401 256.664 364.445C253.09 373.73 252.976 383.912 249.696 393.295C248.848 395.743 247.738 398.093 246.335 400.263C244.834 402.564 242.875 404.473 241.195 406.643C237.899 410.935 237.572 416.548 234.325 420.888C231.502 424.642 227.015 427.171 222.233 426.078C220.259 425.621 218.546 424.609 217.322 422.977C215.706 420.839 214.58 418.767 211.953 417.723C207.384 415.928 202.358 418.098 198.116 419.811C193.057 421.884 187.77 423.255 182.385 424.234C171.779 426.159 160.96 426.616 150.386 428.737C145.099 429.798 139.91 431.299 134.982 433.502C130.054 435.705 125.306 438.903 120.802 442.118C116.298 445.333 111.827 448.694 106.948 451.337C102.526 453.736 97.7452 455.254 93.062 457.065C88.6725 458.762 84.332 460.72 80.7747 463.869C77.0216 467.182 74.6882 471.751 73.6928 476.63C72.6974 481.509 72.73 486.633 72.8932 491.659C72.9911 494.498 77.4132 494.514 77.3153 491.659C77.1521 486.421 76.989 481.019 78.4086 475.928C79.8283 470.837 82.8634 467.231 87.2202 464.636C91.5771 462.042 96.0318 460.704 100.552 459.007C105.496 457.147 110.13 454.846 114.536 451.941C123.854 445.806 132.225 438.577 143.043 435.15C153.862 431.723 164.648 431.152 175.532 429.716C180.933 428.998 186.318 428.15 191.589 426.698C196.859 425.245 201.298 422.602 206.389 421.655C208.494 421.264 210.615 421.378 212.116 423.108C213.83 425.082 214.793 427.187 217.077 428.656C220.781 431.022 225.807 431.332 229.854 429.765C234.325 428.036 237.784 424.413 239.955 420.203C241.129 417.919 241.75 415.487 242.631 413.089C243.659 410.315 245.584 408.291 247.461 406.088C254.428 397.88 255.979 387.388 257.92 377.157C259.568 368.459 262.245 358.571 269.686 352.958C271.366 351.685 273.275 350.738 275.331 350.216C276.914 349.825 279.688 349.351 280.879 350.853C282.25 352.599 280.08 356.188 279.134 357.706C277.844 359.795 276.278 361.72 274.924 363.776C272.525 367.431 271.317 371.348 272.557 375.688C273.52 379.099 276.164 382.542 280.047 382.493C284.779 382.427 287.325 377.712 290.458 374.889C293.771 371.919 297.605 369.618 301.473 367.464C309.077 363.205 317.415 359.419 323.273 352.762C326.292 349.335 327.858 345.223 330.355 341.47C331.644 339.544 333.26 338.255 335.495 337.586C337.731 336.917 340.064 336.623 342.234 335.693C347.293 333.523 348.957 327.828 350.997 323.161C353.396 317.679 355.664 312.163 357.736 306.55C361.914 295.291 365.324 283.705 367.298 271.842C369.126 260.844 369.257 249.911 369.191 238.798C369.126 229.155 369.11 218.956 372.912 209.9C373.744 207.925 374.772 206.032 375.996 204.286C377.122 202.655 379.194 199.342 381.413 199.293C383.241 199.244 384.726 201.235 385.623 202.573C387.027 204.678 387.794 207.093 389.213 209.182C391.71 212.902 395.626 215.986 400.228 213.979C404.193 212.249 407.163 208.872 408.762 204.89C410.361 200.909 410.459 196.748 408.941 192.913C407.913 190.286 403.622 191.428 404.666 194.088L404.65 194.071Z" fill="#4B4B4C"/>
<path d="M75.3901 491.072C62.0748 496.391 49.8038 504.175 39.5236 514.194C35.1831 518.42 31.1363 524.768 35.95 530.234C37.6144 532.127 39.8989 533.269 41.8081 534.868C44.4679 537.088 44.0436 539.454 42.5914 542.375C41.2207 545.116 39.9479 547.596 40.4374 550.729C40.7964 553.014 42.0202 555.445 44.3047 556.31C46.8013 557.256 49.4611 556 50.7339 553.732C52.3004 550.909 52.0067 547.286 52.1046 544.186C52.2515 539.976 52.3983 535.782 52.5452 531.572C52.5941 530.185 52.4473 524.915 54.5849 524.572C55.515 524.425 56.6899 526.318 57.0652 526.938C57.8648 528.26 58.3706 529.761 58.6154 531.278C59.1213 534.363 58.697 537.577 57.8811 540.563C55.6782 548.624 51.2235 555.837 51.5824 564.453C51.9414 572.954 55.7272 580.819 59.415 588.309C60.035 589.566 61.9769 589.745 62.8907 588.75C64.4082 587.118 65.1915 585.176 65.9584 583.104C66.399 581.913 67.8349 578.225 69.7441 579.106C70.5763 579.497 70.8048 581.276 70.9843 582.043C71.3269 583.593 71.5391 585.16 71.6043 586.743C71.7349 589.615 71.4085 592.437 70.6906 595.228C70.4947 595.978 70.6906 596.843 71.2617 597.382C74.8026 600.694 80.5302 600.678 84.169 597.48C86.0945 595.783 86.8615 593.433 87.2041 590.969C87.5958 588.162 87.3836 585.356 90.1413 583.822C92.5564 582.484 94.5145 580.95 95.2651 578.16C95.9668 575.532 95.4936 572.742 95.0856 570.099C94.645 567.259 94.3513 564.55 95.1183 561.728C95.9178 558.725 97.517 556 99.214 553.422C102.461 548.494 106.361 544.072 108.45 538.475C110.163 533.873 110.881 528.423 108.874 523.805C106.688 518.763 101.972 517.669 97.7944 514.846C93.617 512.024 98.4797 508.727 100.732 506.459C102.151 505.023 103.538 503.31 103.473 501.172C103.375 498.431 100.862 496.456 98.2513 496.326C95.2814 496.195 92.3932 498.284 89.4723 497.582C86.7146 496.913 84.2343 493.96 84.6586 491.023L83.6469 492.344C88.8033 489.782 94.8082 489.407 100.242 491.284C104.697 492.817 108.727 496.228 113.525 493.633C119.954 490.158 119.856 480.84 125.991 477.169L122.744 475.847C123.299 479.829 127.117 482.439 130.919 482.831C135.831 483.321 140.775 480.873 145.295 479.274C155.478 475.684 165.758 472.29 175.859 468.471C177.784 467.737 179.71 466.954 181.488 465.91C183.789 464.571 185.845 462.825 188.146 461.504C192.144 459.203 196.696 458.681 201.216 459.023C205.736 459.366 210.615 460.704 215.135 462.091C216.441 462.499 219.378 462.891 219.46 464.669C219.558 466.693 216.767 469.222 215.625 470.723C210.615 477.332 205.72 485.638 209.816 493.943C213.079 500.568 220.7 503.701 227.374 505.692C230.98 506.769 235.761 508.434 238.372 504.664C239.384 503.212 239.71 501.499 240.118 499.818C240.575 497.86 241.113 495.918 241.75 494.009C242.859 490.696 244.328 487.302 246.678 484.675C249.435 481.575 252.617 480.693 256.68 480.579C260.988 480.465 266.487 479.486 267.826 474.591C269.066 470.087 265.149 467.346 262.033 465.028C259.21 462.94 258.1 460.019 258.998 456.559C259.748 453.622 261.951 450.603 265.182 450.228L263.616 449.575C266.226 452.088 268.707 454.732 271.024 457.538C272.133 458.893 273.194 460.28 274.206 461.7C275.005 462.826 275.854 464.784 277.061 465.485C278.318 466.22 280.749 465.746 282.136 465.714C283.98 465.681 285.84 465.648 287.684 465.616C291.519 465.551 295.337 465.469 299.172 465.404C302.289 465.338 305.846 465.648 308.506 463.69C310.839 461.961 311.557 459.219 312.879 456.788C315.702 451.599 321.478 448.711 327.304 449.151L325.395 445.822C320.679 453.1 324.367 463.282 332.232 466.432C333.178 466.807 334.223 466.154 334.728 465.42C338.122 460.459 339.575 454.618 341.517 449.004C343.458 443.391 346.216 438.675 350.459 434.694C352.401 432.85 354.571 431.283 356.904 429.962C358.161 429.26 359.466 428.623 360.804 428.085C361.881 427.661 363.937 426.616 365.079 426.845C367.364 427.302 363.676 432.197 362.925 433.111C360.967 435.526 358.552 437.419 355.844 438.887C355.044 439.312 354.489 440.503 354.832 441.384C356.529 445.969 358.242 450.538 359.939 455.123C360.413 456.413 361.881 457.261 363.187 456.445C368.702 453.002 373.467 448.547 377.252 443.26C379.129 440.633 380.679 437.827 382.001 434.889C383.143 432.328 384.204 429.456 386.227 427.432C388.414 425.229 391.775 425.066 393.88 422.716C395.675 420.726 396.328 417.968 396.263 415.341C396.197 412.355 395.267 409.597 394.207 406.823C392.95 403.543 391.514 400.1 392.656 396.592C393.538 393.883 389.262 392.708 388.381 395.417C386.227 402.042 390.747 407.427 391.677 413.709C392.004 415.912 391.955 418.751 390.029 420.252C388.789 421.215 387.092 421.509 385.738 422.259C384.612 422.88 383.551 423.728 382.703 424.691C378.966 428.868 377.579 434.726 374.527 439.393C371.035 444.745 366.352 449.233 360.951 452.611L364.198 453.932C362.501 449.347 360.788 444.778 359.091 440.193L358.079 442.689C362.86 440.111 367.478 435.869 369.534 430.728C370.399 428.574 370.644 425.882 368.996 424.038C366.989 421.77 363.921 422.341 361.359 423.173C350.932 426.567 342.545 434.563 338.416 444.68C335.903 450.865 334.728 457.571 330.91 463.168L333.407 462.156C328.071 460.019 326.211 452.708 329.213 448.058C330.192 446.54 328.87 444.843 327.304 444.729C323.159 444.419 318.949 445.496 315.457 447.764C311.769 450.163 309.599 453.378 307.771 457.294C306.76 459.464 305.732 460.704 303.235 460.884C300.575 461.08 297.867 460.998 295.207 461.047C289.528 461.161 283.85 461.259 278.171 461.373L280.08 462.466C277.176 458.077 273.928 453.9 270.322 450.065C269.017 448.678 267.238 445.937 265.182 445.806C263.599 445.708 261.69 446.54 260.385 447.356C254.869 450.832 252.487 458.942 255.734 464.702C256.534 466.122 257.676 467.231 258.965 468.21C260.352 469.271 262.294 470.25 263.24 471.784C266.194 476.516 254.771 476.124 252.862 476.402C244.981 477.56 240.493 484.593 237.948 491.512C237.279 493.323 236.724 495.184 236.251 497.044C235.892 498.463 235.777 501.662 234.39 502.494C233.003 503.326 229.919 501.809 228.565 501.417C226.607 500.83 224.665 500.193 222.805 499.361C219.378 497.843 215.902 495.738 214.01 492.377C211.823 488.477 212.688 484.039 214.646 480.237C215.674 478.246 216.93 476.386 218.252 474.574C219.721 472.551 221.548 470.625 222.756 468.423C225.057 464.18 223.409 460.313 219.003 458.664C210.42 455.482 199.813 452.839 190.789 455.58C185.274 457.261 181.276 461.52 176.005 463.69C170.294 466.056 164.306 467.884 158.48 469.94C152.655 471.996 146.666 474.117 140.759 476.19C137.12 477.479 127.966 481.216 127.052 474.656C126.856 473.22 124.898 472.681 123.805 473.334C118.844 476.304 117.164 481.983 114.275 486.633C113.215 488.346 111.811 490.174 109.608 490.207C107.552 490.223 105.676 488.803 103.865 487.971C101.841 487.057 99.7362 486.388 97.5496 486.029C93.617 485.393 89.5376 485.605 85.7192 486.764C84.2506 487.221 81.4929 487.89 80.6607 489.293C79.8285 490.696 80.2528 493.242 80.7749 494.743C81.9172 497.958 84.5607 500.634 87.8242 501.662C89.456 502.184 91.0878 502.217 92.7685 501.89C94.4492 501.564 96.3747 500.487 98.0555 500.699C100.732 501.025 97.2069 503.734 96.44 504.452C94.5308 506.247 92.4585 508.221 91.8221 510.865C90.0434 518.224 99.2793 519.334 103.147 523.005C107.911 527.525 105.349 535.815 102.624 540.694C98.8224 547.482 92.7848 553.014 90.843 560.781C89.766 565.056 90.7451 568.956 91.1694 573.215C91.3325 574.896 91.512 576.985 90.3371 578.372C89.048 579.873 86.8288 580.297 85.4581 581.798C82.5209 585.013 84.0711 589.402 82.2109 592.943C80.7913 595.636 76.6302 596.207 74.46 594.167L75.0311 596.321C76.0265 592.421 76.3691 588.391 75.9122 584.377C75.5533 581.26 75.0637 576.968 72.0449 575.19C69.3035 573.574 66.0726 574.994 64.1634 577.197C62.0421 579.628 61.9932 583.185 59.8392 585.519L63.3149 585.959C60.133 579.514 56.7225 572.693 56.1514 565.415C55.5803 558.138 58.8765 551.464 61.2752 544.578C63.217 539.013 64.3266 532.568 62.0748 526.922C61.0957 524.458 59.4476 521.765 56.9836 520.574C54.6502 519.448 52.0883 520.248 50.5381 522.222C48.9879 524.197 48.4331 526.742 48.2699 529.19C48.0089 533.057 47.9925 536.957 47.862 540.824C47.7967 542.864 47.7151 544.888 47.6499 546.927C47.6009 548.298 47.6825 549.913 47.0951 551.17C45.8549 553.813 44.7453 549.995 44.8106 548.804C44.9737 545.801 47.5356 543.223 48.172 540.27C48.7432 537.561 48.1394 534.999 46.3444 532.894C43.4072 529.451 35.9337 527.444 39.0341 521.7C40.8127 518.404 44.0763 515.826 46.8503 513.394C49.7712 510.849 52.8389 508.466 56.0372 506.263C62.4827 501.825 69.4178 498.088 76.6792 495.184C79.29 494.139 78.1478 489.864 75.5043 490.908L75.3901 491.072Z" fill="#4B4B4C"/>
<path d="M164.502 487.678C167.227 485.132 169.968 482.57 172.693 480.025C174.064 478.752 175.418 477.463 176.789 476.19C177.915 475.162 178.829 474.477 180.444 474.754C183.773 475.341 187.151 477.087 190.039 478.752C192.177 479.992 196.435 481.868 195.456 484.92C194.543 487.743 191.703 489.766 189.549 491.626C187.151 493.699 184.736 495.739 182.582 498.056C178.453 502.51 175.32 508.14 175.663 514.373L178.992 512.464C174.798 509.674 170.082 506.802 164.828 507.324C160.504 507.765 156.995 510.408 154.189 513.558C151.382 516.707 148.853 520.591 145.589 523.593C143.664 525.372 141.526 526.905 139.323 528.325C138.132 529.092 136.925 529.826 135.717 530.544C134.82 531.066 133.074 532.6 132.046 532.405C130.446 532.095 129.043 528.7 128.586 527.411C127.836 525.257 127.477 522.973 127.15 520.721C126.498 516.315 125.763 512.301 123.952 508.205C122.924 505.856 123.12 504.224 125.372 502.837C127.623 501.45 130.3 501.368 132.715 500.585C137.381 499.084 139.715 495.722 141.689 491.463C142.163 490.435 142.636 489.407 143.174 488.428C143.517 487.824 144.349 485.964 145.1 485.785C144.643 485.899 145.508 486.291 145.801 486.535C146.373 487.009 146.927 487.482 147.547 487.89C148.461 488.477 149.506 488.934 150.534 489.26C155.168 490.745 160.357 489.521 163.865 486.193C165.938 484.218 162.805 481.101 160.732 483.06C157.501 486.127 152.329 486.225 148.934 483.402C147.107 481.885 145.181 480.53 142.832 481.983C141.004 483.109 139.764 485.312 138.834 487.188C137.838 489.179 137.055 491.316 135.799 493.16C134.265 495.429 132.127 496.212 129.549 496.848C125.241 497.893 119.889 499.426 118.877 504.469C118.339 507.112 119.693 509.299 120.656 511.648C121.537 513.802 121.978 516.119 122.336 518.404C123.038 522.891 123.365 527.575 125.6 531.638C126.661 533.547 128.292 535.652 130.365 536.5C132.959 537.561 135.146 536.027 137.316 534.738C142.097 531.915 146.895 528.88 150.68 524.752C154.075 521.031 156.685 516.185 160.944 513.362C166.394 509.739 171.991 513.117 176.74 516.299C178.111 517.213 180.167 516.022 180.069 514.39C179.645 506.574 185.617 500.879 191.067 496.147C195.293 492.491 203.322 486.339 198.802 479.976C196.86 477.25 193.254 475.39 190.349 473.889C187.167 472.257 183.185 470.234 179.53 470.234C175.875 470.234 173.232 473.448 170.735 475.798C167.618 478.719 164.502 481.624 161.369 484.545C159.28 486.486 162.413 489.619 164.502 487.678Z" fill="#4B4B4C"/>
<path d="M27.5792 459.024C22.9286 465.241 19.8283 472.6 18.6534 480.286C18.4739 481.461 18.9471 482.668 20.2036 483.011C21.2479 483.305 22.7491 482.652 22.9286 481.461C24.0546 474.102 26.9428 467.215 31.4139 461.259C32.1319 460.297 31.5771 458.779 30.6143 458.224C29.4884 457.555 28.2972 458.061 27.5792 459.024Z" fill="#4B4B4C"/>
<path d="M15.2102 526.922C15.1123 527.411 14.9817 527.901 14.8349 528.374C14.7696 528.586 14.7043 528.782 14.6227 528.978C14.6227 528.978 14.3617 529.614 14.5248 529.239C14.1495 530.087 13.6926 530.903 13.1541 531.67C13.0236 531.849 12.9094 532.029 12.7788 532.192C13.0073 531.882 12.632 532.355 12.583 532.421C12.2567 532.812 11.914 533.171 11.555 533.53C11.245 533.824 10.9186 534.118 10.5922 534.395C10.2169 534.721 10.7228 534.313 10.3638 534.575C10.1517 534.721 9.95585 534.868 9.74372 534.999C8.99311 535.488 8.20985 535.929 7.37765 536.288C7.75295 536.125 7.18183 536.353 7.10024 536.386C6.87179 536.467 6.62703 536.549 6.38226 536.631C5.94168 536.761 5.48478 536.875 5.02789 536.973C2.90658 537.381 0.785268 538.05 0.0836036 540.351C-0.25907 541.493 0.491546 542.766 1.63379 543.076C2.77603 543.386 4.01618 542.685 4.35886 541.526C4.22832 541.771 4.22832 541.787 4.34254 541.575C4.17936 541.771 4.16305 541.82 4.27727 541.705C4.39149 541.591 4.35886 541.624 4.17936 541.787C4.27727 541.722 4.39149 541.673 4.50572 541.608C4.14673 541.787 4.53835 541.608 4.68521 541.575C4.88103 541.526 5.06052 541.477 5.25634 541.428C6.1375 541.232 7.01865 541.102 7.8835 540.808C9.80899 540.172 11.5713 539.225 13.1705 537.985C16.3198 535.537 18.6695 532.029 19.5017 528.096C19.7465 526.921 19.1591 525.698 17.9516 525.371C16.842 525.061 15.4713 525.747 15.2265 526.922H15.2102Z" fill="#4B4B4C"/>
<path d="M44.1742 571.584C39.181 573.999 36.5375 580.363 38.2835 585.601C38.6425 586.694 39.8337 587.526 41.0086 587.151C42.1019 586.792 42.9504 585.601 42.5588 584.426C42.4772 584.181 42.3956 583.936 42.3466 583.675C42.314 583.528 42.2814 583.382 42.2487 583.218C42.2487 583.137 42.1998 582.696 42.2161 583.055C42.2324 583.414 42.2161 582.974 42.2161 582.892C42.2161 582.761 42.1998 582.631 42.1998 582.5C42.1998 582.223 42.1998 581.929 42.1998 581.652C42.1998 581.554 42.1998 581.44 42.2161 581.342C42.2161 581.26 42.2161 581.195 42.2324 581.113C42.2487 580.95 42.2324 581.016 42.1998 581.326C42.1345 581.195 42.314 580.705 42.3466 580.559C42.4119 580.314 42.4772 580.053 42.5588 579.808C42.6077 579.661 42.6567 579.514 42.7056 579.367C42.7383 579.302 42.9014 578.878 42.7709 579.204C42.6404 579.531 42.8362 579.074 42.8525 579.041C42.9014 578.927 42.9667 578.813 43.032 578.698C43.1462 578.47 43.2768 578.241 43.4236 578.029C43.5705 577.817 43.8152 577.556 43.9131 577.328C43.8316 577.524 43.701 577.605 43.9131 577.36C43.9947 577.262 44.0763 577.164 44.1742 577.067C44.3537 576.871 44.5332 576.691 44.7127 576.528C44.8106 576.447 44.9085 576.349 45.0064 576.267C45.2838 576.039 45.1696 576.234 44.9738 576.267C45.1859 576.218 45.4796 575.908 45.6755 575.794C45.9202 575.647 46.165 575.516 46.4261 575.386C47.4704 574.88 47.8294 573.314 47.2257 572.351C46.5403 571.274 45.3165 571.013 44.1905 571.551L44.1742 571.584Z" fill="#4B4B4C"/>
<path d="M76.402 610.078C76.402 610.893 76.3693 611.709 76.3041 612.525C76.2714 612.966 76.2388 613.406 76.1735 613.847C76.2714 613.308 76.1735 613.945 76.1409 614.01C76.1083 614.222 76.0756 614.451 76.0267 614.663C75.7329 616.311 75.3087 617.926 74.7376 619.493C74.3459 620.586 75.1781 621.957 76.2878 622.218C77.5279 622.495 78.5886 621.843 79.0128 620.668C80.2203 617.29 80.8241 613.684 80.8241 610.094C80.8241 608.935 79.8124 607.826 78.6049 607.875C77.3974 607.924 76.3857 608.854 76.3857 610.094L76.402 610.078Z" fill="#4B4B4C"/>
<path d="M313.94 316.325C311.884 319.327 309.73 322.558 309.175 326.246C308.62 329.934 309.354 333.475 311.981 336.037C313.042 337.065 314.674 336.787 315.457 335.596C318.884 330.326 320.483 323.847 319.83 317.598C319.7 316.406 318.9 315.378 317.611 315.378C316.518 315.378 315.278 316.39 315.392 317.598C315.963 323.162 314.69 328.661 311.622 333.377L315.098 332.936C313.499 331.37 313.107 328.857 313.564 326.719C314.201 323.684 316.028 321.106 317.758 318.593C318.443 317.614 317.937 316.129 316.958 315.558C315.865 314.922 314.609 315.362 313.923 316.358L313.94 316.325Z" fill="#4B4B4C"/>
<path d="M151.072 402.286C153.928 402.286 153.928 397.864 151.072 397.864C148.216 397.864 148.216 402.286 151.072 402.286Z" fill="#4B4B4C"/>
<path d="M349.023 149.524L347.195 155.3C346.853 156.41 347.603 157.764 348.746 158.025C349.953 158.303 351.095 157.666 351.471 156.475C352.074 154.55 352.694 152.624 353.298 150.699C353.641 149.589 352.89 148.235 351.748 147.974C350.54 147.696 349.398 148.333 349.023 149.524Z" fill="#4B4B4C"/>
<path d="M398.123 7.00501C397.911 8.31043 397.862 9.55057 398.042 10.8723C398.221 12.194 398.58 13.3526 399.135 14.5601C399.347 15.0334 399.983 15.4413 400.457 15.5718C400.979 15.7187 401.697 15.6534 402.17 15.3434C402.643 15.0333 403.051 14.5927 403.182 14.0216L403.263 13.4342C403.263 13.0426 403.165 12.6673 402.953 12.3246C402.904 12.2267 402.872 12.1288 402.823 12.0472L403.051 12.5694C402.709 11.7372 402.48 10.8723 402.35 9.99114L402.431 10.5786C402.317 9.69744 402.317 8.79994 402.431 7.90246L402.35 8.48993C402.35 8.39202 402.382 8.27779 402.399 8.17989C402.496 7.57613 402.496 7.0213 402.17 6.46649C401.909 6.0096 401.37 5.56902 400.848 5.4548C400.277 5.32426 399.641 5.35692 399.135 5.68327C398.678 5.97699 398.205 6.4502 398.123 7.00501Z" fill="#4B4B4C"/>
<path d="M405.482 23.0622C405.596 23.0948 405.694 23.1437 405.809 23.1927L405.286 22.9643C405.711 23.1438 406.119 23.3885 406.478 23.6659L406.037 23.3233C406.396 23.617 406.739 23.9434 407.016 24.3023L406.673 23.8617C406.951 24.237 407.196 24.6287 407.375 25.0529L407.147 24.5308C407.196 24.645 407.228 24.7429 407.277 24.8571C407.473 25.4119 407.783 25.8852 408.289 26.1789C408.55 26.3421 408.811 26.4236 409.105 26.44C409.398 26.5052 409.692 26.4889 409.986 26.4073C410.524 26.2278 411.03 25.9015 411.308 25.3956C411.585 24.8898 411.732 24.2534 411.536 23.6823C411.144 22.54 410.541 21.512 409.676 20.6635C408.811 19.8149 407.799 19.2112 406.657 18.8032C406.363 18.7053 406.07 18.7053 405.776 18.7706C405.482 18.7706 405.205 18.8685 404.96 19.0317C404.503 19.2928 404.063 19.8313 403.948 20.3534C403.818 20.9245 403.85 21.5609 404.177 22.0668L404.519 22.5074C404.797 22.7848 405.123 22.9643 405.499 23.0785L405.482 23.0622Z" fill="#4B4B4C"/>
<path d="M344.927 457.066L346.591 460.394C346.836 460.868 347.407 461.276 347.913 461.406C348.207 461.504 348.501 461.504 348.794 461.439C349.088 461.439 349.365 461.341 349.61 461.178C350.083 460.868 350.491 460.427 350.622 459.856L350.703 459.268C350.703 458.877 350.606 458.502 350.393 458.159L348.729 454.83C348.484 454.357 347.913 453.949 347.407 453.818C347.114 453.72 346.82 453.72 346.526 453.786C346.232 453.786 345.955 453.884 345.71 454.047C345.237 454.357 344.829 454.797 344.699 455.369L344.617 455.956C344.617 456.348 344.715 456.723 344.927 457.066Z" fill="#4B4B4C"/>
<path d="M344.046 471.376C343.475 472.208 342.904 473.024 342.349 473.856C342.186 474.117 342.104 474.379 342.088 474.672C342.023 474.966 342.039 475.26 342.121 475.553C342.186 475.847 342.316 476.092 342.512 476.304C342.675 476.549 342.871 476.728 343.132 476.875C343.638 477.153 344.274 477.283 344.846 477.104L345.368 476.875C345.694 476.679 345.972 476.418 346.167 476.076C346.738 475.243 347.31 474.428 347.864 473.595C348.028 473.334 348.109 473.073 348.125 472.779C348.191 472.486 348.174 472.192 348.093 471.898C348.028 471.605 347.897 471.36 347.701 471.148C347.538 470.903 347.342 470.723 347.081 470.576C346.575 470.299 345.939 470.169 345.368 470.348L344.846 470.576C344.519 470.772 344.242 471.033 344.046 471.376Z" fill="#4B4B4C"/>
<path d="M348.762 485.704C350.149 486.813 351.536 487.939 352.907 489.049C353.103 489.261 353.347 489.424 353.625 489.506C353.886 489.636 354.179 489.702 354.473 489.702C355.012 489.702 355.664 489.457 356.04 489.049C356.415 488.641 356.709 488.07 356.692 487.482C356.66 486.928 356.497 486.275 356.04 485.916C354.653 484.806 353.266 483.68 351.895 482.571C351.699 482.359 351.454 482.195 351.177 482.114C350.916 481.983 350.622 481.918 350.329 481.918C349.79 481.918 349.137 482.163 348.762 482.571C348.387 482.979 348.093 483.55 348.109 484.137C348.142 484.692 348.305 485.345 348.762 485.704Z" fill="#4B4B4C"/>
<path d="M358.324 522.027L359.988 524.523C360.135 524.784 360.315 524.98 360.56 525.143C360.772 525.339 361.017 525.47 361.31 525.535C361.604 525.633 361.898 525.633 362.191 525.567C362.485 525.567 362.763 525.47 363.007 525.306C363.48 524.996 363.888 524.556 364.019 523.985L364.101 523.397C364.101 523.006 364.003 522.63 363.791 522.288L362.126 519.791C361.979 519.53 361.8 519.334 361.555 519.171C361.343 518.975 361.098 518.845 360.804 518.779C360.511 518.681 360.217 518.681 359.923 518.747C359.629 518.747 359.352 518.845 359.107 519.008C358.634 519.318 358.226 519.758 358.096 520.33L358.014 520.917C358.014 521.309 358.112 521.684 358.324 522.027Z" fill="#4B4B4C"/>
<path d="M107.34 516.413C110.832 518.47 114.553 520.95 118.453 523.822C122.369 526.71 125.763 529.533 128.651 532.307C131.54 535.081 132.763 537.088 132.355 538.328C132.143 538.736 130.968 539.715 128.798 541.265C126.644 542.816 124.164 544.562 121.39 546.52C118.616 548.478 115.989 550.387 113.508 552.231C111.044 554.091 109.282 555.527 108.254 556.555C108.042 556.963 107.422 557.697 106.394 558.709L105.154 559.949C104.322 560.977 103.245 560.063 101.906 557.175C100.568 554.287 99.2304 550.844 97.8923 546.83C96.5543 542.816 95.4283 539.063 94.4982 535.554C93.5681 532.062 93.2091 530.202 93.4212 529.99C92.1811 530.202 90.843 531.801 89.4071 534.771C87.9711 537.757 86.5678 541.053 85.246 544.66C83.908 548.266 82.6678 551.513 81.5419 554.385C80.416 557.273 79.4206 558.807 78.6047 559.019C74.4763 556.555 70.8864 554.287 67.8023 552.231C64.9141 550.583 62.3522 548.886 60.084 547.14C57.8159 545.394 56.6899 544.105 56.6899 543.273C56.6899 541.624 57.0489 539.976 57.7669 538.328C58.4849 536.68 59.8719 535.146 61.928 533.694C62.3359 533.074 62.8581 532.405 63.4781 531.687C64.0982 530.969 64.6041 530.3 65.0283 529.68C65.8442 528.652 67.2965 527.004 69.3525 524.736C71.4086 522.467 73.1546 520.819 74.6069 519.791C73.7746 519.383 72.4366 519.122 70.5927 519.024C68.7325 518.926 66.8885 518.828 65.0283 518.714C63.1681 518.616 61.4711 518.519 59.9372 518.404C58.387 518.306 57.5221 518.143 57.31 517.947C56.9021 517.539 56.951 515.891 57.4569 513.003C57.9627 510.115 58.5339 506.933 59.1539 503.425C59.5619 501.156 59.9698 498.79 60.3941 496.326C60.802 493.862 61.4221 492.524 62.2543 492.312C62.6622 492.116 64.1145 492.834 66.5785 494.466C69.0425 496.114 71.7839 498.023 74.77 500.177C77.7562 502.331 80.5302 504.306 83.1084 506.052C85.6866 507.798 87.1715 508.777 87.5795 508.989C87.7753 508.581 87.5795 507.031 86.9594 504.355C86.3393 501.679 85.5724 498.79 84.6423 495.706C83.7122 492.622 82.831 489.783 82.0151 487.221C81.1829 484.643 80.6771 483.158 80.4649 482.75C80.2528 481.51 81.7051 481.151 84.7891 481.673C87.8732 482.195 91.2673 482.652 94.9877 483.06C98.4797 483.468 101.678 483.468 104.566 483.06C107.455 482.652 109.086 482.652 109.511 483.06C109.706 483.272 109.608 483.99 109.201 485.214C108.793 486.454 108.27 487.841 107.65 489.391C107.03 490.941 106.459 492.377 105.953 493.716C105.431 495.054 105.186 495.935 105.186 496.343C105.186 496.555 104.925 497.175 104.419 498.203C103.897 499.231 103.391 500.259 102.869 501.287C102.347 502.315 101.841 503.343 101.319 504.371C100.797 505.399 100.552 506.019 100.552 506.231C101.792 506.231 103.587 505.301 105.953 503.457C108.319 501.597 110.783 499.655 113.362 497.583C115.94 495.527 118.257 493.83 120.313 492.492C122.369 491.154 123.495 491.105 123.707 492.345C124.115 493.373 124.996 495.119 126.334 497.599C127.672 500.063 128.847 502.543 129.891 505.007C130.919 507.063 131.491 509.185 131.588 511.339C131.686 513.509 131.327 514.782 130.512 515.206C128.651 515.01 126.089 514.847 122.793 514.749C119.497 514.651 116.25 514.488 113.068 514.292C109.87 514.096 105.904 513.982 101.172 513.982C101.792 513.574 103.848 514.39 107.357 516.446L107.34 516.413Z" fill="#FF7100"/>
</svg>
