<svg width="552" height="690" viewBox="0 0 552 690" fill="none" xmlns="http://www.w3.org/2000/svg">
<path d="M430.661 69.569C421.294 75.9819 418.422 87.3717 418.308 98.174C418.178 111.098 422.616 124.103 420.054 136.994C419.401 140.274 418.276 143.391 416.562 146.279C414.849 149.167 412.825 151.745 411.471 154.78C408.795 160.769 410.117 167.932 406.886 173.644C405.597 175.928 403.426 178.131 400.587 177.903C397.748 177.674 395.17 175.178 392.967 173.448C389.263 170.543 383.568 167.932 379.113 170.935C373.875 174.46 378.101 180.758 375.376 185.327C373.19 188.999 368.963 191.283 365.7 193.861C362.077 196.717 358.911 200.258 358.34 205.023C357.671 210.701 360.837 215.858 363.121 220.802C364.362 223.478 365.406 226.301 365.406 229.287C365.406 232.73 364.247 236.059 363.448 239.372C362.044 245.116 361.93 250.81 365.912 255.591C369.143 259.475 374.609 260.601 378.542 256.995C381.968 253.846 382.115 248.803 384.938 245.295C386.945 242.798 390.405 243.027 393.244 242.309C395.447 241.754 397.438 240.661 398.906 238.898C401.615 235.635 402.317 231.001 401.256 226.97C400.098 222.548 396.752 219.415 392.249 218.664C389.556 218.224 386.489 218.567 383.927 217.506C381.202 216.38 380.892 213.687 381.675 211.158C382.54 208.352 384.351 205.839 386.26 203.668L384.694 204.321C390.829 204.745 395.757 209.657 396.72 215.629C396.916 216.837 398.384 217.441 399.445 217.18C403.394 216.2 406.168 213.312 408.55 210.179C410.769 207.258 412.711 203.554 415.926 201.58C420.821 198.577 426.532 203.114 430.742 205.48C436.829 208.906 442.915 212.349 449.002 215.776C455.904 219.676 462.807 223.576 469.725 227.46C470.672 227.998 471.602 227.737 472.402 227.117C478.145 222.662 476.66 214.65 478.798 208.498C480.936 202.347 486.06 198.61 491.526 195.999C504.205 189.978 518.646 191.234 531.912 187.4C539.402 185.229 546.223 181.444 550.792 174.982C551.494 173.97 550.939 172.55 549.993 171.947C536.694 163.429 533.544 143.521 543.025 131.071C543.694 130.189 543.221 128.492 542.225 128.036C537.64 125.947 533.136 127.008 528.698 128.966C524.259 130.924 520.147 133.274 515.366 134.399C505.837 136.635 495.491 135.232 486.631 131.169C477.77 127.105 470.868 120.986 465.124 113.643C459.38 106.3 455.823 98.2719 452.119 89.9825C448.414 81.693 443.682 72.6367 435.148 67.9045C432.651 66.5175 430.416 70.3359 432.913 71.7229C440.386 75.8676 444.384 83.6186 447.794 91.1247C451.531 99.3326 455.039 107.491 460.457 114.769C471.765 129.961 489.144 140.894 508.627 139.801C513.979 139.491 519.185 138.267 524.08 136.08C528.665 134.024 534.768 129.488 539.99 131.87L539.19 128.835C528.208 143.26 532.614 166.072 547.741 175.765L546.941 172.73C538.684 184.43 522.106 185.034 509.231 186.698C497.221 188.248 482.584 192.164 476.187 203.522C474.36 206.752 473.642 210.228 473.169 213.867C472.695 217.506 472.353 221.553 469.252 223.984L471.928 223.641C459.282 216.51 446.652 209.38 434.006 202.249C428.915 199.377 423.073 194.971 416.872 196.407C412.842 197.353 410.051 200.633 407.702 203.799C405.156 207.226 402.708 211.795 398.254 212.888L400.979 214.438C400.065 208.727 396.051 203.75 390.796 201.384C388.496 200.356 384.71 198.871 382.735 200.976C380.761 203.081 378.999 205.855 377.889 208.613C375.702 214.063 377.204 220.084 383.258 221.944C387.712 223.315 393.946 221.52 396.41 226.562C397.976 229.777 397.601 234.607 394.615 236.924C392.298 238.719 388.871 238.327 386.195 239.241C383.666 240.106 381.756 241.803 380.402 244.087C378.623 247.106 377.595 254.449 373.222 254.825C370.775 255.037 368.898 252.589 367.935 250.647C366.532 247.824 366.744 244.92 367.397 241.917C368.816 235.358 370.987 229.336 368.669 222.679C366.826 217.392 362.599 212.154 362.681 206.377C362.746 201.531 366.924 198.381 370.464 195.754C374.005 193.127 378.052 190.418 379.896 186.192C381.022 183.63 380.859 181.182 380.63 178.457C380.386 175.422 381.495 173.693 384.677 174.133C390.552 174.949 393.701 181.378 399.722 182.211C405.743 183.043 410.312 177.984 412.14 172.681C413.266 169.434 413.38 165.925 413.886 162.548C414.441 158.941 415.665 155.89 417.623 152.822C419.401 150.032 421.213 147.356 422.486 144.288C423.758 141.22 424.493 137.891 424.884 134.546C425.7 127.595 424.868 120.562 424.003 113.643C422.6 102.368 420.968 89.3787 427.332 79.1964C428.768 76.8793 430.661 74.9049 432.913 73.371C435.164 71.8371 433.043 67.9372 430.677 69.5526L430.661 69.569Z" fill="#4B4B4C"/>
<path d="M404.911 259.263C401.958 262.706 398.123 264.795 393.636 265.448L396.361 266.998C394.386 261.956 395.169 256.196 398.792 252.084L396.116 252.426C401.615 255.576 407.914 257.012 414.229 256.424L412.091 254.792C416.17 270.376 413.739 286.922 418.961 302.31C421.425 309.571 425.015 316.424 427.12 323.816C429.225 331.208 429.29 338.633 427.283 345.894C425.276 353.156 420.968 358.622 417.427 364.954C415.795 367.891 414.375 371.04 413.804 374.369C413.396 376.768 413.951 381.435 411.226 382.544C409.774 383.132 408.093 383.017 406.592 383.393C405.091 383.768 403.655 384.421 402.398 385.269C399.804 387.032 397.846 389.577 396.883 392.58C395.708 396.218 395.953 400.298 395.838 404.084C395.708 408.359 395.577 412.634 395.463 416.893C395.316 421.707 395.186 426.504 395.039 431.318C394.908 435.724 395.039 440.244 392.901 444.242C389.67 450.23 383.176 457.459 388.251 464.41C389.915 466.695 393.75 464.476 392.069 462.175C387.826 456.349 395.724 449.316 397.797 444.16C399.184 440.733 399.298 436.964 399.396 433.325C399.526 429.05 399.657 424.774 399.771 420.516C399.885 416.257 400.032 411.965 400.146 407.706C400.261 403.79 400.032 399.678 400.669 395.794C401.207 392.498 403.035 389.659 406.135 388.239C409.235 386.819 412.646 387.652 415.175 385.253C417.345 383.213 417.623 380.113 417.884 377.322C418.21 373.896 419.32 370.779 420.952 367.76C424.28 361.592 428.556 356.126 430.84 349.419C433.125 342.712 433.761 334.815 432.521 327.521C431.281 320.227 427.919 313.177 425.129 306.193C421.784 297.822 420.234 289.386 419.597 280.428C418.961 271.469 418.667 262.38 416.383 253.634C416.154 252.769 415.191 251.92 414.245 252.002C408.648 252.524 403.23 251.398 398.351 248.608C397.552 248.151 396.312 248.216 395.675 248.951C391.074 254.189 389.54 261.629 392.118 268.173C392.591 269.397 393.538 269.903 394.843 269.723C399.983 268.972 404.699 266.329 408.077 262.396C409.921 260.242 406.804 257.093 404.944 259.263H404.911Z" fill="#4B4B4C"/>
<path d="M404.65 261.677C406.216 265.659 405.629 270.065 403.181 273.573C402.006 275.254 400.358 276.755 398.449 277.538C396.279 278.436 394.565 276.673 393.342 275.025C390.584 271.321 389.67 266.638 385.656 263.864C381.332 260.878 377.236 263.293 374.266 266.834C361.13 282.45 365.601 304.87 364.606 323.603C363.333 347.672 355.125 370.827 345.302 392.628C344.356 394.749 343.491 397.327 341.484 398.681C339.477 400.036 336.621 400.199 334.288 400.901C329.49 402.337 326.863 405.845 324.611 410.12C322.49 414.151 320.173 417.61 316.664 420.58C313.385 423.354 309.615 425.524 305.862 427.597C298.144 431.855 290.115 435.821 284.192 442.527C283.066 443.816 281.434 446.15 279.427 445.595C277.975 445.203 277.175 443.425 276.8 442.119C275.511 437.567 278.35 434.091 280.863 430.599C283.376 427.107 287.146 421.624 285.073 417.006C283.229 412.862 277.942 412.617 274.124 413.579C265.28 415.815 259.764 424.007 256.664 432.051C253.09 441.336 252.976 451.518 249.696 460.901C248.848 463.349 247.738 465.698 246.335 467.869C244.834 470.17 242.875 472.079 241.195 474.249C237.899 478.541 237.572 484.154 234.325 488.494C231.502 492.248 227.015 494.777 222.233 493.683C220.259 493.227 218.546 492.215 217.322 490.583C215.706 488.445 214.58 486.373 211.953 485.329C207.384 483.534 202.358 485.704 198.116 487.417C193.057 489.49 187.77 490.86 182.385 491.84C171.779 493.765 160.96 494.222 150.386 496.343C145.099 497.404 139.91 498.905 134.982 501.108C130.054 503.311 125.306 506.509 120.802 509.724C116.298 512.938 111.827 516.3 106.948 518.943C102.526 521.342 97.7452 522.86 93.062 524.671C88.6725 526.368 84.332 528.326 80.7747 531.475C77.0216 534.788 74.6882 539.357 73.6928 544.236C72.6974 549.115 72.73 554.239 72.8932 559.265C72.9911 562.104 77.4132 562.12 77.3153 559.265C77.1521 554.027 76.989 548.625 78.4086 543.534C79.8283 538.443 82.8634 534.837 87.2202 532.242C91.5771 529.648 96.0318 528.31 100.552 526.613C105.496 524.752 110.13 522.452 114.536 519.547C123.854 513.412 132.225 506.183 143.043 502.756C153.862 499.329 164.648 498.758 175.532 497.322C180.933 496.604 186.318 495.756 191.589 494.304C196.859 492.851 201.298 490.208 206.389 489.261C208.494 488.87 210.615 488.984 212.116 490.714C213.83 492.688 214.793 494.793 217.077 496.262C220.781 498.628 225.807 498.938 229.854 497.371C234.325 495.642 237.784 492.019 239.955 487.809C241.129 485.525 241.75 483.093 242.631 480.694C243.659 477.92 245.584 475.897 247.461 473.694C254.428 465.486 255.979 454.994 257.92 444.763C259.568 436.065 262.245 426.177 269.686 420.564C271.366 419.291 273.275 418.344 275.331 417.822C276.914 417.431 279.688 416.957 280.879 418.458C282.25 420.204 280.08 423.794 279.134 425.312C277.844 427.401 276.278 429.326 274.924 431.382C272.525 435.037 271.317 438.954 272.557 443.294C273.52 446.705 276.164 450.148 280.047 450.099C284.779 450.033 287.325 445.318 290.458 442.495C293.771 439.525 297.605 437.224 301.473 435.07C309.077 430.811 317.415 427.025 323.273 420.368C326.292 416.941 327.858 412.829 330.355 409.076C331.644 407.15 333.26 405.861 335.495 405.192C337.731 404.523 340.064 404.229 342.234 403.299C347.293 401.129 348.957 395.434 350.997 390.767C353.396 385.285 355.664 379.769 357.736 374.156C361.914 362.897 365.324 351.311 367.298 339.448C369.126 328.45 369.257 317.517 369.191 306.404C369.126 296.761 369.11 286.562 372.912 277.506C373.744 275.531 374.772 273.638 375.996 271.892C377.122 270.261 379.194 266.948 381.413 266.899C383.241 266.85 384.726 268.841 385.623 270.179C387.027 272.284 387.794 274.699 389.213 276.788C391.71 280.508 395.626 283.592 400.228 281.585C404.193 279.855 407.163 276.478 408.762 272.496C410.361 268.515 410.459 264.354 408.941 260.519C407.913 257.892 403.622 259.034 404.666 261.694L404.65 261.677Z" fill="#4B4B4C"/>
<path d="M75.3901 558.678C62.0748 563.997 49.8038 571.781 39.5236 581.8C35.1831 586.026 31.1363 592.374 35.95 597.84C37.6144 599.733 39.8989 600.875 41.8081 602.474C44.4679 604.694 44.0436 607.06 42.5914 609.981C41.2207 612.722 39.9479 615.202 40.4374 618.335C40.7964 620.62 42.0202 623.051 44.3047 623.916C46.8013 624.862 49.4611 623.606 50.7339 621.338C52.3004 618.515 52.0067 614.892 52.1046 611.792C52.2515 607.582 52.3983 603.388 52.5452 599.178C52.5941 597.791 52.4473 592.521 54.5849 592.178C55.515 592.031 56.6899 593.924 57.0652 594.544C57.8648 595.866 58.3706 597.367 58.6154 598.884C59.1213 601.969 58.697 605.183 57.8811 608.169C55.6782 616.23 51.2235 623.443 51.5824 632.059C51.9414 640.56 55.7272 648.425 59.415 655.915C60.035 657.172 61.9769 657.351 62.8907 656.356C64.4082 654.724 65.1915 652.782 65.9584 650.71C66.399 649.519 67.8349 645.831 69.7441 646.712C70.5763 647.103 70.8048 648.882 70.9843 649.649C71.3269 651.199 71.5391 652.766 71.6043 654.349C71.7349 657.22 71.4085 660.043 70.6906 662.834C70.4947 663.584 70.6906 664.449 71.2617 664.988C74.8026 668.3 80.5302 668.284 84.169 665.086C86.0945 663.389 86.8615 661.039 87.2041 658.575C87.5958 655.768 87.3836 652.962 90.1413 651.428C92.5564 650.09 94.5145 648.556 95.2651 645.765C95.9668 643.138 95.4936 640.348 95.0856 637.704C94.645 634.865 94.3513 632.156 95.1183 629.333C95.9178 626.331 97.517 623.606 99.214 621.028C102.461 616.1 106.361 611.678 108.45 606.081C110.163 601.479 110.881 596.029 108.874 591.411C106.688 586.369 101.972 585.275 97.7944 582.452C93.617 579.629 98.4797 576.333 100.732 574.065C102.151 572.629 103.538 570.916 103.473 568.778C103.375 566.037 100.862 564.062 98.2513 563.932C95.2814 563.801 92.3932 565.89 89.4723 565.188C86.7146 564.519 84.2343 561.566 84.6586 558.629L83.6469 559.95C88.8033 557.388 94.8082 557.013 100.242 558.89C104.697 560.423 108.727 563.834 113.525 561.239C119.954 557.764 119.856 548.446 125.991 544.775L122.744 543.453C123.299 547.435 127.117 550.045 130.919 550.437C135.831 550.927 140.775 548.479 145.295 546.88C155.478 543.29 165.758 539.896 175.859 536.077C177.784 535.343 179.71 534.56 181.488 533.515C183.789 532.177 185.845 530.431 188.146 529.11C192.144 526.809 196.696 526.287 201.216 526.629C205.736 526.972 210.615 528.31 215.135 529.697C216.441 530.105 219.378 530.497 219.46 532.275C219.558 534.299 216.767 536.828 215.625 538.329C210.615 544.938 205.72 553.244 209.816 561.549C213.079 568.174 220.7 571.307 227.374 573.298C230.98 574.375 235.761 576.04 238.372 572.27C239.384 570.818 239.71 569.105 240.118 567.424C240.575 565.466 241.113 563.524 241.75 561.615C242.859 558.302 244.328 554.908 246.678 552.281C249.435 549.181 252.617 548.299 256.68 548.185C260.988 548.071 266.487 547.092 267.826 542.197C269.066 537.693 265.149 534.951 262.033 532.634C259.21 530.546 258.1 527.625 258.998 524.165C259.748 521.228 261.951 518.209 265.182 517.834L263.616 517.181C266.226 519.694 268.707 522.338 271.024 525.144C272.133 526.499 273.194 527.886 274.206 529.306C275.005 530.431 275.854 532.39 277.061 533.091C278.318 533.825 280.749 533.352 282.136 533.32C283.98 533.287 285.84 533.254 287.684 533.222C291.519 533.156 295.337 533.075 299.172 533.01C302.289 532.944 305.846 533.254 308.506 531.296C310.839 529.567 311.557 526.825 312.879 524.394C315.702 519.205 321.478 516.317 327.304 516.757L325.395 513.428C320.679 520.706 324.367 530.888 332.232 534.038C333.178 534.413 334.223 533.76 334.728 533.026C338.122 528.065 339.575 522.224 341.517 516.61C343.458 510.997 346.216 506.281 350.459 502.3C352.401 500.456 354.571 498.889 356.904 497.567C358.161 496.866 359.466 496.229 360.804 495.691C361.881 495.267 363.937 494.222 365.079 494.451C367.364 494.908 363.676 499.803 362.925 500.717C360.967 503.132 358.552 505.025 355.844 506.493C355.044 506.918 354.489 508.109 354.832 508.99C356.529 513.575 358.242 518.144 359.939 522.729C360.413 524.019 361.881 524.867 363.187 524.051C368.702 520.608 373.467 516.153 377.252 510.866C379.129 508.239 380.679 505.433 382.001 502.495C383.143 499.933 384.204 497.062 386.227 495.038C388.414 492.835 391.775 492.672 393.88 490.322C395.675 488.332 396.328 485.574 396.263 482.947C396.197 479.961 395.267 477.203 394.207 474.429C392.95 471.149 391.514 467.706 392.656 464.198C393.538 461.489 389.262 460.314 388.381 463.023C386.227 469.648 390.747 475.033 391.677 481.315C392.004 483.518 391.955 486.357 390.029 487.858C388.789 488.821 387.092 489.115 385.738 489.865C384.612 490.486 383.551 491.334 382.703 492.297C378.966 496.474 377.579 502.332 374.527 506.999C371.035 512.351 366.352 516.839 360.951 520.217L364.198 521.538C362.501 516.953 360.788 512.384 359.091 507.799L358.079 510.295C362.86 507.717 367.478 503.474 369.534 498.334C370.399 496.18 370.644 493.488 368.996 491.644C366.989 489.376 363.921 489.947 361.359 490.779C350.932 494.173 342.545 502.169 338.416 512.286C335.903 518.47 334.728 525.177 330.91 530.774L333.407 529.762C328.071 527.625 326.211 520.314 329.213 515.664C330.192 514.146 328.87 512.449 327.304 512.335C323.159 512.025 318.949 513.102 315.457 515.37C311.769 517.769 309.599 520.983 307.771 524.9C306.76 527.07 305.732 528.31 303.235 528.49C300.575 528.685 297.867 528.604 295.207 528.653C289.528 528.767 283.85 528.865 278.171 528.979L280.08 530.072C277.176 525.683 273.928 521.506 270.322 517.671C269.017 516.284 267.238 513.543 265.182 513.412C263.599 513.314 261.69 514.146 260.385 514.962C254.869 518.438 252.487 526.548 255.734 532.308C256.534 533.728 257.676 534.837 258.965 535.816C260.352 536.877 262.294 537.856 263.24 539.39C266.194 544.122 254.771 543.73 252.862 544.008C244.981 545.166 240.493 552.199 237.948 559.118C237.279 560.929 236.724 562.79 236.251 564.65C235.892 566.069 235.777 569.268 234.39 570.1C233.003 570.932 229.919 569.415 228.565 569.023C226.607 568.436 224.665 567.799 222.805 566.967C219.378 565.449 215.902 563.344 214.01 559.983C211.823 556.083 212.688 551.645 214.646 547.843C215.674 545.852 216.93 543.991 218.252 542.18C219.721 540.157 221.548 538.231 222.756 536.028C225.057 531.786 223.409 527.918 219.003 526.27C210.42 523.088 199.813 520.445 190.789 523.186C185.274 524.867 181.276 529.126 176.005 531.296C170.294 533.662 164.306 535.49 158.48 537.546C152.655 539.602 146.666 541.723 140.759 543.796C137.12 545.085 127.966 548.822 127.052 542.262C126.856 540.826 124.898 540.287 123.805 540.94C118.844 543.91 117.164 549.588 114.275 554.239C113.215 555.952 111.811 557.78 109.608 557.813C107.552 557.829 105.676 556.409 103.865 555.577C101.841 554.663 99.7362 553.994 97.5496 553.635C93.617 552.999 89.5376 553.211 85.7192 554.37C84.2506 554.827 81.4929 555.496 80.6607 556.899C79.8285 558.302 80.2528 560.848 80.7749 562.349C81.9172 565.564 84.5607 568.24 87.8242 569.268C89.456 569.79 91.0878 569.822 92.7685 569.496C94.4492 569.17 96.3747 568.093 98.0555 568.305C100.732 568.631 97.2069 571.34 96.44 572.058C94.5308 573.853 92.4585 575.827 91.8221 578.471C90.0434 585.83 99.2793 586.94 103.147 590.611C107.911 595.131 105.349 603.421 102.624 608.3C98.8224 615.088 92.7848 620.62 90.843 628.387C89.766 632.662 90.7451 636.562 91.1694 640.821C91.3325 642.502 91.512 644.591 90.3371 645.978C89.048 647.479 86.8288 647.903 85.4581 649.404C82.5209 652.619 84.0711 657.008 82.2109 660.549C80.7913 663.242 76.6302 663.813 74.46 661.773L75.0311 663.927C76.0265 660.027 76.3691 655.997 75.9122 651.983C75.5533 648.866 75.0637 644.574 72.0449 642.796C69.3035 641.18 66.0726 642.6 64.1634 644.803C62.0421 647.234 61.9932 650.791 59.8392 653.125L63.3149 653.565C60.133 647.12 56.7225 640.299 56.1514 633.021C55.5803 625.744 58.8765 619.07 61.2752 612.183C63.217 606.619 64.3266 600.174 62.0748 594.528C61.0957 592.064 59.4476 589.371 56.9836 588.18C54.6502 587.054 52.0883 587.854 50.5381 589.828C48.9879 591.803 48.4331 594.348 48.2699 596.796C48.0089 600.663 47.9925 604.563 47.862 608.43C47.7967 610.47 47.7151 612.494 47.6499 614.533C47.6009 615.904 47.6825 617.519 47.0951 618.776C45.8549 621.419 44.7453 617.601 44.8106 616.41C44.9737 613.407 47.5356 610.829 48.172 607.876C48.7432 605.167 48.1394 602.605 46.3444 600.5C43.4072 597.057 35.9337 595.05 39.0341 589.306C40.8127 586.01 44.0763 583.432 46.8503 581C49.7712 578.455 52.8389 576.072 56.0372 573.869C62.4827 569.431 69.4178 565.694 76.6792 562.79C79.29 561.745 78.1478 557.47 75.5043 558.514L75.3901 558.678Z" fill="#4B4B4C"/>
<path d="M164.502 555.284C167.227 552.738 169.968 550.176 172.693 547.631C174.064 546.358 175.418 545.069 176.789 543.796C177.915 542.768 178.829 542.082 180.444 542.36C183.773 542.947 187.151 544.693 190.039 546.358C192.177 547.598 196.435 549.474 195.456 552.526C194.543 555.349 191.703 557.372 189.549 559.232C187.151 561.305 184.736 563.344 182.582 565.662C178.453 570.116 175.32 575.746 175.663 581.979L178.992 580.07C174.798 577.28 170.082 574.408 164.828 574.93C160.504 575.371 156.995 578.014 154.189 581.164C151.382 584.313 148.853 588.197 145.589 591.199C143.664 592.978 141.526 594.511 139.323 595.931C138.132 596.698 136.925 597.432 135.717 598.15C134.82 598.672 133.074 600.206 132.046 600.011C130.446 599.7 129.043 596.306 128.586 595.017C127.836 592.863 127.477 590.579 127.15 588.327C126.498 583.921 125.763 579.907 123.952 575.811C122.924 573.462 123.12 571.83 125.372 570.443C127.623 569.056 130.3 568.974 132.715 568.191C137.381 566.69 139.715 563.328 141.689 559.069C142.163 558.041 142.636 557.013 143.174 556.034C143.517 555.43 144.349 553.57 145.1 553.391C144.643 553.505 145.508 553.897 145.801 554.141C146.373 554.614 146.927 555.088 147.547 555.496C148.461 556.083 149.506 556.54 150.534 556.866C155.168 558.351 160.357 557.127 163.865 553.799C165.938 551.824 162.805 548.707 160.732 550.666C157.501 553.733 152.329 553.831 148.934 551.008C147.107 549.491 145.181 548.136 142.832 549.589C141.004 550.715 139.764 552.917 138.834 554.794C137.838 556.785 137.055 558.922 135.799 560.766C134.265 563.034 132.127 563.818 129.549 564.454C125.241 565.498 119.889 567.032 118.877 572.074C118.339 574.718 119.693 576.905 120.656 579.254C121.537 581.408 121.978 583.725 122.336 586.01C123.038 590.497 123.365 595.18 125.6 599.244C126.661 601.153 128.292 603.258 130.365 604.106C132.959 605.167 135.146 603.633 137.316 602.344C142.097 599.521 146.895 596.486 150.68 592.357C154.075 588.637 156.685 583.791 160.944 580.968C166.394 577.345 171.991 580.723 176.74 583.905C178.111 584.819 180.167 583.628 180.069 581.996C179.645 574.18 185.617 568.485 191.067 563.752C195.293 560.097 203.322 553.945 198.802 547.582C196.86 544.856 193.254 542.996 190.349 541.495C187.167 539.863 183.185 537.84 179.53 537.84C175.875 537.84 173.232 541.054 170.735 543.404C167.618 546.325 164.502 549.23 161.369 552.151C159.28 554.092 162.413 557.225 164.502 555.284Z" fill="#4B4B4C"/>
<path d="M27.5792 526.63C22.9286 532.847 19.8283 540.206 18.6534 547.892C18.4739 549.067 18.9471 550.274 20.2036 550.617C21.2479 550.911 22.7491 550.258 22.9286 549.067C24.0546 541.708 26.9428 534.821 31.4139 528.865C32.1319 527.903 31.5771 526.385 30.6143 525.83C29.4884 525.161 28.2972 525.667 27.5792 526.63Z" fill="#4B4B4C"/>
<path d="M15.2102 594.527C15.1123 595.017 14.9817 595.507 14.8349 595.98C14.7696 596.192 14.7043 596.388 14.6227 596.584C14.6227 596.584 14.3617 597.22 14.5248 596.845C14.1495 597.693 13.6926 598.509 13.1541 599.276C13.0236 599.455 12.9094 599.635 12.7788 599.798C13.0073 599.488 12.632 599.961 12.583 600.027C12.2567 600.418 11.914 600.777 11.555 601.136C11.245 601.43 10.9186 601.724 10.5922 602.001C10.2169 602.327 10.7228 601.919 10.3638 602.181C10.1517 602.327 9.95585 602.474 9.74372 602.605C8.99311 603.094 8.20985 603.535 7.37765 603.894C7.75295 603.731 7.18183 603.959 7.10024 603.992C6.87179 604.073 6.62703 604.155 6.38226 604.237C5.94168 604.367 5.48478 604.481 5.02789 604.579C2.90658 604.987 0.785268 605.656 0.0836036 607.957C-0.25907 609.099 0.491546 610.372 1.63379 610.682C2.77603 610.992 4.01618 610.29 4.35886 609.132C4.22832 609.377 4.22832 609.393 4.34254 609.181C4.17936 609.377 4.16305 609.426 4.27727 609.311C4.39149 609.197 4.35886 609.23 4.17936 609.393C4.27727 609.328 4.39149 609.279 4.50572 609.213C4.14673 609.393 4.53835 609.213 4.68521 609.181C4.88103 609.132 5.06052 609.083 5.25634 609.034C6.1375 608.838 7.01865 608.708 7.8835 608.414C9.80899 607.778 11.5713 606.831 13.1705 605.591C16.3198 603.143 18.6695 599.635 19.5017 595.702C19.7465 594.527 19.1591 593.304 17.9516 592.977C16.842 592.667 15.4713 593.353 15.2265 594.527H15.2102Z" fill="#4B4B4C"/>
<path d="M44.1742 639.19C39.181 641.605 36.5375 647.969 38.2835 653.207C38.6425 654.3 39.8337 655.132 41.0086 654.757C42.1019 654.398 42.9504 653.207 42.5588 652.032C42.4772 651.787 42.3956 651.542 42.3466 651.281C42.314 651.134 42.2814 650.988 42.2487 650.824C42.2487 650.743 42.1998 650.302 42.2161 650.661C42.2324 651.02 42.2161 650.58 42.2161 650.498C42.2161 650.367 42.1998 650.237 42.1998 650.106C42.1998 649.829 42.1998 649.535 42.1998 649.258C42.1998 649.16 42.1998 649.046 42.2161 648.948C42.2161 648.866 42.2161 648.801 42.2324 648.719C42.2487 648.556 42.2324 648.621 42.1998 648.932C42.1345 648.801 42.314 648.311 42.3466 648.165C42.4119 647.92 42.4772 647.659 42.5588 647.414C42.6077 647.267 42.6567 647.12 42.7056 646.973C42.7383 646.908 42.9014 646.484 42.7709 646.81C42.6404 647.136 42.8362 646.68 42.8525 646.647C42.9014 646.533 42.9667 646.419 43.032 646.304C43.1462 646.076 43.2768 645.847 43.4236 645.635C43.5705 645.423 43.8152 645.162 43.9131 644.934C43.8316 645.129 43.701 645.211 43.9131 644.966C43.9947 644.868 44.0763 644.77 44.1742 644.673C44.3537 644.477 44.5332 644.297 44.7127 644.134C44.8106 644.053 44.9085 643.955 45.0064 643.873C45.2838 643.645 45.1696 643.84 44.9738 643.873C45.1859 643.824 45.4796 643.514 45.6755 643.4C45.9202 643.253 46.165 643.122 46.4261 642.992C47.4704 642.486 47.8294 640.919 47.2257 639.957C46.5403 638.88 45.3165 638.619 44.1905 639.157L44.1742 639.19Z" fill="#4B4B4C"/>
<path d="M76.402 677.684C76.402 678.499 76.3693 679.315 76.3041 680.131C76.2714 680.572 76.2388 681.012 76.1735 681.453C76.2714 680.914 76.1735 681.551 76.1409 681.616C76.1083 681.828 76.0756 682.057 76.0267 682.269C75.7329 683.917 75.3087 685.532 74.7376 687.099C74.3459 688.192 75.1781 689.563 76.2878 689.824C77.5279 690.101 78.5886 689.449 79.0128 688.274C80.2203 684.896 80.8241 681.29 80.8241 677.7C80.8241 676.541 79.8124 675.432 78.6049 675.481C77.3974 675.53 76.3857 676.46 76.3857 677.7L76.402 677.684Z" fill="#4B4B4C"/>
<path d="M313.94 383.931C311.884 386.933 309.73 390.164 309.175 393.852C308.62 397.54 309.354 401.081 311.981 403.643C313.042 404.671 314.674 404.393 315.457 403.202C318.884 397.932 320.483 391.453 319.83 385.204C319.7 384.012 318.9 382.984 317.611 382.984C316.518 382.984 315.278 383.996 315.392 385.204C315.963 390.768 314.69 396.267 311.622 400.983L315.098 400.542C313.499 398.976 313.107 396.463 313.564 394.325C314.201 391.29 316.028 388.712 317.758 386.199C318.443 385.22 317.937 383.735 316.958 383.164C315.865 382.527 314.609 382.968 313.923 383.964L313.94 383.931Z" fill="#4B4B4C"/>
<path d="M151.072 469.892C153.928 469.892 153.928 465.47 151.072 465.47C148.216 465.47 148.216 469.892 151.072 469.892Z" fill="#4B4B4C"/>
<path d="M349.023 217.13L347.195 222.906C346.853 224.016 347.603 225.37 348.746 225.631C349.953 225.909 351.095 225.272 351.471 224.081C352.074 222.156 352.694 220.23 353.298 218.305C353.641 217.195 352.89 215.841 351.748 215.58C350.54 215.302 349.398 215.939 349.023 217.13Z" fill="#4B4B4C"/>
<path d="M398.123 74.611C397.911 75.9164 397.862 77.1565 398.042 78.4783C398.221 79.8 398.58 80.9586 399.135 82.1661C399.347 82.6393 399.983 83.0473 400.457 83.1778C400.979 83.3247 401.697 83.2594 402.17 82.9493C402.643 82.6393 403.051 82.1987 403.182 81.6276L403.263 81.0402C403.263 80.6485 403.165 80.2732 402.953 79.9306C402.904 79.8327 402.872 79.7347 402.823 79.6531L403.051 80.1753C402.709 79.3431 402.48 78.4783 402.35 77.5971L402.431 78.1846C402.317 77.3034 402.317 76.4059 402.431 75.5084L402.35 76.0959C402.35 75.998 402.382 75.8838 402.399 75.7858C402.496 75.1821 402.496 74.6273 402.17 74.0724C401.909 73.6156 401.37 73.175 400.848 73.0608C400.277 72.9302 399.641 72.9629 399.135 73.2892C398.678 73.5829 398.205 74.0562 398.123 74.611Z" fill="#4B4B4C"/>
<path d="M405.482 90.6681C405.596 90.7008 405.694 90.7497 405.809 90.7987L405.286 90.5702C405.711 90.7497 406.119 90.9945 406.478 91.2719L406.037 90.9292C406.396 91.2229 406.739 91.5493 407.016 91.9083L406.673 91.4677C406.951 91.843 407.196 92.2346 407.375 92.6589L407.147 92.1367C407.196 92.2509 407.228 92.3489 407.277 92.4631C407.473 93.0179 407.783 93.4911 408.289 93.7848C408.55 93.948 408.811 94.0296 409.105 94.0459C409.398 94.1112 409.692 94.0948 409.986 94.0133C410.524 93.8338 411.03 93.5074 411.308 93.0016C411.585 92.4957 411.732 91.8593 411.536 91.2882C411.144 90.146 410.541 89.1179 409.676 88.2694C408.811 87.4209 407.799 86.8171 406.657 86.4092C406.363 86.3113 406.07 86.3113 405.776 86.3766C405.482 86.3766 405.205 86.4745 404.96 86.6376C404.503 86.8987 404.063 87.4372 403.948 87.9594C403.818 88.5305 403.85 89.1669 404.177 89.6727L404.519 90.1133C404.797 90.3907 405.123 90.5702 405.499 90.6845L405.482 90.6681Z" fill="#4B4B4C"/>
<path d="M344.927 524.672L346.591 528C346.836 528.474 347.407 528.881 347.913 529.012C348.207 529.11 348.501 529.11 348.794 529.045C349.088 529.045 349.365 528.947 349.61 528.784C350.083 528.474 350.491 528.033 350.622 527.462L350.703 526.874C350.703 526.483 350.606 526.107 350.393 525.765L348.729 522.436C348.484 521.963 347.913 521.555 347.407 521.424C347.114 521.326 346.82 521.326 346.526 521.392C346.232 521.392 345.955 521.49 345.71 521.653C345.237 521.963 344.829 522.403 344.699 522.975L344.617 523.562C344.617 523.954 344.715 524.329 344.927 524.672Z" fill="#4B4B4C"/>
<path d="M344.046 538.982C343.475 539.814 342.904 540.63 342.349 541.462C342.186 541.723 342.104 541.984 342.088 542.278C342.023 542.572 342.039 542.866 342.121 543.159C342.186 543.453 342.316 543.698 342.512 543.91C342.675 544.155 342.871 544.334 343.132 544.481C343.638 544.759 344.274 544.889 344.846 544.71L345.368 544.481C345.694 544.285 345.972 544.024 346.167 543.682C346.738 542.849 347.31 542.033 347.864 541.201C348.028 540.94 348.109 540.679 348.125 540.385C348.191 540.092 348.174 539.798 348.093 539.504C348.028 539.211 347.897 538.966 347.701 538.754C347.538 538.509 347.342 538.329 347.081 538.182C346.575 537.905 345.939 537.775 345.368 537.954L344.846 538.182C344.519 538.378 344.242 538.639 344.046 538.982Z" fill="#4B4B4C"/>
<path d="M348.762 553.309C350.149 554.419 351.536 555.545 352.907 556.654C353.103 556.866 353.347 557.03 353.625 557.111C353.886 557.242 354.179 557.307 354.473 557.307C355.012 557.307 355.664 557.062 356.04 556.654C356.415 556.246 356.709 555.675 356.692 555.088C356.66 554.533 356.497 553.88 356.04 553.521C354.653 552.412 353.266 551.286 351.895 550.176C351.699 549.964 351.454 549.801 351.177 549.719C350.916 549.589 350.622 549.523 350.329 549.523C349.79 549.523 349.137 549.768 348.762 550.176C348.387 550.584 348.093 551.155 348.109 551.743C348.142 552.298 348.305 552.95 348.762 553.309Z" fill="#4B4B4C"/>
<path d="M358.324 589.632L359.988 592.129C360.135 592.39 360.315 592.586 360.56 592.749C360.772 592.945 361.017 593.076 361.31 593.141C361.604 593.239 361.898 593.239 362.191 593.173C362.485 593.173 362.763 593.076 363.007 592.912C363.48 592.602 363.888 592.162 364.019 591.591L364.101 591.003C364.101 590.612 364.003 590.236 363.791 589.894L362.126 587.397C361.979 587.136 361.8 586.94 361.555 586.777C361.343 586.581 361.098 586.451 360.804 586.385C360.511 586.287 360.217 586.287 359.923 586.353C359.629 586.353 359.352 586.451 359.107 586.614C358.634 586.924 358.226 587.364 358.096 587.935L358.014 588.523C358.014 588.915 358.112 589.29 358.324 589.632Z" fill="#4B4B4C"/>
<path d="M107.34 584.019C110.832 586.075 114.553 588.556 118.453 591.428C122.369 594.316 125.763 597.139 128.651 599.913C131.54 602.687 132.763 604.694 132.355 605.934C132.143 606.342 130.968 607.321 128.798 608.871C126.644 610.422 124.164 612.168 121.39 614.126C118.616 616.084 115.989 617.993 113.508 619.837C111.044 621.697 109.282 623.133 108.254 624.161C108.042 624.569 107.422 625.303 106.394 626.315L105.154 627.555C104.322 628.583 103.245 627.669 101.906 624.781C100.568 621.893 99.2304 618.45 97.8923 614.436C96.5543 610.422 95.4283 606.668 94.4982 603.16C93.5681 599.668 93.2091 597.808 93.4212 597.596C92.1811 597.808 90.843 599.407 89.4071 602.377C87.9711 605.363 86.5678 608.659 85.246 612.266C83.908 615.872 82.6678 619.119 81.5419 621.991C80.416 624.879 79.4206 626.413 78.6047 626.625C74.4763 624.161 70.8864 621.893 67.8023 619.837C64.9141 618.189 62.3522 616.492 60.084 614.746C57.8159 613 56.6899 611.711 56.6899 610.879C56.6899 609.23 57.0489 607.582 57.7669 605.934C58.4849 604.286 59.8719 602.752 61.928 601.3C62.3359 600.68 62.8581 600.011 63.4781 599.293C64.0982 598.575 64.6041 597.906 65.0283 597.286C65.8442 596.258 67.2965 594.61 69.3525 592.341C71.4086 590.073 73.1546 588.425 74.6069 587.397C73.7746 586.989 72.4366 586.728 70.5927 586.63C68.7325 586.532 66.8885 586.434 65.0283 586.32C63.1681 586.222 61.4711 586.124 59.9372 586.01C58.387 585.912 57.5221 585.749 57.31 585.553C56.9021 585.145 56.951 583.497 57.4569 580.609C57.9627 577.721 58.5339 574.539 59.1539 571.03C59.5619 568.762 59.9698 566.396 60.3941 563.932C60.802 561.468 61.4221 560.13 62.2543 559.918C62.6622 559.722 64.1145 560.44 66.5785 562.072C69.0425 563.72 71.7839 565.629 74.77 567.783C77.7562 569.937 80.5302 571.912 83.1084 573.658C85.6866 575.404 87.1715 576.383 87.5795 576.595C87.7753 576.187 87.5795 574.637 86.9594 571.961C86.3393 569.284 85.5724 566.396 84.6423 563.312C83.7122 560.228 82.831 557.389 82.0151 554.827C81.1829 552.249 80.6771 550.764 80.4649 550.356C80.2528 549.116 81.7051 548.757 84.7891 549.279C87.8732 549.801 91.2673 550.258 94.9877 550.666C98.4797 551.074 101.678 551.074 104.566 550.666C107.455 550.258 109.086 550.258 109.511 550.666C109.706 550.878 109.608 551.596 109.201 552.82C108.793 554.06 108.27 555.447 107.65 556.997C107.03 558.547 106.459 559.983 105.953 561.321C105.431 562.66 105.186 563.541 105.186 563.949C105.186 564.161 104.925 564.781 104.419 565.809C103.897 566.837 103.391 567.865 102.869 568.893C102.347 569.921 101.841 570.949 101.319 571.977C100.797 573.005 100.552 573.625 100.552 573.837C101.792 573.837 103.587 572.907 105.953 571.063C108.319 569.203 110.783 567.261 113.362 565.189C115.94 563.133 118.257 561.436 120.313 560.098C122.369 558.76 123.495 558.711 123.707 559.951C124.115 560.979 124.996 562.725 126.334 565.205C127.672 567.669 128.847 570.149 129.891 572.613C130.919 574.669 131.491 576.791 131.588 578.945C131.686 581.115 131.327 582.388 130.512 582.812C128.651 582.616 126.089 582.453 122.793 582.355C119.497 582.257 116.25 582.094 113.068 581.898C109.87 581.702 105.904 581.588 101.172 581.588C101.792 581.18 103.848 581.996 107.357 584.052L107.34 584.019Z" fill="#FF7100"/>
<path d="M37.549 11.266C38.675 11.935 39.8662 12.7182 41.1226 13.6483C42.3791 14.5785 43.4724 15.4923 44.4025 16.3898C45.3326 17.2872 45.7243 17.9236 45.5937 18.3316C45.5284 18.4621 45.1531 18.7721 44.4515 19.278C43.7498 19.7675 42.9665 20.3387 42.0691 20.9751C41.1716 21.6114 40.3231 22.2152 39.5398 22.819C38.7402 23.4227 38.1854 23.8796 37.8428 24.2059C37.7775 24.3365 37.5817 24.565 37.239 24.9076L36.8474 25.2993C36.5863 25.6256 36.2273 25.3319 35.803 24.4017C35.3788 23.4716 34.9382 22.3621 34.5139 21.073C34.0897 19.7839 33.7144 18.5763 33.4207 17.4504C33.1269 16.3245 33.0127 15.7207 33.078 15.6554C32.6864 15.7207 32.2458 16.2429 31.7889 17.1893C31.332 18.1521 30.8751 19.2127 30.4508 20.3713C30.0266 21.5299 29.6186 22.5742 29.2596 23.5043C28.9006 24.4344 28.5743 24.9239 28.3132 24.9892C26.9915 24.1896 25.8329 23.4717 24.8375 22.8026C23.9074 22.2805 23.0752 21.7256 22.3572 21.1545C21.6229 20.5997 21.2639 20.1754 21.2639 19.9144C21.2639 19.3922 21.3781 18.8537 21.6066 18.3152C21.835 17.7931 22.2919 17.2872 22.9446 16.8303C23.0752 16.6345 23.2384 16.4224 23.4342 16.1776C23.63 15.9492 23.7932 15.7371 23.9237 15.5249C24.1848 15.1986 24.658 14.6601 25.3107 13.9258C25.9798 13.1915 26.5346 12.6693 27.0078 12.3266C26.7467 12.1961 26.3061 12.1145 25.7187 12.0818C25.1149 12.0492 24.5275 12.0166 23.9237 11.9839C23.32 11.9513 22.7815 11.9187 22.2756 11.886C21.7861 11.8534 21.4924 11.8045 21.4271 11.7392C21.2966 11.6086 21.3129 11.0701 21.476 10.14C21.6392 9.20992 21.8187 8.18192 22.0309 7.056C22.1614 6.3217 22.2919 5.57104 22.4225 4.77147C22.553 3.9719 22.7488 3.54767 23.0262 3.4824C23.1568 3.41713 23.63 3.64557 24.4132 4.18405C25.2128 4.72254 26.094 5.32631 27.0567 6.02797C28.0195 6.72963 28.917 7.34971 29.7492 7.92084C30.5814 8.49196 31.0546 8.80197 31.1851 8.86725C31.2504 8.7367 31.1851 8.23085 30.9893 7.38232C30.7935 6.51748 30.5487 5.58738 30.2387 4.592C29.945 3.59661 29.6512 2.68283 29.3902 1.85062C29.1291 1.01842 28.9659 0.545194 28.9006 0.414652C28.8354 0.0230258 29.2923 -0.0911846 30.2876 0.0719931C31.283 0.235171 32.3763 0.382013 33.5675 0.512555C34.6934 0.643097 35.7215 0.643097 36.6516 0.512555C37.5817 0.382013 38.1039 0.382013 38.2507 0.512555C38.316 0.577826 38.2833 0.806263 38.1528 1.21421C38.0223 1.60583 37.8591 2.06274 37.6633 2.55228C37.4675 3.04181 37.288 3.51503 37.1085 3.9393C36.9453 4.36356 36.8637 4.65726 36.8637 4.7878C36.8637 4.85307 36.7821 5.04888 36.6189 5.39155C36.4558 5.71791 36.2926 6.06061 36.1294 6.38696C35.9662 6.71332 35.8031 7.05597 35.6399 7.38232C35.4767 7.70868 35.3951 7.9208 35.3951 7.98607C35.7867 7.98607 36.3742 7.69237 37.1411 7.08861C37.908 6.48486 38.6913 5.86478 39.5235 5.19575C40.3557 4.52672 41.09 3.98822 41.759 3.54764C42.4281 3.12337 42.7871 3.10706 42.8523 3.49868C42.9829 3.82504 43.2603 4.39618 43.7008 5.19575C44.1251 5.99532 44.5167 6.79487 44.8431 7.57813C45.1694 8.24716 45.3489 8.91618 45.3979 9.61785C45.4305 10.3195 45.3163 10.7275 45.0552 10.858C44.4515 10.7927 43.6356 10.7438 42.5749 10.7112C41.5143 10.6785 40.4699 10.6296 39.4419 10.5643C38.4139 10.499 37.1411 10.4664 35.6072 10.4664C35.803 10.3359 36.4721 10.5969 37.598 11.266H37.549Z" fill="white"/>
<path d="M25.4958 96.4858V56.1528H41.8937C44.7322 56.1528 47.1104 56.6323 49.0282 57.5912C50.9461 58.5118 52.3845 59.7776 53.3435 61.3886C54.3024 62.9613 54.7819 64.7257 54.7819 66.682C54.7819 69.0985 54.2832 71.0355 53.2859 72.4931C52.2886 73.9124 51.1379 74.948 49.8338 75.6001C52.0969 76.2138 53.8613 77.3262 55.1271 78.9372C56.3929 80.5482 57.0258 82.4853 57.0258 84.7484C57.0258 88.3924 55.7984 91.2692 53.3435 93.3789C50.927 95.4502 47.2638 96.4858 42.354 96.4858H25.4958ZM33.8962 89.2362H41.2033C43.428 89.2362 45.1349 88.891 46.324 88.2006C47.5515 87.5102 48.1652 86.2252 48.1652 84.3456C48.1652 82.8113 47.5707 81.6414 46.3816 80.8359C45.2308 80.0304 43.6965 79.6277 41.7787 79.6277C41.7787 79.6277 41.5102 79.6277 40.9731 79.6277C40.4361 79.6277 39.7841 79.6277 39.0169 79.6277C38.2498 79.6277 37.4634 79.6277 36.6579 79.6277C35.8908 79.6277 35.2387 79.6277 34.7017 79.6277C34.1647 79.6277 33.8962 79.6277 33.8962 79.6277V89.2362ZM33.8962 72.3781H40.9156C42.4883 72.3781 43.7157 72.0137 44.5979 71.2849C45.5185 70.5561 45.9788 69.2903 45.9788 67.4875C45.9788 66.1833 45.5185 65.186 44.5979 64.4956C43.7157 63.7668 42.4691 63.4024 40.8581 63.4024C40.8581 63.4024 40.6279 63.4024 40.1676 63.4024C39.7073 63.4024 39.1128 63.4024 38.384 63.4024C37.6936 63.4024 37.0031 63.4024 36.3127 63.4024C35.6223 63.4024 35.0469 63.4024 34.5866 63.4024C34.1263 63.4024 33.8962 63.4024 33.8962 63.4024V72.3781ZM76.8858 97.2338C74.3158 97.2338 71.8609 96.6393 69.5211 95.4502C67.2197 94.2611 65.3401 92.5158 63.8825 90.2144C62.4633 87.9129 61.7537 85.0936 61.7537 81.7565C61.7537 79.1482 62.1756 76.9043 63.0195 75.0247C63.8634 73.1069 64.9949 71.5342 66.4141 70.3068C67.8717 69.041 69.4828 68.1012 71.2472 67.4875C73.05 66.8737 74.8912 66.5669 76.7707 66.5669C79.6475 66.5669 82.1408 67.1998 84.2504 68.4656C86.3985 69.693 88.0479 71.4767 89.1986 73.8165C90.3877 76.1563 90.9822 78.9564 90.9822 82.2168V84.1155H67.795L67.7375 79.1674H82.7545C82.7545 78.6687 82.6202 78.0934 82.3517 77.4413C82.0832 76.7892 81.6805 76.1755 81.1435 75.6001C80.6448 74.9864 80.0119 74.4877 79.2448 74.1042C78.516 73.6822 77.6721 73.4713 76.7132 73.4713C75.1021 73.4713 73.7788 73.8357 72.7432 74.5645C71.7075 75.2932 70.9212 76.2905 70.3842 77.5563C69.8855 78.7838 69.6362 80.1838 69.6362 81.7565C69.6362 83.521 69.8855 85.0553 70.3842 86.3594C70.9212 87.6252 71.7267 88.6033 72.8007 89.2938C73.9131 89.9842 75.3131 90.3294 77.0009 90.3294C77.5762 90.3294 78.2283 90.1952 78.9571 89.9267C79.6859 89.6198 80.3763 89.1787 81.0284 88.6033C81.6805 88.028 82.1791 87.3375 82.5244 86.532L90.1192 88.776C89.2369 90.8856 88.067 92.5734 86.6094 93.8392C85.1902 95.0666 83.6367 95.9488 81.949 96.4858C80.2613 96.9845 78.5735 97.2338 76.8858 97.2338ZM104.55 91.7103V109.719H96.4954L96.4378 67.2573H104.55V72.6082C105.049 71.5342 105.701 70.5561 106.507 69.6739C107.312 68.7533 108.29 68.0053 109.441 67.4299C110.592 66.8546 111.915 66.5669 113.411 66.5669C115.943 66.5669 118.167 67.1806 120.085 68.408C122.042 69.6355 123.557 71.3999 124.631 73.7014C125.743 75.9645 126.299 78.7071 126.299 81.9291C126.299 85.0744 125.762 87.7978 124.688 90.0993C123.653 92.3624 122.195 94.1077 120.315 95.3351C118.436 96.5626 116.23 97.1763 113.699 97.1763C112.126 97.1763 110.745 96.9461 109.556 96.4858C108.367 95.9872 107.351 95.3351 106.507 94.5296C105.701 93.6857 105.049 92.746 104.55 91.7103ZM111.11 90.9623C112.491 90.9623 113.68 90.5979 114.677 89.8691C115.713 89.1404 116.499 88.1047 117.036 86.7622C117.611 85.3813 117.899 83.7703 117.899 81.9291C117.899 80.2414 117.611 78.7263 117.036 77.3837C116.499 76.0029 115.713 74.9097 114.677 74.1042C113.68 73.2986 112.491 72.8959 111.11 72.8959C109.805 72.8959 108.655 73.2986 107.657 74.1042C106.699 74.9097 105.931 76.0029 105.356 77.3837C104.819 78.7263 104.55 80.2414 104.55 81.9291C104.55 83.7319 104.819 85.3238 105.356 86.7046C105.931 88.0472 106.699 89.0828 107.657 89.8116C108.655 90.5404 109.805 90.924 111.11 90.9623ZM139.837 91.7103V109.719H131.781L131.724 67.2573H139.837V72.6082C140.335 71.5342 140.987 70.5561 141.793 69.6739C142.598 68.7533 143.576 68.0053 144.727 67.4299C145.878 66.8546 147.201 66.5669 148.697 66.5669C151.229 66.5669 153.453 67.1806 155.371 68.408C157.328 69.6355 158.843 71.3999 159.917 73.7014C161.029 75.9645 161.585 78.7071 161.585 81.9291C161.585 85.0744 161.048 87.7978 159.974 90.0993C158.939 92.3624 157.481 94.1077 155.601 95.3351C153.722 96.5626 151.516 97.1763 148.985 97.1763C147.412 97.1763 146.031 96.9461 144.842 96.4858C143.653 95.9872 142.637 95.3351 141.793 94.5296C140.987 93.6857 140.335 92.746 139.837 91.7103ZM146.396 90.9623C147.777 90.9623 148.966 90.5979 149.963 89.8691C150.999 89.1404 151.785 88.1047 152.322 86.7622C152.897 85.3813 153.185 83.7703 153.185 81.9291C153.185 80.2414 152.897 78.7263 152.322 77.3837C151.785 76.0029 150.999 74.9097 149.963 74.1042C148.966 73.2986 147.777 72.8959 146.396 72.8959C145.092 72.8959 143.941 73.2986 142.943 74.1042C141.985 74.9097 141.217 76.0029 140.642 77.3837C140.105 78.7263 139.837 80.2414 139.837 81.9291C139.837 83.7319 140.105 85.3238 140.642 86.7046C141.217 88.0472 141.985 89.0828 142.943 89.8116C143.941 90.5404 145.092 90.924 146.396 90.9623ZM194.973 67.2573V96.4858H186.918V91.998C186.611 92.6884 186.189 93.3597 185.652 94.0118C185.115 94.6255 184.482 95.1817 183.753 95.6803C183.063 96.1406 182.276 96.505 181.394 96.7735C180.55 97.042 179.63 97.1763 178.632 97.1763C176.062 97.1763 173.953 96.6776 172.303 95.6803C170.692 94.6447 169.503 93.2446 168.736 91.4802C167.969 89.7157 167.585 87.6828 167.585 85.3813V67.2573H175.64V84.2881C175.64 86.3978 176.043 88.0088 176.849 89.1212C177.654 90.1952 178.882 90.7322 180.531 90.7322C182.142 90.7322 183.408 90.3486 184.328 89.5815C185.249 88.8143 185.901 87.7211 186.285 86.3019C186.707 84.8443 186.918 83.0798 186.918 81.0085V67.2573H194.973Z" fill="white"/>
<path d="M20.6048 45.0771V31.6558H22.2154V45.0771H20.6048ZM29.1473 45.3072C28.3165 45.3072 27.5623 45.1219 26.8849 44.7512C26.2074 44.3677 25.6642 43.8053 25.2551 43.0639C24.8589 42.3098 24.6608 41.3831 24.6608 40.2838C24.6608 39.453 24.7822 38.7308 25.0251 38.1172C25.2679 37.4909 25.5939 36.9668 26.0029 36.545C26.4247 36.1104 26.9041 35.7908 27.4409 35.5863C27.9905 35.369 28.5594 35.2604 29.1473 35.2604C29.9782 35.2604 30.7323 35.4521 31.4098 35.8356C32.0873 36.2063 32.6241 36.7687 33.0204 37.5228C33.4294 38.2642 33.6339 39.1845 33.6339 40.2838C33.6339 41.1019 33.5125 41.8241 33.2696 42.4504C33.0268 43.0767 32.6944 43.6072 32.2726 44.0418C31.8636 44.4636 31.3906 44.7832 30.8538 45.0005C30.3169 45.205 29.7481 45.3072 29.1473 45.3072ZM29.1473 43.8501C30.0932 43.8501 30.809 43.5305 31.2948 42.8914C31.7805 42.2523 32.0233 41.3831 32.0233 40.2838C32.0233 39.1845 31.7805 38.3153 31.2948 37.6762C30.809 37.0371 30.0932 36.7176 29.1473 36.7176C28.227 36.7176 27.5176 37.0371 27.0191 37.6762C26.5206 38.3153 26.2713 39.1845 26.2713 40.2838C26.2713 41.3831 26.5142 42.2523 26.9999 42.8914C27.4984 43.5305 28.2142 43.8501 29.1473 43.8501ZM44.1041 37.7721L42.6469 38.3473C42.4424 37.8616 42.1356 37.4717 41.7266 37.1777C41.3303 36.8709 40.8446 36.7176 40.2694 36.7176C39.2596 36.7176 38.5182 37.0499 38.0453 37.7146C37.5851 38.3792 37.355 39.2293 37.355 40.2646C37.355 41.3256 37.5915 42.1948 38.0645 42.8722C38.5374 43.5369 39.2724 43.8692 40.2694 43.8692C40.8446 43.8692 41.3303 43.7158 41.7266 43.4091C42.1356 43.0895 42.4424 42.6869 42.6469 42.2011L44.1041 42.7763C43.7717 43.5688 43.2988 44.1952 42.6852 44.6553C42.0717 45.1027 41.2792 45.3264 40.3077 45.3264C39.5025 45.3264 38.7483 45.1411 38.0453 44.7704C37.355 44.3997 36.799 43.8437 36.3772 43.1023C35.9554 42.3609 35.7445 41.4342 35.7445 40.3222C35.7445 39.1973 35.9554 38.2642 36.3772 37.5228C36.799 36.7687 37.355 36.2063 38.0453 35.8356C38.7483 35.4521 39.5025 35.2604 40.3077 35.2604C41.1514 35.2604 41.9119 35.4841 42.5894 35.9314C43.2668 36.366 43.7717 36.9796 44.1041 37.7721ZM50.2613 45.3072C49.4049 45.3072 48.6571 45.1091 48.018 44.7129C47.3917 44.3038 46.8995 43.7286 46.5416 42.9872C46.1965 42.2331 46.024 41.3319 46.024 40.2838C46.024 39.1973 46.1965 38.2834 46.5416 37.542C46.8995 36.8006 47.4044 36.2382 48.0563 35.8548C48.7082 35.4585 49.4752 35.2604 50.3571 35.2604C50.9196 35.2604 51.4053 35.3626 51.8143 35.5672C52.2233 35.7717 52.5621 36.0337 52.8305 36.3533C53.0989 36.6728 53.2907 37.0115 53.4057 37.3694V35.4905H55.0163V45.0771H53.4057V43.2365C53.2651 43.6711 53.0286 44.0482 52.6963 44.3677C52.3767 44.6745 51.9997 44.911 51.5651 45.0771C51.1432 45.2305 50.7087 45.3072 50.2613 45.3072ZM50.5105 43.8501C51.1241 43.8501 51.6418 43.6903 52.0636 43.3707C52.4982 43.0384 52.8241 42.6038 53.0414 42.0669C53.2715 41.5301 53.3865 40.9357 53.3865 40.2838C53.3865 39.5808 53.2715 38.9608 53.0414 38.424C52.8241 37.8871 52.4982 37.4653 52.0636 37.1585C51.629 36.8518 51.0921 36.6984 50.453 36.6984C49.8267 36.6984 49.3026 36.8582 48.8808 37.1777C48.4718 37.4845 48.165 37.9063 47.9605 38.4432C47.756 38.98 47.6537 39.5808 47.6537 40.2455C47.6537 40.9101 47.756 41.5173 47.9605 42.0669C48.165 42.6038 48.4781 43.0384 48.9 43.3707C49.3346 43.6903 49.8714 43.8501 50.5105 43.8501ZM61.7725 45.3072C60.7243 45.3072 59.983 45.0708 59.5484 44.5978C59.1138 44.1249 58.8965 43.441 58.8965 42.5463V36.9668H57.1709V35.4905H57.6119C57.957 35.4905 58.219 35.4585 58.398 35.3946C58.5897 35.3179 58.7175 35.1837 58.7814 34.992C58.8581 34.8002 58.8965 34.519 58.8965 34.1483V33.0554H60.507V35.5096H62.9804V36.9668H60.507V42.5463C60.507 43.0576 60.6285 43.4155 60.8713 43.62C61.1142 43.8245 61.4721 43.9267 61.9451 43.9267C62.0729 43.9267 62.2135 43.9204 62.3669 43.9076C62.5203 43.8948 62.6736 43.8756 62.827 43.8501V45.1538C62.6609 45.205 62.4819 45.2433 62.2902 45.2689C62.0984 45.2944 61.9259 45.3072 61.7725 45.3072ZM66.1289 33.7649C65.8477 33.7649 65.5984 33.6626 65.3811 33.4581C65.1766 33.2408 65.0744 32.9915 65.0744 32.7103C65.0744 32.4163 65.1766 32.1671 65.3811 31.9626C65.5984 31.758 65.8477 31.6558 66.1289 31.6558C66.4229 31.6558 66.6657 31.758 66.8575 31.9626C67.062 32.1671 67.1643 32.4163 67.1643 32.7103C67.1643 32.9915 67.062 33.2408 66.8575 33.4581C66.6657 33.6626 66.4229 33.7649 66.1289 33.7649ZM65.3236 45.0771V35.4905H66.9342V45.0771H65.3236ZM74.1037 45.3072C73.2728 45.3072 72.5187 45.1219 71.8412 44.7512C71.1638 44.3677 70.6205 43.8053 70.2115 43.0639C69.8152 42.3098 69.6171 41.3831 69.6171 40.2838C69.6171 39.453 69.7385 38.7308 69.9814 38.1172C70.2243 37.4909 70.5502 36.9668 70.9592 36.545C71.3811 36.1104 71.8604 35.7908 72.3972 35.5863C72.9469 35.369 73.5157 35.2604 74.1037 35.2604C74.9345 35.2604 75.6887 35.4521 76.3661 35.8356C77.0436 36.2063 77.5804 36.7687 77.9767 37.5228C78.3857 38.2642 78.5902 39.1845 78.5902 40.2838C78.5902 41.1019 78.4688 41.8241 78.2259 42.4504C77.9831 43.0767 77.6507 43.6072 77.2289 44.0418C76.8199 44.4636 76.347 44.7832 75.8101 45.0005C75.2732 45.205 74.7044 45.3072 74.1037 45.3072ZM74.1037 43.8501C75.0496 43.8501 75.7654 43.5305 76.2511 42.8914C76.7368 42.2523 76.9797 41.3831 76.9797 40.2838C76.9797 39.1845 76.7368 38.3153 76.2511 37.6762C75.7654 37.0371 75.0496 36.7176 74.1037 36.7176C73.1834 36.7176 72.4739 37.0371 71.9754 37.6762C71.4769 38.3153 71.2277 39.1845 71.2277 40.2838C71.2277 41.3831 71.4705 42.2523 71.9563 42.8914C72.4548 43.5305 73.1706 43.8501 74.1037 43.8501ZM81.4294 45.0771V35.4905H83.04V37.2928C83.0783 37.1266 83.1678 36.9285 83.3084 36.6984C83.449 36.4683 83.6471 36.2446 83.9028 36.0273C84.1584 35.81 84.478 35.6311 84.8614 35.4905C85.2449 35.3371 85.7051 35.2604 86.2419 35.2604C86.8683 35.2604 87.4179 35.3946 87.8908 35.663C88.3766 35.9314 88.76 36.3277 89.0412 36.8518C89.3224 37.3758 89.463 38.0213 89.463 38.7883V45.0771H87.8525V39.0184C87.8525 38.1875 87.6544 37.5995 87.2581 37.2544C86.8619 36.8965 86.3442 36.7176 85.7051 36.7176C85.1171 36.7176 84.625 36.8582 84.2287 37.1394C83.8325 37.4078 83.5321 37.7849 83.3276 38.2706C83.1358 38.7435 83.04 39.2868 83.04 39.9003V45.0771H81.4294Z" fill="white"/>
<path d="M34.0749 150.634C30.5843 150.634 27.7075 149.713 25.4444 147.872C23.1813 145.993 21.7812 143.365 21.2442 139.99L26.0773 138.436C26.4992 140.738 27.3623 142.579 28.6664 143.96C30.0089 145.34 31.735 146.031 33.8447 146.031C35.6092 146.031 37.0092 145.571 38.0449 144.65C39.1189 143.691 39.9052 142.406 40.4039 140.795C40.9025 139.146 41.1518 137.305 41.1518 135.272V109.668H46.2151V135.214C46.2151 140.124 45.2369 143.921 43.2807 146.606C41.3628 149.291 38.2942 150.634 34.0749 150.634ZM66.2135 150.634C63.6435 150.634 61.3996 150.039 59.4817 148.85C57.6022 147.623 56.1254 145.897 55.0514 143.672C54.0157 141.409 53.4979 138.705 53.4979 135.559C53.4979 132.299 54.0157 129.556 55.0514 127.332C56.1254 125.107 57.6405 123.419 59.5968 122.268C61.553 121.079 63.8545 120.485 66.5011 120.485C68.1889 120.485 69.6465 120.792 70.8739 121.405C72.1014 122.019 73.1178 122.805 73.9233 123.764C74.7289 124.723 75.3042 125.74 75.6494 126.814V121.175H80.4825V149.943H75.6494V144.42C75.2275 145.724 74.5179 146.856 73.5206 147.815C72.5617 148.735 71.4301 149.445 70.1259 149.943C68.8601 150.404 67.556 150.634 66.2135 150.634ZM66.9614 146.261C68.8026 146.261 70.3561 145.782 71.6219 144.823C72.9261 143.825 73.9042 142.521 74.5562 140.91C75.2467 139.299 75.5919 137.515 75.5919 135.559C75.5919 133.45 75.2467 131.589 74.5562 129.978C73.9042 128.367 72.9261 127.101 71.6219 126.181C70.3177 125.26 68.7067 124.8 66.7888 124.8C64.9093 124.8 63.3366 125.279 62.0708 126.238C60.8434 127.159 59.9228 128.425 59.3091 130.036C58.6954 131.647 58.3885 133.45 58.3885 135.444C58.3885 137.439 58.6954 139.261 59.3091 140.91C59.9228 142.521 60.8626 143.825 62.1284 144.823C63.4325 145.782 65.0436 146.261 66.9614 146.261ZM95.0168 144.592V163.177H90.1837V121.175H95.0168V126.814C95.4003 125.74 95.9757 124.723 96.7428 123.764C97.5484 122.805 98.5648 122.019 99.7923 121.405C101.02 120.792 102.477 120.485 104.165 120.485C106.85 120.485 109.152 121.079 111.069 122.268C113.026 123.419 114.522 125.107 115.557 127.332C116.631 129.556 117.168 132.299 117.168 135.559C117.168 138.705 116.631 141.409 115.557 143.672C114.522 145.897 113.045 147.623 111.127 148.85C109.247 150.039 107.023 150.634 104.453 150.634C103.149 150.634 101.844 150.404 100.54 149.943C99.2361 149.483 98.0854 148.812 97.0881 147.93C96.1291 147.009 95.4387 145.897 95.0168 144.592ZM103.705 146.261C105.661 146.261 107.272 145.782 108.538 144.823C109.804 143.825 110.743 142.521 111.357 140.91C111.971 139.261 112.278 137.439 112.278 135.444C112.278 133.45 111.971 131.647 111.357 130.036C110.743 128.425 109.804 127.159 108.538 126.238C107.31 125.279 105.757 124.8 103.877 124.8C101.998 124.8 100.387 125.26 99.0443 126.181C97.7401 127.101 96.7428 128.367 96.0524 129.978C95.4003 131.589 95.0743 133.45 95.0743 135.559C95.0743 137.515 95.4003 139.299 96.0524 140.91C96.7428 142.521 97.721 143.825 98.9868 144.823C100.291 145.782 101.864 146.261 103.705 146.261ZM136.111 150.634C133.541 150.634 131.297 150.039 129.38 148.85C127.5 147.623 126.023 145.897 124.949 143.672C123.914 141.409 123.396 138.705 123.396 135.559C123.396 132.299 123.914 129.556 124.949 127.332C126.023 125.107 127.538 123.419 129.495 122.268C131.451 121.079 133.752 120.485 136.399 120.485C138.087 120.485 139.544 120.792 140.772 121.405C141.999 122.019 143.016 122.805 143.821 123.764C144.627 124.723 145.202 125.74 145.547 126.814V121.175H150.38V149.943H145.547V144.42C145.125 145.724 144.416 146.856 143.418 147.815C142.459 148.735 141.328 149.445 140.024 149.943C138.758 150.404 137.454 150.634 136.111 150.634ZM136.859 146.261C138.7 146.261 140.254 145.782 141.52 144.823C142.824 143.825 143.802 142.521 144.454 140.91C145.144 139.299 145.49 137.515 145.49 135.559C145.49 133.45 145.144 131.589 144.454 129.978C143.802 128.367 142.824 127.101 141.52 126.181C140.216 125.26 138.605 124.8 136.687 124.8C134.807 124.8 133.234 125.279 131.969 126.238C130.741 127.159 129.821 128.425 129.207 130.036C128.593 131.647 128.286 133.45 128.286 135.444C128.286 137.439 128.593 139.261 129.207 140.91C129.821 142.521 130.76 143.825 132.026 144.823C133.33 145.782 134.941 146.261 136.859 146.261ZM160.643 149.943V121.175H165.476V126.584C165.591 126.085 165.86 125.49 166.282 124.8C166.704 124.109 167.298 123.438 168.066 122.786C168.833 122.134 169.792 121.597 170.942 121.175C172.093 120.715 173.474 120.485 175.085 120.485C176.965 120.485 178.614 120.887 180.033 121.693C181.491 122.498 182.641 123.688 183.485 125.26C184.329 126.833 184.751 128.77 184.751 131.071V149.943H179.918V131.762C179.918 129.269 179.324 127.504 178.134 126.468C176.945 125.394 175.392 124.857 173.474 124.857C171.71 124.857 170.233 125.279 169.044 126.123C167.855 126.929 166.953 128.06 166.339 129.518C165.764 130.937 165.476 132.567 165.476 134.409V149.943H160.643Z" fill="white"/>
</svg>
