<svg width="412" height="115" viewBox="0 0 412 115" fill="none" xmlns="http://www.w3.org/2000/svg">
<path d="M410.79 100.699H411.002C411.426 105.363 408.67 104.303 408.034 104.303C405.914 104.303 398.282 104.303 396.162 104.091C393.406 103.879 386.834 104.939 385.562 102.183C384.078 99.215 381.11 95.8231 378.566 91.7951C376.658 88.6152 372.418 85.0112 370.086 81.1953C366.694 75.4713 362.454 72.0794 359.911 69.7474C359.063 68.6874 353.339 61.9035 352.279 60.4195L352.915 66.5674C352.915 69.3234 352.915 72.0794 352.915 75.0473C353.127 79.2873 354.399 82.4672 354.611 86.7072C355.671 90.9472 356.943 96.4591 356.943 100.911C357.367 102.183 357.155 103.243 356.731 104.091C356.307 105.363 355.247 106.635 352.703 106.635C352.703 106.635 340.195 108.331 339.983 108.543C338.499 109.179 335.319 109.179 334.683 108.967C333.623 108.543 332.563 93.0671 332.775 85.0112C332.987 80.7713 333.199 73.7753 333.199 65.5074C333.411 46.8517 333.623 22.2599 333.835 11.2361C333.835 7.8441 334.471 6.57212 337.863 5.72413C339.983 5.30013 342.103 5.08813 344.011 5.08813C347.403 5.08813 350.159 5.51213 352.067 5.72413C355.883 5.93613 356.307 7.63211 358.003 10.1761C360.759 14.416 363.514 20.352 363.938 20.9879C364.998 23.1079 366.058 25.4399 367.118 27.5599C370.934 34.1318 377.294 40.2797 382.382 46.4277C383.23 47.4876 385.562 49.3956 385.562 49.3956L383.654 39.4317L383.018 27.1359C382.806 24.3799 382.382 12.0841 383.654 8.4801C384.502 5.93613 387.046 7.84411 388.106 7.63211C388.954 7.42011 401.886 6.36012 402.734 9.11609C404.218 13.144 403.794 17.808 403.582 20.14C403.582 26.4999 405.278 61.9035 408.67 83.5272C408.67 83.7392 410.366 96.0351 410.79 100.699Z" fill="#181818"/>
<path d="M323.253 96.4591C324.101 98.791 323.041 102.819 320.921 103.031L312.865 104.303C302.902 107.059 287.85 105.999 281.914 105.999C280.43 105.999 278.946 105.363 277.25 105.151C273.858 104.727 262.198 105.363 261.562 103.455C260.926 101.547 259.866 90.7351 261.138 74.8353C261.774 66.9914 261.986 58.7235 262.198 53.8476C262.622 40.4917 262.198 29.0438 262.41 26.7119C261.562 25.8639 263.682 22.2599 261.986 17.596C260.926 14.628 270.89 12.932 272.374 12.932C277.886 12.72 281.702 11.448 288.91 11.236C295.058 11.024 301.206 11.024 306.93 11.66C309.261 11.872 311.593 12.084 313.501 12.084C316.893 11.66 321.769 12.508 321.981 14.628C322.405 17.808 320.497 19.9279 320.285 22.4719C320.073 24.8039 320.709 27.1359 320.497 29.6798C320.285 32.0118 319.437 34.5558 319.225 35.8278C319.013 37.0997 318.165 38.7957 313.713 38.7957C311.805 39.0077 307.142 38.3717 304.81 37.9477C300.994 37.3117 297.39 38.3717 294.21 38.5837C291.242 38.5837 288.91 37.9477 286.578 37.9477C283.398 38.3717 283.398 38.1597 283.398 40.7037C283.398 43.4597 285.942 43.8837 289.122 44.0957C291.454 44.0957 295.27 42.8237 298.238 42.8237C304.598 42.8237 309.685 43.6717 309.897 43.8837C311.593 45.3676 312.653 50.6676 312.017 52.5756C310.957 55.1195 312.229 62.5395 312.865 65.9314C313.077 67.6274 311.593 69.9594 309.261 70.1714C303.326 70.3834 292.726 69.3234 288.91 69.9594C287.85 70.1714 287.002 70.1714 287.002 72.2913C287.002 73.1393 287.214 74.4113 288.274 74.4113C291.454 74.4113 295.906 74.6233 300.146 73.7753C303.75 73.1393 307.354 72.9273 310.109 72.9273C313.925 72.9273 316.681 73.1393 317.105 73.3513C319.861 74.4113 320.285 82.8912 320.285 85.4352C320.285 89.0391 323.253 96.4591 323.253 96.4591Z" fill="#181818"/>
<path d="M233.179 49.6075C257.135 60.6314 252.471 77.8032 252.471 81.4072C252.471 98.155 237.419 111.299 221.519 112.995C217.915 113.207 214.311 112.995 210.707 113.419C208.163 113.843 205.407 114.055 202.651 114.055C200.531 114.055 198.411 113.843 196.503 113.419C193.535 112.783 179.756 107.059 177.424 104.727C176.788 104.303 175.728 103.667 177.424 99.639C179.968 93.2791 184.208 80.1352 186.964 75.0473C187.812 73.5633 188.66 72.7153 189.084 72.9273C189.72 73.3513 195.655 76.3192 199.047 77.5912C204.771 79.9232 204.983 82.0432 208.799 82.6792C214.311 83.7392 221.095 81.4072 222.791 77.5912C227.243 68.0513 212.191 63.8114 203.287 56.6035C192.051 47.0636 183.572 45.1556 184.208 29.2558C184.844 18.4439 195.867 8.69202 198.199 6.99604C200.531 5.51206 203.499 2.96809 206.679 2.12009C211.343 0.636105 216.431 0.00012207 221.519 0.00012207C227.879 0.00012207 234.027 1.06011 238.691 3.81607L245.687 7.42004C245.687 7.42004 248.655 8.05603 246.111 11.872C244.627 14.204 242.719 18.4439 241.447 22.2599C239.963 27.3478 236.783 30.9518 235.935 31.1638C234.663 31.1638 231.483 29.0438 227.667 29.2558C226.395 29.2558 224.911 29.2558 223.639 29.2558C222.579 29.4678 217.279 29.2558 215.371 35.1917C213.039 42.3996 221.307 44.3076 221.943 44.7316C224.911 47.0636 229.787 47.4876 233.179 49.6075Z" fill="#181818"/>
<path d="M171.258 100.699H171.47C171.894 105.363 169.138 104.303 168.502 104.303C166.382 104.303 158.75 104.303 156.63 104.091C153.874 103.879 147.302 104.939 146.03 102.183C144.546 99.215 141.578 95.8231 139.034 91.7951C137.126 88.6152 132.886 85.0112 130.554 81.1953C127.162 75.4713 122.922 72.0794 120.378 69.7474C119.53 68.6874 113.806 61.9035 112.746 60.4195L113.382 66.5674C113.382 69.3234 113.382 72.0794 113.382 75.0473C113.594 79.2873 114.866 82.4672 115.078 86.7072C116.138 90.9472 117.41 96.4591 117.41 100.911C117.834 102.183 117.622 103.243 117.198 104.091C116.774 105.363 115.714 106.635 113.17 106.635C113.17 106.635 100.663 108.331 100.451 108.543C98.9666 109.179 95.7866 109.179 95.1506 108.967C94.0906 108.543 93.0306 93.0671 93.2426 85.0112C93.4546 80.7713 93.6666 73.7753 93.6666 65.5074C93.8786 46.8517 94.0906 22.2599 94.3026 11.2361C94.3026 7.8441 94.9386 6.57212 98.3306 5.72413C100.451 5.30013 102.571 5.08813 104.478 5.08813C107.87 5.08813 110.626 5.51213 112.534 5.72413C116.35 5.93613 116.774 7.63211 118.47 10.1761C121.226 14.416 123.982 20.352 124.406 20.9879C125.466 23.1079 126.526 25.4399 127.586 27.5599C131.402 34.1318 137.762 40.2797 142.85 46.4277C143.698 47.4876 146.03 49.3956 146.03 49.3956L144.122 39.4317L143.486 27.1359C143.274 24.3799 142.85 12.0841 144.122 8.4801C144.97 5.93613 147.514 7.84411 148.574 7.63211C149.422 7.42011 162.354 6.36012 163.202 9.11609C164.686 13.144 164.262 17.808 164.05 20.14C164.05 26.4999 165.746 61.9035 169.138 83.5272C169.138 83.7392 170.834 96.0351 171.258 100.699Z" fill="#181818"/>
<path d="M79.2871 25.8638C81.4071 33.4957 83.739 47.2756 83.315 54.4835C83.103 58.5115 83.527 76.3192 79.9231 83.7392C73.7751 97.095 63.1753 108.967 47.4875 108.967C39.0075 108.967 30.1037 105.999 28.8317 105.575C26.7117 105.151 24.8037 104.091 22.8957 102.607C19.7158 100.063 16.7478 96.459 14.4158 94.127C4.66395 83.5272 0 71.6553 0 59.7834C0 48.1236 4.45195 36.2517 13.1438 25.2278C15.0518 22.6839 16.7478 19.9279 19.0798 17.5959C20.1398 16.3239 21.6238 15.052 22.8957 14.204L28.1957 9.32802C33.2836 5.51206 39.6435 3.39209 46.0035 3.39209C47.6994 3.39209 55.1194 3.39209 57.2393 3.60408C62.7513 4.02808 66.5672 5.93606 69.5352 8.90403C72.5032 11.66 77.3791 19.7159 79.2871 25.8638ZM50.2434 50.0316C50.4554 47.4876 50.6674 44.0956 50.8794 40.9157C51.0914 37.0997 49.8194 35.8277 48.3354 35.8277C46.8515 35.8277 45.1555 37.0997 44.3075 38.5837C42.3995 42.1876 39.8555 49.8195 41.1275 53.8475C41.5515 55.3315 42.3995 56.8155 44.3075 56.6035C45.7915 56.3915 49.8194 55.7555 50.2434 50.0316Z" fill="#181818"/>
</svg>
