<svg width="619" height="882" viewBox="0 0 619 882" fill="none" xmlns="http://www.w3.org/2000/svg">
<path d="M19.6138 59.5271C20.8213 60.245 22.0941 61.0936 23.4485 62.0889C24.8029 63.0843 25.9614 64.0634 26.9568 65.0098C27.9522 65.9726 28.3764 66.6579 28.2296 67.0822C28.1643 67.229 27.7564 67.5554 27.0057 68.0939C26.2551 68.6324 25.4066 69.2361 24.4439 69.9052C23.4811 70.5742 22.5837 71.2432 21.7351 71.8796C20.8866 72.516 20.2828 73.0218 19.9238 73.3645C19.8586 73.5114 19.6465 73.7562 19.2875 74.1151L18.8632 74.5394C18.5858 74.8984 18.2105 74.572 17.7536 73.5767C17.2967 72.5813 16.8235 71.3901 16.3666 70.0031C15.9097 68.6161 15.518 67.3269 15.1917 66.1194C14.8653 64.9119 14.7511 64.2755 14.8164 64.2103C14.3922 64.2755 13.9352 64.8303 13.4294 65.8584C12.9399 66.8864 12.4503 68.0286 11.9934 69.2688C11.5365 70.5089 11.1123 71.6348 10.7206 72.6302C10.329 73.6256 9.98635 74.1641 9.70894 74.2294C8.2893 73.3808 7.04915 72.5976 5.98849 71.8796C4.99311 71.3085 4.11194 70.721 3.32869 70.1173C2.54544 69.5135 2.15381 69.073 2.15381 68.7792C2.15381 68.2081 2.28432 67.637 2.52909 67.0822C2.77385 66.5111 3.26339 65.9889 3.96506 65.483C4.11192 65.2709 4.29144 65.0425 4.50357 64.7977C4.7157 64.5529 4.89518 64.3245 5.04204 64.1123C5.31944 63.7534 5.82529 63.1986 6.52696 62.4153C7.22862 61.632 7.83241 61.0609 8.33826 60.7183C8.06086 60.5714 7.58763 60.4898 6.95124 60.4572C6.31484 60.4245 5.67843 60.3919 5.04204 60.3429C4.40564 60.3103 3.81823 60.2777 3.27974 60.2287C2.74125 60.1961 2.4475 60.1471 2.38223 60.0655C2.23537 59.9187 2.25169 59.3639 2.43118 58.3685C2.61068 57.3731 2.80652 56.2798 3.01865 55.0723C3.16551 54.2891 3.29607 53.4732 3.44293 52.6246C3.58979 51.7761 3.80189 51.3192 4.07929 51.2376C4.22615 51.1724 4.71569 51.4171 5.56422 51.9882C6.41274 52.5594 7.35919 53.2121 8.38721 53.9627C9.41523 54.7133 10.3779 55.3823 11.2591 55.9861C12.1403 56.5899 12.6625 56.9325 12.8093 56.9978C12.8746 56.8509 12.8093 56.3288 12.5972 55.3987C12.385 54.4849 12.124 53.4895 11.7976 52.4125C11.4713 51.3519 11.1775 50.3728 10.9001 49.4916C10.6227 48.6105 10.4432 48.0883 10.3616 47.9414C10.2964 47.5172 10.7859 47.3866 11.8466 47.5661C12.9072 47.7456 14.0821 47.9088 15.3549 48.0393C16.5624 48.1862 17.6557 48.1862 18.651 48.0393C19.6464 47.8925 20.2176 47.8925 20.3481 48.0393C20.4134 48.1046 20.3807 48.3657 20.2339 48.79C20.087 49.2142 19.9075 49.6874 19.6954 50.2259C19.4833 50.7644 19.2874 51.2539 19.1079 51.7108C18.9284 52.1677 18.8469 52.4778 18.8469 52.6083C18.8469 52.6736 18.749 52.8857 18.5858 53.2447C18.4063 53.6037 18.2268 53.9627 18.0473 54.3054C17.8678 54.6644 17.6883 55.0234 17.5088 55.366C17.3293 55.725 17.2477 55.9371 17.2477 56.0024C17.672 56.0024 18.2921 55.6761 19.1079 55.0397C19.9238 54.4033 20.7724 53.7342 21.6698 53.0163C22.551 52.3146 23.3506 51.7272 24.0686 51.2539C24.7702 50.797 25.1619 50.7807 25.2434 51.205C25.3903 51.564 25.684 52.1677 26.1409 53.0163C26.5978 53.8648 27.0057 54.7133 27.3647 55.5782C27.7237 56.2961 27.9196 57.0141 27.9522 57.7647C27.9848 58.5154 27.8543 58.9559 27.5769 59.1028C26.9405 59.0375 26.043 58.9722 24.9171 58.9396C23.7748 58.907 22.6652 58.858 21.5719 58.7764C20.4787 58.7112 19.1079 58.6622 17.4762 58.6622C17.6883 58.5154 18.39 58.8091 19.5975 59.5107L19.6138 59.5271Z" fill="white"/>
<path d="M3.44866 150.807V144.279C3.44866 141.98 3.87975 140.009 4.74191 138.367C5.64513 136.684 6.79469 135.227 8.19057 133.995C9.58646 132.763 11.0645 131.634 12.6246 130.608C14.1847 129.54 15.6627 128.493 17.0586 127.467C18.4545 126.441 19.5835 125.291 20.4456 124.018C21.3489 122.746 21.8005 121.247 21.8005 119.523C21.8005 118.825 21.6363 118.147 21.3078 117.491C20.9794 116.793 20.4662 116.218 19.7682 115.766C19.0703 115.274 18.1876 115.027 17.1201 115.027C15.8474 115.027 14.8416 115.294 14.1026 115.828C13.3636 116.361 12.8298 117.08 12.5014 117.983C12.173 118.845 12.0087 119.81 12.0087 120.878H3.01758C3.01758 119.769 3.09969 118.455 3.26391 116.936C3.42814 115.417 3.83869 114.103 4.49558 112.995C5.60408 111.065 7.16419 109.587 9.17591 108.561C11.2287 107.535 13.8973 107.021 17.1817 107.021C19.6861 107.021 22.0058 107.494 24.1406 108.438C26.2755 109.341 27.9999 110.696 29.3136 112.502C30.6274 114.268 31.2843 116.423 31.2843 118.969C31.2843 121.432 30.8532 123.587 29.9911 125.435C29.1289 127.241 27.9999 128.822 26.604 130.177C25.2491 131.49 23.7917 132.661 22.2316 133.687C20.7125 134.713 19.255 135.699 17.8591 136.643C16.5043 137.587 15.3958 138.573 14.5337 139.599C13.6715 140.584 13.2404 141.734 13.2404 143.048H31.9617V150.807H3.44866ZM55.0978 151.669C52.0186 151.669 49.35 151.053 47.092 149.822C44.875 148.59 43.048 146.927 41.611 144.833C40.1741 142.699 39.1067 140.276 38.4087 137.567C37.7108 134.857 37.3618 132.024 37.3618 129.068C37.3618 125.948 37.7108 123.054 38.4087 120.385C39.1067 117.716 40.1741 115.376 41.611 113.364C43.089 111.353 44.9365 109.793 47.1535 108.684C49.3705 107.576 52.0186 107.021 55.0978 107.021C58.1359 107.021 60.7429 107.576 62.9189 108.684C65.1359 109.793 66.9628 111.353 68.3998 113.364C69.8367 115.376 70.9042 117.716 71.6021 120.385C72.3 123.054 72.649 125.948 72.649 129.068C72.649 132.024 72.3 134.857 71.6021 137.567C70.9452 140.276 69.8983 142.699 68.4614 144.833C67.0244 146.927 65.1974 148.59 62.9804 149.822C60.7634 151.053 58.1359 151.669 55.0978 151.669ZM55.0978 143.663C57.1506 143.663 58.8338 143.048 60.1476 141.816C61.4614 140.584 62.4262 138.88 63.042 136.705C63.6989 134.488 64.0274 131.922 64.0274 129.007C64.0274 126.01 63.6989 123.485 63.042 121.432C62.4262 119.338 61.4614 117.757 60.1476 116.69C58.8749 115.581 57.2121 115.027 55.1594 115.027C53.0245 115.027 51.2796 115.581 49.9248 116.69C48.57 117.757 47.5641 119.338 46.9072 121.432C46.2914 123.485 45.9835 126.01 45.9835 129.007C45.9835 131.922 46.2914 134.488 46.9072 136.705C47.5641 138.88 48.5494 140.584 49.8632 141.816C51.218 143.048 52.9629 143.663 55.0978 143.663ZM43.5201 145.572L58.608 113.303H66.6139L51.526 145.572H43.5201ZM79.2851 150.807V144.279C79.2851 141.98 79.7162 140.009 80.5783 138.367C81.4816 136.684 82.6311 135.227 84.027 133.995C85.4229 132.763 86.9009 131.634 88.461 130.608C90.0211 129.54 91.4991 128.493 92.895 127.467C94.2909 126.441 95.4199 125.291 96.2821 124.018C97.1853 122.746 97.6369 121.247 97.6369 119.523C97.6369 118.825 97.4727 118.147 97.1442 117.491C96.8158 116.793 96.3026 116.218 95.6047 115.766C94.9067 115.274 94.024 115.027 92.9566 115.027C91.6839 115.027 90.678 115.294 89.939 115.828C89.2 116.361 88.6663 117.08 88.3378 117.983C88.0094 118.845 87.8452 119.81 87.8452 120.878H78.854C78.854 119.769 78.9361 118.455 79.1003 116.936C79.2646 115.417 79.6751 114.103 80.332 112.995C81.4405 111.065 83.0006 109.587 85.0123 108.561C87.0651 107.535 89.7337 107.021 93.0182 107.021C95.5225 107.021 97.8422 107.494 99.9771 108.438C102.112 109.341 103.836 110.696 105.15 112.502C106.464 114.268 107.121 116.423 107.121 118.969C107.121 121.432 106.69 123.587 105.827 125.435C104.965 127.241 103.836 128.822 102.44 130.177C101.086 131.49 99.6281 132.661 98.068 133.687C96.5489 134.713 95.0915 135.699 93.6956 136.643C92.3407 137.587 91.2322 138.573 90.3701 139.599C89.5079 140.584 89.0768 141.734 89.0768 143.048H107.798V150.807H79.2851ZM128.964 151.608C125.638 151.608 122.785 150.951 120.403 149.637C118.063 148.282 116.257 146.476 114.984 144.218C113.752 141.919 113.137 139.353 113.137 136.52C113.137 135.165 113.239 133.81 113.445 132.455C113.691 131.059 114.04 129.663 114.491 128.268C114.943 126.872 115.477 125.496 116.093 124.142L123.791 107.76H133.151L126.315 122.54C126.315 122.54 126.705 122.376 127.486 122.048C128.307 121.678 129.415 121.493 130.811 121.493C133.726 121.493 136.21 122.171 138.263 123.526C140.315 124.839 141.896 126.625 143.005 128.883C144.113 131.141 144.667 133.687 144.667 136.52C144.667 139.353 143.99 141.919 142.635 144.218C141.321 146.476 139.494 148.282 137.154 149.637C134.814 150.951 132.084 151.608 128.964 151.608ZM129.025 144.156C130.667 144.156 131.981 143.787 132.966 143.048C133.952 142.309 134.65 141.344 135.06 140.153C135.512 138.921 135.738 137.628 135.738 136.273C135.738 135.165 135.512 134.056 135.06 132.948C134.65 131.798 133.931 130.854 132.905 130.115C131.878 129.335 130.503 128.945 128.779 128.945C127.219 128.945 125.946 129.335 124.961 130.115C123.975 130.854 123.236 131.798 122.744 132.948C122.292 134.056 122.066 135.165 122.066 136.273C122.066 137.628 122.292 138.921 122.744 140.153C123.236 141.344 123.996 142.309 125.022 143.048C126.049 143.787 127.383 144.156 129.025 144.156Z" fill="white"/>
<path d="M5.46038 96.6785C4.3382 96.6785 3.54446 96.4253 3.07916 95.9189C2.61387 95.4126 2.38122 94.6804 2.38122 93.7225V87.7489H0.533722V86.1683H1.00586C1.37536 86.1683 1.65591 86.134 1.8475 86.0656C2.05278 85.9835 2.18963 85.8398 2.25805 85.6345C2.34016 85.4293 2.38122 85.1282 2.38122 84.7313V83.5612H4.10555V86.1888H6.75363V87.7489H4.10555V93.7225C4.10555 94.2699 4.23556 94.6531 4.49558 94.872C4.7556 95.091 5.13878 95.2005 5.64513 95.2005C5.78198 95.2005 5.93252 95.1936 6.09674 95.1799C6.26097 95.1663 6.42519 95.1457 6.58941 95.1184V96.5142C6.4115 96.569 6.21991 96.61 6.01463 96.6374C5.80936 96.6648 5.62461 96.6785 5.46038 96.6785ZM10.1245 84.3208C9.82344 84.3208 9.55658 84.2113 9.32393 83.9923C9.10497 83.7597 8.99549 83.4928 8.99549 83.1917C8.99549 82.877 9.10497 82.6101 9.32393 82.3911C9.55658 82.1722 9.82344 82.0627 10.1245 82.0627C10.4393 82.0627 10.6993 82.1722 10.9046 82.3911C11.1235 82.6101 11.233 82.877 11.233 83.1917C11.233 83.4928 11.1235 83.7597 10.9046 83.9923C10.6993 84.2113 10.4393 84.3208 10.1245 84.3208ZM9.26235 96.4321V86.1683H10.9867V96.4321H9.26235ZM14.5981 96.4321V86.1683H16.3225V88.0979C16.3635 87.92 16.4593 87.7078 16.6098 87.4615C16.7604 87.2152 16.9725 86.9757 17.2462 86.743C17.5199 86.5104 17.862 86.3188 18.2726 86.1683C18.6831 86.004 19.1758 85.9219 19.7506 85.9219C20.4212 85.9219 21.0096 86.0656 21.516 86.353C22.036 86.6404 22.4466 87.0646 22.7476 87.6257C23.0487 88.1868 23.1993 88.8779 23.1993 89.699V96.4321H21.4749V89.9454C21.4749 89.0558 21.2628 88.4263 20.8386 88.0568C20.4143 87.6736 19.8601 87.482 19.1758 87.482C18.5463 87.482 18.0194 87.6326 17.5952 87.9336C17.1709 88.221 16.8493 88.6247 16.6304 89.1448C16.4251 89.6511 16.3225 90.2327 16.3225 90.8896V96.4321H14.5981ZM28.3517 96.4321V89.9454C28.3517 89.0558 28.1396 88.4263 27.7154 88.0568C27.2911 87.6736 26.7369 87.482 26.0526 87.482C25.4231 87.482 24.8962 87.6326 24.472 87.9336C24.0477 88.221 23.7261 88.6247 23.5072 89.1448C23.3019 89.6511 23.1993 90.2327 23.1993 90.8896L22.994 88.2826C23.035 88.1047 23.1377 87.8857 23.3019 87.6257C23.4798 87.352 23.7193 87.0852 24.0204 86.8251C24.3214 86.5651 24.6841 86.353 25.1083 86.1888C25.5463 86.0109 26.0526 85.9219 26.6274 85.9219C27.298 85.9219 27.8864 86.0656 28.3928 86.353C28.9128 86.6404 29.3234 87.0646 29.6244 87.6257C29.9255 88.1868 30.076 88.8779 30.076 89.699V96.4321H28.3517ZM37.7499 96.699C36.7919 96.699 35.9435 96.4869 35.2045 96.0626C34.4655 95.6247 33.8838 95.002 33.4596 94.1946C33.049 93.3872 32.8438 92.4361 32.8438 91.3412C32.8438 90.4928 32.9601 89.7401 33.1927 89.0832C33.4391 88.4126 33.7744 87.8447 34.1986 87.3794C34.6365 86.9004 35.1497 86.5378 35.7382 86.2914C36.3403 86.0451 36.9904 85.9219 37.6883 85.9219C38.5368 85.9219 39.3032 86.1067 39.9874 86.4762C40.6854 86.832 41.2396 87.3931 41.6502 88.1594C42.0607 88.9121 42.266 89.8838 42.266 91.0744V91.6286H34.486V90.1917H40.5006C40.5006 89.9864 40.4459 89.7332 40.3364 89.4322C40.2406 89.1174 40.0832 88.8163 39.8643 88.5289C39.6453 88.2279 39.3579 87.9815 39.0021 87.7899C38.66 87.5847 38.2494 87.482 37.7704 87.482C37.0314 87.482 36.4224 87.6394 35.9435 87.9542C35.4782 88.2552 35.136 88.7 34.9171 89.2885C34.6981 89.8632 34.5886 90.568 34.5886 91.4028C34.5886 92.046 34.6776 92.655 34.8555 93.2298C35.0471 93.8046 35.3755 94.2699 35.8408 94.6257C36.3061 94.9678 36.9698 95.1389 37.832 95.1389C38.2289 95.1389 38.6052 95.0636 38.961 94.9131C39.3305 94.7625 39.6521 94.5573 39.9258 94.2972C40.2132 94.0235 40.4185 93.7019 40.5417 93.3324L42.225 93.6198C42.0607 94.1809 41.787 94.6941 41.4038 95.1594C41.0343 95.6247 40.5485 96.001 39.9464 96.2884C39.3442 96.5621 38.6121 96.699 37.7499 96.699Z" fill="white"/>
<path d="M24.3936 208.756C21.027 208.756 18.1121 208.161 15.6488 206.97C13.2265 205.78 11.2353 204.158 9.67519 202.105C8.11508 200.011 6.96553 197.63 6.22653 194.961C5.48753 192.252 5.11803 189.419 5.11803 186.463C5.11803 183.507 5.48753 180.695 6.22653 178.026C6.96553 175.316 8.11508 172.935 9.67519 170.882C11.2353 168.788 13.2265 167.146 15.6488 165.956C18.1121 164.765 21.027 164.17 24.3936 164.17C27.8012 164.17 30.7161 164.765 33.1384 165.956C35.5607 167.146 37.5519 168.788 39.112 170.882C40.6721 172.935 41.8217 175.316 42.5607 178.026C43.2997 180.695 43.6692 183.507 43.6692 186.463C43.6692 189.419 43.2997 192.252 42.5607 194.961C41.8217 197.63 40.6721 200.011 39.112 202.105C37.5519 204.158 35.5607 205.78 33.1384 206.97C30.7161 208.161 27.8012 208.756 24.3936 208.756ZM24.3936 203.829C27.5549 203.829 30.1208 203.049 32.0915 201.489C34.1032 199.929 35.5812 197.835 36.5255 195.208C37.5108 192.539 38.0035 189.624 38.0035 186.463C38.0035 183.261 37.5108 180.346 36.5255 177.718C35.5812 175.091 34.1032 172.997 32.0915 171.437C30.1208 169.876 27.5549 169.096 24.3936 169.096C21.4787 169.096 18.9948 169.876 16.942 171.437C14.9303 172.997 13.3907 175.091 12.3233 177.718C11.2969 180.346 10.7837 183.261 10.7837 186.463C10.7837 189.624 11.2969 192.539 12.3233 195.208C13.3907 197.835 14.9303 199.929 16.942 201.489C18.9948 203.049 21.4787 203.829 24.3936 203.829ZM76.2842 184.615L71.6039 186.463C70.947 184.903 69.9617 183.651 68.6479 182.706C67.3752 181.721 65.8151 181.228 63.9676 181.228C60.7242 181.228 58.343 182.296 56.8239 184.431C55.3459 186.566 54.6069 189.296 54.6069 192.621C54.6069 196.029 55.3665 198.821 56.8855 200.997C58.4046 203.131 60.7653 204.199 63.9676 204.199C65.8151 204.199 67.3752 203.706 68.6479 202.721C69.9617 201.694 70.947 200.401 71.6039 198.841L76.2842 200.689C75.2168 203.234 73.6977 205.246 71.7271 206.724C69.7564 208.161 67.211 208.879 64.0907 208.879C61.5043 208.879 59.082 208.284 56.8239 207.093C54.6069 205.903 52.821 204.117 51.4662 201.736C50.1113 199.354 49.4339 196.378 49.4339 192.806C49.4339 189.193 50.1113 186.196 51.4662 183.815C52.821 181.393 54.6069 179.586 56.8239 178.395C59.082 177.164 61.5043 176.548 64.0907 176.548C66.8004 176.548 69.2432 177.266 71.4192 178.703C73.5951 180.099 75.2168 182.07 76.2842 184.615ZM95.5064 208.818C92.1398 208.818 89.7586 208.058 88.3627 206.539C86.9668 205.02 86.2689 202.824 86.2689 199.95V182.029H80.7264V177.287H82.1428C83.2513 177.287 84.093 177.184 84.6677 176.979C85.2836 176.733 85.6941 176.302 85.8994 175.686C86.1457 175.07 86.2689 174.167 86.2689 172.976V169.466H91.4419V177.349H99.3861V182.029H91.4419V199.95C91.4419 201.592 91.8319 202.741 92.612 203.398C93.392 204.055 94.5416 204.384 96.0606 204.384C96.4712 204.384 96.9228 204.363 97.4155 204.322C97.9081 204.281 98.4008 204.219 98.8935 204.137V208.325C98.3598 208.489 97.785 208.612 97.1691 208.694C96.5533 208.777 95.9991 208.818 95.5064 208.818Z" fill="white"/>
<path d="M208.444 548.566V514.001C208.444 501.828 210.727 491.393 215.292 482.698C220.074 473.785 226.161 466.068 233.552 459.546C240.943 453.025 248.769 447.047 257.03 441.612C265.29 435.96 273.116 430.417 280.507 424.982C287.898 419.547 293.876 413.461 298.441 406.722C303.224 399.983 305.615 392.048 305.615 382.918C305.615 379.222 304.746 375.635 303.007 372.157C301.268 368.462 298.55 365.418 294.855 363.027C291.159 360.419 286.485 359.114 280.833 359.114C274.094 359.114 268.768 360.527 264.855 363.353C260.943 366.179 258.117 369.983 256.377 374.766C254.638 379.331 253.769 384.44 253.769 390.092H206.161C206.161 384.222 206.596 377.266 207.466 369.223C208.335 361.179 210.509 354.223 213.987 348.354C219.857 338.137 228.117 330.311 238.769 324.876C249.638 319.441 263.769 316.724 281.159 316.724C294.42 316.724 306.702 319.224 318.006 324.224C329.31 329.006 338.44 336.18 345.397 345.745C352.353 355.093 355.831 366.505 355.831 379.983C355.831 393.026 353.549 404.439 348.984 414.221C344.418 423.786 338.44 432.156 331.049 439.329C323.876 446.286 316.158 452.481 307.898 457.916C299.854 463.35 292.137 468.568 284.746 473.568C277.573 478.567 271.703 483.785 267.138 489.219C262.573 494.437 260.29 500.523 260.29 507.48H359.418V548.566H208.444ZM481.922 553.131C465.618 553.131 451.488 549.87 439.531 543.348C427.793 536.827 418.119 528.023 410.51 516.936C402.902 505.632 397.25 492.806 393.554 478.459C389.859 464.111 388.011 449.112 388.011 433.46C388.011 416.939 389.859 401.613 393.554 387.483C397.25 373.353 402.902 360.962 410.51 350.31C418.336 339.658 428.119 331.398 439.857 325.528C451.596 319.659 465.618 316.724 481.922 316.724C498.008 316.724 511.812 319.659 523.333 325.528C535.072 331.398 544.746 339.658 552.354 350.31C559.963 360.962 565.615 373.353 569.31 387.483C573.006 401.613 574.854 416.939 574.854 433.46C574.854 449.112 573.006 464.111 569.31 478.459C565.832 492.806 560.289 505.632 552.68 516.936C545.072 528.023 535.398 536.827 523.66 543.348C511.921 549.87 498.008 553.131 481.922 553.131ZM481.922 510.74C492.791 510.74 501.704 507.48 508.66 500.958C515.616 494.437 520.725 485.415 523.986 473.894C527.464 462.155 529.203 448.568 529.203 433.134C529.203 417.265 527.464 403.896 523.986 393.026C520.725 381.94 515.616 373.57 508.66 367.918C501.921 362.049 493.117 359.114 482.248 359.114C470.944 359.114 461.705 362.049 454.531 367.918C447.357 373.57 442.031 381.94 438.553 393.026C435.292 403.896 433.662 417.265 433.662 433.134C433.662 448.568 435.292 462.155 438.553 473.894C442.031 485.415 447.249 494.437 454.205 500.958C461.379 507.48 470.617 510.74 481.922 510.74ZM420.619 520.849L500.508 349.984H542.898L463.009 520.849H420.619Z" fill="white"/>
<path d="M224.419 800.317V765.752C224.419 753.579 226.702 743.144 231.267 734.449C236.049 725.536 242.136 717.819 249.527 711.297C256.918 704.776 264.744 698.798 273.005 693.363C281.265 687.711 289.091 682.168 296.482 676.733C303.873 671.298 309.852 665.212 314.417 658.473C319.199 651.734 321.59 643.799 321.59 634.669C321.59 630.973 320.721 627.386 318.982 623.908C317.243 620.213 314.525 617.169 310.83 614.778C307.134 612.169 302.46 610.865 296.808 610.865C290.069 610.865 284.743 612.278 280.831 615.104C276.918 617.93 274.092 621.734 272.353 626.517C270.613 631.082 269.744 636.191 269.744 641.843H222.137C222.137 635.973 222.571 629.017 223.441 620.974C224.31 612.93 226.484 605.974 229.962 600.105C235.832 589.887 244.092 582.062 254.744 576.627C265.614 571.192 279.744 568.475 297.134 568.475C310.395 568.475 322.677 570.975 333.981 575.975C345.285 580.757 354.415 587.931 361.372 597.496C368.328 606.844 371.806 618.256 371.806 631.734C371.806 644.777 369.524 656.19 364.959 665.972C360.394 675.537 354.415 683.907 347.024 691.08C339.851 698.037 332.134 704.232 323.873 709.667C315.83 715.101 308.112 720.319 300.721 725.319C293.548 730.318 287.678 735.536 283.113 740.97C278.548 746.188 276.265 752.274 276.265 759.231H375.393V800.317H224.419ZM487.462 804.556C469.854 804.556 454.746 801.077 442.137 794.121C429.746 786.947 420.181 777.382 413.442 765.426C406.921 753.253 403.66 739.666 403.66 724.666C403.66 717.493 404.204 710.319 405.29 703.145C406.595 695.754 408.443 688.363 410.834 680.972C413.225 673.581 416.051 666.298 419.312 659.125L460.072 572.388H509.635L473.441 650.647C473.441 650.647 475.506 649.777 479.636 648.038C483.984 646.082 489.853 645.103 497.244 645.103C512.679 645.103 525.831 648.69 536.7 655.864C547.569 662.82 555.938 672.277 561.808 684.233C567.677 696.189 570.612 709.667 570.612 724.666C570.612 739.666 567.025 753.253 559.851 765.426C552.895 777.382 543.221 786.947 530.83 794.121C518.44 801.077 503.983 804.556 487.462 804.556ZM487.788 765.1C496.484 765.1 503.44 763.144 508.657 759.231C513.874 755.318 517.57 750.209 519.744 743.905C522.135 737.383 523.331 730.536 523.331 723.362C523.331 717.493 522.135 711.623 519.744 705.754C517.57 699.667 513.766 694.667 508.331 690.754C502.896 686.624 495.614 684.559 486.484 684.559C478.223 684.559 471.484 686.624 466.267 690.754C461.05 694.667 457.137 699.667 454.528 705.754C452.137 711.623 450.941 717.493 450.941 723.362C450.941 730.536 452.137 737.383 454.528 743.905C457.137 750.209 461.158 755.318 466.593 759.231C472.028 763.144 479.093 765.1 487.788 765.1Z" fill="#FF7100"/>
<mask id="mask0_27_78" style="mask-type:luminance" maskUnits="userSpaceOnUse" x="186" y="221" width="433" height="106">
<path d="M618.101 221.955H186.512V326.111H618.101V221.955Z" fill="white"/>
</mask>
<g mask="url(#mask0_27_78)">
<path d="M208.444 480.587V446.022C208.444 433.849 210.726 423.414 215.292 414.719C220.074 405.806 226.161 398.089 233.552 391.567C240.943 385.046 248.769 379.068 257.03 373.633C265.29 367.981 273.116 362.438 280.507 357.003C287.898 351.568 293.876 345.482 298.441 338.743C303.224 332.004 305.615 324.069 305.615 314.939C305.615 311.243 304.746 307.656 303.007 304.178C301.267 300.483 298.55 297.439 294.855 295.048C291.159 292.44 286.485 291.135 280.833 291.135C274.094 291.135 268.768 292.548 264.855 295.374C260.942 298.2 258.116 302.004 256.377 306.787C254.638 311.352 253.769 316.461 253.769 322.113H206.161C206.161 316.243 206.596 309.287 207.466 301.244C208.335 293.2 210.509 286.244 213.987 280.375C219.857 270.158 228.117 262.332 238.769 256.897C249.638 251.462 263.768 248.745 281.159 248.745C294.42 248.745 306.702 251.245 318.006 256.245C329.31 261.027 338.44 268.201 345.397 277.766C352.353 287.114 355.831 298.526 355.831 312.004C355.831 325.047 353.549 336.46 348.984 346.242C344.418 355.807 338.44 364.177 331.049 371.35C323.876 378.307 316.158 384.502 307.898 389.937C299.854 395.371 292.137 400.589 284.746 405.589C277.572 410.588 271.703 415.806 267.138 421.24C262.573 426.458 260.29 432.544 260.29 439.501H359.418V480.587H208.444ZM481.921 485.152C465.618 485.152 451.488 481.891 439.531 475.369C427.793 468.848 418.119 460.044 410.51 448.957C402.902 437.653 397.25 424.827 393.554 410.48C389.859 396.132 388.011 381.133 388.011 365.481C388.011 348.96 389.859 333.634 393.554 319.504C397.25 305.374 402.902 292.983 410.51 282.331C418.336 271.679 428.119 263.419 439.857 257.549C451.596 251.68 465.618 248.745 481.921 248.745C498.008 248.745 511.812 251.68 523.333 257.549C535.072 263.419 544.746 271.679 552.354 282.331C559.963 292.983 565.615 305.374 569.31 319.504C573.006 333.634 574.854 348.96 574.854 365.481C574.854 381.133 573.006 396.132 569.31 410.48C565.832 424.827 560.289 437.653 552.68 448.957C545.072 460.044 535.398 468.848 523.659 475.369C511.921 481.891 498.008 485.152 481.921 485.152ZM481.921 442.761C492.791 442.761 501.704 439.501 508.66 432.979C515.616 426.458 520.725 417.436 523.986 405.915C527.464 394.176 529.203 380.589 529.203 365.155C529.203 349.286 527.464 335.917 523.986 325.047C520.725 313.961 515.616 305.591 508.66 299.939C501.921 294.07 493.117 291.135 482.248 291.135C470.943 291.135 461.705 294.07 454.531 299.939C447.357 305.591 442.031 313.961 438.553 325.047C435.292 335.917 433.662 349.286 433.662 365.155C433.662 380.589 435.292 394.176 438.553 405.915C442.031 417.436 447.248 426.458 454.205 432.979C461.379 439.501 470.617 442.761 481.921 442.761ZM420.619 452.87L500.508 282.005H542.898L463.009 452.87H420.619Z" fill="white"/>
</g>
<mask id="mask1_27_78" style="mask-type:luminance" maskUnits="userSpaceOnUse" x="186" y="147" width="433" height="106">
<path d="M618.101 147.97H186.512V252.126H618.101V147.97Z" fill="white"/>
</mask>
<g mask="url(#mask1_27_78)">
<path d="M208.444 406.602V372.038C208.444 359.864 210.726 349.43 215.292 340.734C220.074 331.822 226.161 324.104 233.552 317.583C240.943 311.061 248.769 305.083 257.03 299.649C265.29 293.997 273.116 288.453 280.507 283.019C287.898 277.584 293.876 271.497 298.441 264.758C303.224 258.019 305.615 250.085 305.615 240.955C305.615 237.259 304.746 233.672 303.007 230.194C301.267 226.498 298.55 223.455 294.855 221.064C291.159 218.455 286.485 217.151 280.833 217.151C274.094 217.151 268.768 218.564 264.855 221.39C260.942 224.216 258.116 228.02 256.377 232.803C254.638 237.368 253.769 242.476 253.769 248.128H206.161C206.161 242.259 206.596 235.303 207.466 227.259C208.335 219.216 210.509 212.26 213.987 206.39C219.857 196.173 228.117 188.347 238.769 182.913C249.638 177.478 263.768 174.761 281.159 174.761C294.42 174.761 306.702 177.261 318.006 182.26C329.31 187.043 338.44 194.217 345.397 203.782C352.353 213.129 355.831 224.542 355.831 238.02C355.831 251.063 353.549 262.476 348.984 272.258C344.418 281.823 338.44 290.192 331.049 297.366C323.876 304.322 316.158 310.518 307.898 315.952C299.854 321.387 292.137 326.604 284.746 331.604C277.572 336.604 271.703 341.821 267.138 347.256C262.573 352.473 260.29 358.56 260.29 365.516H359.418V406.602H208.444ZM481.921 411.167C465.618 411.167 451.488 407.906 439.531 401.385C427.793 394.863 418.119 386.059 410.51 374.973C402.902 363.669 397.25 350.843 393.554 336.495C389.859 322.148 388.011 307.148 388.011 291.497C388.011 274.975 389.859 259.65 393.554 245.52C397.25 231.39 402.902 218.999 410.51 208.347C418.336 197.695 428.119 189.434 439.857 183.565C451.596 177.695 465.618 174.761 481.921 174.761C498.008 174.761 511.812 177.695 523.333 183.565C535.072 189.434 544.746 197.695 552.354 208.347C559.963 218.999 565.615 231.39 569.31 245.52C573.006 259.65 574.854 274.975 574.854 291.497C574.854 307.148 573.006 322.148 569.31 336.495C565.832 350.843 560.289 363.669 552.68 374.973C545.072 386.059 535.398 394.863 523.659 401.385C511.921 407.906 498.008 411.167 481.921 411.167ZM481.921 368.777C492.791 368.777 501.704 365.516 508.66 358.995C515.616 352.473 520.725 343.452 523.986 331.93C527.464 320.191 529.203 306.605 529.203 291.171C529.203 275.301 527.464 261.932 523.986 251.063C520.725 239.976 515.616 231.607 508.66 225.955C501.921 220.086 493.117 217.151 482.248 217.151C470.943 217.151 461.705 220.086 454.531 225.955C447.357 231.607 442.031 239.976 438.553 251.063C435.292 261.932 433.662 275.301 433.662 291.171C433.662 306.605 435.292 320.191 438.553 331.93C442.031 343.452 447.248 352.473 454.205 358.995C461.379 365.516 470.617 368.777 481.921 368.777ZM420.619 378.886L500.508 208.021H542.898L463.009 378.886H420.619Z" fill="white"/>
</g>
<mask id="mask2_27_78" style="mask-type:luminance" maskUnits="userSpaceOnUse" x="186" y="73" width="433" height="106">
<path d="M618.101 73.9844H186.512V178.141H618.101V73.9844Z" fill="white"/>
</mask>
<g mask="url(#mask2_27_78)">
<path d="M208.444 332.617V298.053C208.444 285.879 210.726 275.444 215.292 266.749C220.074 257.836 226.161 250.119 233.552 243.597C240.943 237.076 248.769 231.098 257.03 225.663C265.29 220.011 273.116 214.468 280.507 209.033C287.898 203.599 293.876 197.512 298.441 190.773C303.224 184.034 305.615 176.099 305.615 166.969C305.615 163.274 304.746 159.687 303.007 156.209C301.267 152.513 298.55 149.47 294.855 147.078C291.159 144.47 286.485 143.165 280.833 143.165C274.094 143.165 268.768 144.578 264.855 147.404C260.942 150.23 258.116 154.035 256.377 158.817C254.638 163.382 253.769 168.491 253.769 174.143H206.161C206.161 168.273 206.596 161.317 207.466 153.274C208.335 145.231 210.509 138.274 213.987 132.405C219.857 122.188 228.117 114.362 238.769 108.927C249.638 103.493 263.768 100.775 281.159 100.775C294.42 100.775 306.702 103.275 318.006 108.275C329.31 113.058 338.44 120.231 345.397 129.796C352.353 139.144 355.831 150.557 355.831 164.034C355.831 177.078 353.549 188.49 348.984 198.273C344.418 207.838 338.44 216.207 331.049 223.381C323.876 230.337 316.158 236.532 307.898 241.967C299.854 247.402 292.137 252.619 284.746 257.619C277.572 262.619 271.703 267.836 267.138 273.271C262.573 278.488 260.29 284.575 260.29 291.531H359.418V332.617H208.444ZM481.921 337.182C465.618 337.182 451.488 333.921 439.531 327.4C427.793 320.878 418.119 312.074 410.51 300.987C402.902 289.683 397.25 276.857 393.554 262.51C389.859 248.163 388.011 233.163 388.011 217.511C388.011 200.99 389.859 185.664 393.554 171.534C397.25 157.404 402.902 145.013 410.51 134.361C418.336 123.709 428.119 115.449 439.857 109.579C451.596 103.71 465.618 100.775 481.921 100.775C498.008 100.775 511.812 103.71 523.333 109.579C535.072 115.449 544.746 123.709 552.354 134.361C559.963 145.013 565.615 157.404 569.31 171.534C573.006 185.664 574.854 200.99 574.854 217.511C574.854 233.163 573.006 248.163 569.31 262.51C565.832 276.857 560.289 289.683 552.68 300.987C545.072 312.074 535.398 320.878 523.659 327.4C511.921 333.921 498.008 337.182 481.921 337.182ZM481.921 294.792C492.791 294.792 501.704 291.531 508.66 285.009C515.616 278.488 520.725 269.466 523.986 257.945C527.464 246.206 529.203 232.62 529.203 217.185C529.203 201.316 527.464 187.947 523.986 177.078C520.725 165.991 515.616 157.622 508.66 151.97C501.921 146.1 493.117 143.165 482.248 143.165C470.943 143.165 461.705 146.1 454.531 151.97C447.357 157.622 442.031 165.991 438.553 177.078C435.292 187.947 433.662 201.316 433.662 217.185C433.662 232.62 435.292 246.206 438.553 257.945C442.031 269.466 447.248 278.488 454.205 285.009C461.379 291.531 470.617 294.792 481.921 294.792ZM420.619 304.9L500.508 134.035H542.898L463.009 304.9H420.619Z" fill="white"/>
</g>
<mask id="mask3_27_78" style="mask-type:luminance" maskUnits="userSpaceOnUse" x="186" y="0" width="433" height="105">
<path d="M618.101 0H186.512V104.156H618.101V0Z" fill="white"/>
</mask>
<g mask="url(#mask3_27_78)">
<path d="M208.444 258.632V224.068C208.444 211.894 210.726 201.46 215.292 192.764C220.074 183.851 226.161 176.134 233.552 169.613C240.943 163.091 248.769 157.113 257.03 151.678C265.29 146.026 273.116 140.483 280.507 135.048C287.898 129.614 293.876 123.527 298.441 116.788C303.224 110.049 305.615 102.114 305.615 92.9843C305.615 89.2887 304.746 85.7019 303.007 82.2237C301.267 78.5282 298.55 75.4848 294.855 73.0935C291.159 70.4849 286.485 69.1806 280.833 69.1806C274.094 69.1806 268.768 70.5936 264.855 73.4196C260.942 76.2456 258.116 80.0499 256.377 84.8323C254.638 89.3974 253.769 94.506 253.769 100.158H206.161C206.161 94.2886 206.596 87.3323 207.466 79.289C208.335 71.2458 210.509 64.2894 213.987 58.42C219.857 48.2029 228.117 40.377 238.769 34.9424C249.638 29.5078 263.768 26.7905 281.159 26.7905C294.42 26.7905 306.702 29.2904 318.006 34.2903C329.31 39.0727 338.44 46.2464 345.397 55.8114C352.353 65.159 355.831 76.5717 355.831 90.0496C355.831 103.093 353.549 114.505 348.984 124.288C344.418 133.853 338.44 142.222 331.049 149.396C323.876 156.352 316.158 162.548 307.898 167.982C299.854 173.417 292.137 178.634 284.746 183.634C277.572 188.634 271.703 193.851 267.138 199.286C262.573 204.503 260.29 210.59 260.29 217.546H359.418V258.632H208.444ZM481.921 263.197C465.618 263.197 451.488 259.936 439.531 253.415C427.793 246.893 418.119 238.089 410.51 227.002C402.902 215.698 397.25 202.873 393.554 188.525C389.859 174.178 388.011 159.178 388.011 143.526C388.011 127.005 389.859 111.679 393.554 97.5494C397.25 83.4193 402.902 71.0284 410.51 60.3765C418.336 49.7246 428.119 41.464 439.857 35.5946C451.596 29.7252 465.618 26.7905 481.921 26.7905C498.008 26.7905 511.812 29.7252 523.333 35.5946C535.072 41.464 544.746 49.7246 552.354 60.3765C559.963 71.0284 565.615 83.4193 569.31 97.5494C573.006 111.679 574.854 127.005 574.854 143.526C574.854 159.178 573.006 174.178 569.31 188.525C565.832 202.873 560.289 215.698 552.68 227.002C545.072 238.089 535.398 246.893 523.659 253.415C511.921 259.936 498.008 263.197 481.921 263.197ZM481.921 220.807C492.791 220.807 501.704 217.546 508.66 211.025C515.616 204.503 520.725 195.481 523.986 183.96C527.464 172.221 529.203 158.635 529.203 143.2C529.203 127.331 527.464 113.962 523.986 103.093C520.725 92.0061 515.616 83.6367 508.66 77.9847C501.921 72.1153 493.117 69.1806 482.248 69.1806C470.943 69.1806 461.705 72.1153 454.531 77.9847C447.357 83.6367 442.031 92.0061 438.553 103.093C435.292 113.962 433.662 127.331 433.662 143.2C433.662 158.635 435.292 172.221 438.553 183.96C442.031 195.481 447.248 204.503 454.205 211.025C461.379 217.546 470.617 220.807 481.921 220.807ZM420.619 230.915L500.508 60.0504H542.898L463.009 230.915H420.619Z" fill="white"/>
</g>
</svg>
